G04 MADE WITH FRITZING*
G04 WWW.FRITZING.ORG*
G04 DOUBLE SIDED*
G04 HOLES PLATED*
G04 CONTOUR ON CENTER OF CONTOUR VECTOR*
%ASAXBY*%
%FSLAX23Y23*%
%MOIN*%
%OFA0B0*%
%SFA1.0B1.0*%
%ADD10C,0.010000*%
%ADD11R,0.001000X0.001000*%
%LNSILK0*%
G90*
G70*
G54D10*
X4426Y247D02*
X3626Y247D01*
D02*
X3626Y247D02*
X3626Y347D01*
D02*
X3626Y347D02*
X4426Y347D01*
D02*
X4426Y347D02*
X4426Y247D01*
D02*
X4626Y2247D02*
X4626Y447D01*
D02*
X4626Y447D02*
X4426Y447D01*
D02*
X4426Y447D02*
X4426Y2247D01*
D02*
X4426Y2247D02*
X4626Y2247D01*
D02*
X2626Y247D02*
X1826Y247D01*
D02*
X1826Y247D02*
X1826Y347D01*
D02*
X1826Y347D02*
X2626Y347D01*
D02*
X2626Y347D02*
X2626Y247D01*
D02*
X3526Y247D02*
X2726Y247D01*
D02*
X2726Y247D02*
X2726Y347D01*
D02*
X2726Y347D02*
X3526Y347D01*
D02*
X3526Y347D02*
X3526Y247D01*
D02*
X4226Y2147D02*
X3426Y2147D01*
D02*
X3426Y2147D02*
X3426Y2247D01*
D02*
X3426Y2247D02*
X4226Y2247D01*
D02*
X4226Y2247D02*
X4226Y2147D01*
D02*
X3326Y2147D02*
X2526Y2147D01*
D02*
X2526Y2147D02*
X2526Y2247D01*
D02*
X2526Y2247D02*
X3326Y2247D01*
D02*
X3326Y2247D02*
X3326Y2147D01*
D02*
X2466Y2147D02*
X1466Y2147D01*
D02*
X1466Y2147D02*
X1466Y2247D01*
D02*
X2466Y2247D02*
X2466Y2147D01*
G54D11*
X0Y2559D02*
X5432Y2559D01*
X0Y2558D02*
X5432Y2558D01*
X0Y2557D02*
X5432Y2557D01*
X0Y2556D02*
X5432Y2556D01*
X0Y2555D02*
X5432Y2555D01*
X0Y2554D02*
X5432Y2554D01*
X0Y2553D02*
X5432Y2553D01*
X0Y2552D02*
X5432Y2552D01*
X0Y2551D02*
X7Y2551D01*
X5425Y2551D02*
X5432Y2551D01*
X0Y2550D02*
X7Y2550D01*
X5425Y2550D02*
X5432Y2550D01*
X0Y2549D02*
X7Y2549D01*
X5425Y2549D02*
X5432Y2549D01*
X0Y2548D02*
X7Y2548D01*
X5425Y2548D02*
X5432Y2548D01*
X0Y2547D02*
X7Y2547D01*
X5425Y2547D02*
X5432Y2547D01*
X0Y2546D02*
X7Y2546D01*
X5425Y2546D02*
X5432Y2546D01*
X0Y2545D02*
X7Y2545D01*
X5425Y2545D02*
X5432Y2545D01*
X0Y2544D02*
X7Y2544D01*
X5425Y2544D02*
X5432Y2544D01*
X0Y2543D02*
X7Y2543D01*
X5425Y2543D02*
X5432Y2543D01*
X0Y2542D02*
X7Y2542D01*
X5425Y2542D02*
X5432Y2542D01*
X0Y2541D02*
X7Y2541D01*
X5425Y2541D02*
X5432Y2541D01*
X0Y2540D02*
X7Y2540D01*
X5425Y2540D02*
X5432Y2540D01*
X0Y2539D02*
X7Y2539D01*
X5425Y2539D02*
X5432Y2539D01*
X0Y2538D02*
X7Y2538D01*
X5425Y2538D02*
X5432Y2538D01*
X0Y2537D02*
X7Y2537D01*
X5425Y2537D02*
X5432Y2537D01*
X0Y2536D02*
X7Y2536D01*
X5425Y2536D02*
X5432Y2536D01*
X0Y2535D02*
X7Y2535D01*
X5425Y2535D02*
X5432Y2535D01*
X0Y2534D02*
X7Y2534D01*
X5425Y2534D02*
X5432Y2534D01*
X0Y2533D02*
X7Y2533D01*
X5425Y2533D02*
X5432Y2533D01*
X0Y2532D02*
X7Y2532D01*
X5425Y2532D02*
X5432Y2532D01*
X0Y2531D02*
X7Y2531D01*
X5425Y2531D02*
X5432Y2531D01*
X0Y2530D02*
X7Y2530D01*
X5425Y2530D02*
X5432Y2530D01*
X0Y2529D02*
X7Y2529D01*
X5425Y2529D02*
X5432Y2529D01*
X0Y2528D02*
X7Y2528D01*
X5425Y2528D02*
X5432Y2528D01*
X0Y2527D02*
X7Y2527D01*
X5425Y2527D02*
X5432Y2527D01*
X0Y2526D02*
X7Y2526D01*
X5425Y2526D02*
X5432Y2526D01*
X0Y2525D02*
X7Y2525D01*
X5425Y2525D02*
X5432Y2525D01*
X0Y2524D02*
X7Y2524D01*
X5425Y2524D02*
X5432Y2524D01*
X0Y2523D02*
X7Y2523D01*
X5425Y2523D02*
X5432Y2523D01*
X0Y2522D02*
X7Y2522D01*
X5425Y2522D02*
X5432Y2522D01*
X0Y2521D02*
X7Y2521D01*
X5425Y2521D02*
X5432Y2521D01*
X0Y2520D02*
X7Y2520D01*
X5425Y2520D02*
X5432Y2520D01*
X0Y2519D02*
X7Y2519D01*
X5425Y2519D02*
X5432Y2519D01*
X0Y2518D02*
X7Y2518D01*
X5425Y2518D02*
X5432Y2518D01*
X0Y2517D02*
X7Y2517D01*
X5425Y2517D02*
X5432Y2517D01*
X0Y2516D02*
X7Y2516D01*
X5425Y2516D02*
X5432Y2516D01*
X0Y2515D02*
X7Y2515D01*
X5425Y2515D02*
X5432Y2515D01*
X0Y2514D02*
X7Y2514D01*
X5425Y2514D02*
X5432Y2514D01*
X0Y2513D02*
X7Y2513D01*
X5425Y2513D02*
X5432Y2513D01*
X0Y2512D02*
X7Y2512D01*
X5425Y2512D02*
X5432Y2512D01*
X0Y2511D02*
X7Y2511D01*
X5425Y2511D02*
X5432Y2511D01*
X0Y2510D02*
X7Y2510D01*
X5425Y2510D02*
X5432Y2510D01*
X0Y2509D02*
X7Y2509D01*
X5425Y2509D02*
X5432Y2509D01*
X0Y2508D02*
X7Y2508D01*
X5425Y2508D02*
X5432Y2508D01*
X0Y2507D02*
X7Y2507D01*
X5425Y2507D02*
X5432Y2507D01*
X0Y2506D02*
X7Y2506D01*
X5425Y2506D02*
X5432Y2506D01*
X0Y2505D02*
X7Y2505D01*
X5425Y2505D02*
X5432Y2505D01*
X0Y2504D02*
X7Y2504D01*
X5425Y2504D02*
X5432Y2504D01*
X0Y2503D02*
X7Y2503D01*
X5425Y2503D02*
X5432Y2503D01*
X0Y2502D02*
X7Y2502D01*
X5425Y2502D02*
X5432Y2502D01*
X0Y2501D02*
X7Y2501D01*
X5425Y2501D02*
X5432Y2501D01*
X0Y2500D02*
X7Y2500D01*
X5425Y2500D02*
X5432Y2500D01*
X0Y2499D02*
X7Y2499D01*
X5425Y2499D02*
X5432Y2499D01*
X0Y2498D02*
X7Y2498D01*
X5425Y2498D02*
X5432Y2498D01*
X0Y2497D02*
X7Y2497D01*
X5425Y2497D02*
X5432Y2497D01*
X0Y2496D02*
X7Y2496D01*
X5425Y2496D02*
X5432Y2496D01*
X0Y2495D02*
X7Y2495D01*
X5425Y2495D02*
X5432Y2495D01*
X0Y2494D02*
X7Y2494D01*
X5425Y2494D02*
X5432Y2494D01*
X0Y2493D02*
X7Y2493D01*
X5425Y2493D02*
X5432Y2493D01*
X0Y2492D02*
X7Y2492D01*
X5425Y2492D02*
X5432Y2492D01*
X0Y2491D02*
X7Y2491D01*
X5425Y2491D02*
X5432Y2491D01*
X0Y2490D02*
X7Y2490D01*
X5425Y2490D02*
X5432Y2490D01*
X0Y2489D02*
X7Y2489D01*
X5425Y2489D02*
X5432Y2489D01*
X0Y2488D02*
X7Y2488D01*
X5425Y2488D02*
X5432Y2488D01*
X0Y2487D02*
X7Y2487D01*
X5425Y2487D02*
X5432Y2487D01*
X0Y2486D02*
X7Y2486D01*
X5425Y2486D02*
X5432Y2486D01*
X0Y2485D02*
X7Y2485D01*
X5425Y2485D02*
X5432Y2485D01*
X0Y2484D02*
X7Y2484D01*
X5425Y2484D02*
X5432Y2484D01*
X0Y2483D02*
X7Y2483D01*
X5425Y2483D02*
X5432Y2483D01*
X0Y2482D02*
X7Y2482D01*
X5425Y2482D02*
X5432Y2482D01*
X0Y2481D02*
X7Y2481D01*
X5425Y2481D02*
X5432Y2481D01*
X0Y2480D02*
X7Y2480D01*
X5425Y2480D02*
X5432Y2480D01*
X0Y2479D02*
X7Y2479D01*
X5425Y2479D02*
X5432Y2479D01*
X0Y2478D02*
X7Y2478D01*
X5425Y2478D02*
X5432Y2478D01*
X0Y2477D02*
X7Y2477D01*
X5425Y2477D02*
X5432Y2477D01*
X0Y2476D02*
X7Y2476D01*
X5425Y2476D02*
X5432Y2476D01*
X0Y2475D02*
X7Y2475D01*
X5425Y2475D02*
X5432Y2475D01*
X0Y2474D02*
X7Y2474D01*
X5425Y2474D02*
X5432Y2474D01*
X0Y2473D02*
X7Y2473D01*
X5425Y2473D02*
X5432Y2473D01*
X0Y2472D02*
X7Y2472D01*
X5425Y2472D02*
X5432Y2472D01*
X0Y2471D02*
X7Y2471D01*
X5425Y2471D02*
X5432Y2471D01*
X0Y2470D02*
X7Y2470D01*
X5425Y2470D02*
X5432Y2470D01*
X0Y2469D02*
X7Y2469D01*
X5425Y2469D02*
X5432Y2469D01*
X0Y2468D02*
X7Y2468D01*
X5425Y2468D02*
X5432Y2468D01*
X0Y2467D02*
X7Y2467D01*
X5425Y2467D02*
X5432Y2467D01*
X0Y2466D02*
X7Y2466D01*
X5425Y2466D02*
X5432Y2466D01*
X0Y2465D02*
X7Y2465D01*
X5425Y2465D02*
X5432Y2465D01*
X0Y2464D02*
X7Y2464D01*
X5425Y2464D02*
X5432Y2464D01*
X0Y2463D02*
X7Y2463D01*
X5425Y2463D02*
X5432Y2463D01*
X0Y2462D02*
X7Y2462D01*
X5425Y2462D02*
X5432Y2462D01*
X0Y2461D02*
X7Y2461D01*
X5425Y2461D02*
X5432Y2461D01*
X0Y2460D02*
X7Y2460D01*
X5425Y2460D02*
X5432Y2460D01*
X0Y2459D02*
X7Y2459D01*
X5425Y2459D02*
X5432Y2459D01*
X0Y2458D02*
X7Y2458D01*
X5425Y2458D02*
X5432Y2458D01*
X0Y2457D02*
X7Y2457D01*
X5425Y2457D02*
X5432Y2457D01*
X0Y2456D02*
X7Y2456D01*
X5425Y2456D02*
X5432Y2456D01*
X0Y2455D02*
X7Y2455D01*
X5425Y2455D02*
X5432Y2455D01*
X0Y2454D02*
X7Y2454D01*
X5425Y2454D02*
X5432Y2454D01*
X0Y2453D02*
X7Y2453D01*
X5425Y2453D02*
X5432Y2453D01*
X0Y2452D02*
X7Y2452D01*
X5425Y2452D02*
X5432Y2452D01*
X0Y2451D02*
X7Y2451D01*
X5425Y2451D02*
X5432Y2451D01*
X0Y2450D02*
X7Y2450D01*
X5425Y2450D02*
X5432Y2450D01*
X0Y2449D02*
X7Y2449D01*
X5425Y2449D02*
X5432Y2449D01*
X0Y2448D02*
X7Y2448D01*
X5425Y2448D02*
X5432Y2448D01*
X0Y2447D02*
X7Y2447D01*
X5425Y2447D02*
X5432Y2447D01*
X0Y2446D02*
X7Y2446D01*
X5425Y2446D02*
X5432Y2446D01*
X0Y2445D02*
X7Y2445D01*
X5425Y2445D02*
X5432Y2445D01*
X0Y2444D02*
X7Y2444D01*
X5425Y2444D02*
X5432Y2444D01*
X0Y2443D02*
X7Y2443D01*
X5425Y2443D02*
X5432Y2443D01*
X0Y2442D02*
X7Y2442D01*
X5425Y2442D02*
X5432Y2442D01*
X0Y2441D02*
X7Y2441D01*
X5425Y2441D02*
X5432Y2441D01*
X0Y2440D02*
X7Y2440D01*
X5425Y2440D02*
X5432Y2440D01*
X0Y2439D02*
X7Y2439D01*
X5425Y2439D02*
X5432Y2439D01*
X0Y2438D02*
X7Y2438D01*
X5425Y2438D02*
X5432Y2438D01*
X0Y2437D02*
X7Y2437D01*
X5425Y2437D02*
X5432Y2437D01*
X0Y2436D02*
X7Y2436D01*
X5425Y2436D02*
X5432Y2436D01*
X0Y2435D02*
X7Y2435D01*
X5425Y2435D02*
X5432Y2435D01*
X0Y2434D02*
X7Y2434D01*
X5425Y2434D02*
X5432Y2434D01*
X0Y2433D02*
X7Y2433D01*
X5425Y2433D02*
X5432Y2433D01*
X0Y2432D02*
X7Y2432D01*
X5425Y2432D02*
X5432Y2432D01*
X0Y2431D02*
X7Y2431D01*
X5425Y2431D02*
X5432Y2431D01*
X0Y2430D02*
X7Y2430D01*
X5425Y2430D02*
X5432Y2430D01*
X0Y2429D02*
X7Y2429D01*
X5425Y2429D02*
X5432Y2429D01*
X0Y2428D02*
X7Y2428D01*
X5425Y2428D02*
X5432Y2428D01*
X0Y2427D02*
X7Y2427D01*
X5425Y2427D02*
X5432Y2427D01*
X0Y2426D02*
X7Y2426D01*
X5425Y2426D02*
X5432Y2426D01*
X0Y2425D02*
X7Y2425D01*
X5425Y2425D02*
X5432Y2425D01*
X0Y2424D02*
X7Y2424D01*
X5425Y2424D02*
X5432Y2424D01*
X0Y2423D02*
X7Y2423D01*
X5425Y2423D02*
X5432Y2423D01*
X0Y2422D02*
X7Y2422D01*
X5425Y2422D02*
X5432Y2422D01*
X0Y2421D02*
X7Y2421D01*
X5425Y2421D02*
X5432Y2421D01*
X0Y2420D02*
X7Y2420D01*
X5425Y2420D02*
X5432Y2420D01*
X0Y2419D02*
X7Y2419D01*
X5425Y2419D02*
X5432Y2419D01*
X0Y2418D02*
X7Y2418D01*
X5425Y2418D02*
X5432Y2418D01*
X0Y2417D02*
X7Y2417D01*
X5425Y2417D02*
X5432Y2417D01*
X0Y2416D02*
X7Y2416D01*
X5425Y2416D02*
X5432Y2416D01*
X0Y2415D02*
X7Y2415D01*
X5425Y2415D02*
X5432Y2415D01*
X0Y2414D02*
X7Y2414D01*
X5425Y2414D02*
X5432Y2414D01*
X0Y2413D02*
X7Y2413D01*
X5425Y2413D02*
X5432Y2413D01*
X0Y2412D02*
X7Y2412D01*
X5425Y2412D02*
X5432Y2412D01*
X0Y2411D02*
X7Y2411D01*
X5425Y2411D02*
X5432Y2411D01*
X0Y2410D02*
X7Y2410D01*
X5425Y2410D02*
X5432Y2410D01*
X0Y2409D02*
X7Y2409D01*
X5425Y2409D02*
X5432Y2409D01*
X0Y2408D02*
X7Y2408D01*
X5425Y2408D02*
X5432Y2408D01*
X0Y2407D02*
X7Y2407D01*
X5425Y2407D02*
X5432Y2407D01*
X0Y2406D02*
X7Y2406D01*
X5425Y2406D02*
X5432Y2406D01*
X0Y2405D02*
X7Y2405D01*
X5425Y2405D02*
X5432Y2405D01*
X0Y2404D02*
X7Y2404D01*
X5425Y2404D02*
X5432Y2404D01*
X0Y2403D02*
X7Y2403D01*
X5425Y2403D02*
X5432Y2403D01*
X0Y2402D02*
X7Y2402D01*
X5425Y2402D02*
X5432Y2402D01*
X0Y2401D02*
X7Y2401D01*
X5425Y2401D02*
X5432Y2401D01*
X0Y2400D02*
X7Y2400D01*
X5425Y2400D02*
X5432Y2400D01*
X0Y2399D02*
X7Y2399D01*
X5425Y2399D02*
X5432Y2399D01*
X0Y2398D02*
X7Y2398D01*
X5425Y2398D02*
X5432Y2398D01*
X0Y2397D02*
X7Y2397D01*
X5425Y2397D02*
X5432Y2397D01*
X0Y2396D02*
X7Y2396D01*
X5425Y2396D02*
X5432Y2396D01*
X0Y2395D02*
X7Y2395D01*
X5425Y2395D02*
X5432Y2395D01*
X0Y2394D02*
X7Y2394D01*
X5425Y2394D02*
X5432Y2394D01*
X0Y2393D02*
X7Y2393D01*
X5425Y2393D02*
X5432Y2393D01*
X0Y2392D02*
X7Y2392D01*
X5425Y2392D02*
X5432Y2392D01*
X0Y2391D02*
X7Y2391D01*
X5425Y2391D02*
X5432Y2391D01*
X0Y2390D02*
X7Y2390D01*
X5425Y2390D02*
X5432Y2390D01*
X0Y2389D02*
X7Y2389D01*
X5425Y2389D02*
X5432Y2389D01*
X0Y2388D02*
X7Y2388D01*
X5425Y2388D02*
X5432Y2388D01*
X0Y2387D02*
X7Y2387D01*
X5425Y2387D02*
X5432Y2387D01*
X0Y2386D02*
X7Y2386D01*
X5425Y2386D02*
X5432Y2386D01*
X0Y2385D02*
X7Y2385D01*
X5425Y2385D02*
X5432Y2385D01*
X0Y2384D02*
X7Y2384D01*
X5425Y2384D02*
X5432Y2384D01*
X0Y2383D02*
X7Y2383D01*
X5425Y2383D02*
X5432Y2383D01*
X0Y2382D02*
X7Y2382D01*
X5425Y2382D02*
X5432Y2382D01*
X0Y2381D02*
X7Y2381D01*
X5425Y2381D02*
X5432Y2381D01*
X0Y2380D02*
X7Y2380D01*
X5425Y2380D02*
X5432Y2380D01*
X0Y2379D02*
X7Y2379D01*
X5425Y2379D02*
X5432Y2379D01*
X0Y2378D02*
X7Y2378D01*
X5425Y2378D02*
X5432Y2378D01*
X0Y2377D02*
X7Y2377D01*
X5425Y2377D02*
X5432Y2377D01*
X0Y2376D02*
X7Y2376D01*
X5425Y2376D02*
X5432Y2376D01*
X0Y2375D02*
X7Y2375D01*
X5425Y2375D02*
X5432Y2375D01*
X0Y2374D02*
X7Y2374D01*
X5425Y2374D02*
X5432Y2374D01*
X0Y2373D02*
X7Y2373D01*
X5425Y2373D02*
X5432Y2373D01*
X0Y2372D02*
X7Y2372D01*
X5425Y2372D02*
X5432Y2372D01*
X0Y2371D02*
X7Y2371D01*
X5425Y2371D02*
X5432Y2371D01*
X0Y2370D02*
X7Y2370D01*
X5425Y2370D02*
X5432Y2370D01*
X0Y2369D02*
X7Y2369D01*
X5425Y2369D02*
X5432Y2369D01*
X0Y2368D02*
X7Y2368D01*
X5425Y2368D02*
X5432Y2368D01*
X0Y2367D02*
X7Y2367D01*
X5425Y2367D02*
X5432Y2367D01*
X0Y2366D02*
X7Y2366D01*
X5425Y2366D02*
X5432Y2366D01*
X0Y2365D02*
X7Y2365D01*
X5425Y2365D02*
X5432Y2365D01*
X0Y2364D02*
X7Y2364D01*
X5425Y2364D02*
X5432Y2364D01*
X0Y2363D02*
X7Y2363D01*
X5425Y2363D02*
X5432Y2363D01*
X0Y2362D02*
X7Y2362D01*
X5425Y2362D02*
X5432Y2362D01*
X0Y2361D02*
X7Y2361D01*
X5425Y2361D02*
X5432Y2361D01*
X0Y2360D02*
X7Y2360D01*
X5425Y2360D02*
X5432Y2360D01*
X0Y2359D02*
X7Y2359D01*
X5425Y2359D02*
X5432Y2359D01*
X0Y2358D02*
X7Y2358D01*
X5425Y2358D02*
X5432Y2358D01*
X0Y2357D02*
X7Y2357D01*
X5425Y2357D02*
X5432Y2357D01*
X0Y2356D02*
X7Y2356D01*
X5425Y2356D02*
X5432Y2356D01*
X0Y2355D02*
X7Y2355D01*
X5425Y2355D02*
X5432Y2355D01*
X0Y2354D02*
X7Y2354D01*
X5425Y2354D02*
X5432Y2354D01*
X0Y2353D02*
X7Y2353D01*
X5425Y2353D02*
X5432Y2353D01*
X0Y2352D02*
X7Y2352D01*
X5425Y2352D02*
X5432Y2352D01*
X0Y2351D02*
X7Y2351D01*
X5425Y2351D02*
X5432Y2351D01*
X0Y2350D02*
X7Y2350D01*
X5425Y2350D02*
X5432Y2350D01*
X0Y2349D02*
X7Y2349D01*
X5425Y2349D02*
X5432Y2349D01*
X0Y2348D02*
X7Y2348D01*
X5425Y2348D02*
X5432Y2348D01*
X0Y2347D02*
X7Y2347D01*
X5425Y2347D02*
X5432Y2347D01*
X0Y2346D02*
X7Y2346D01*
X5425Y2346D02*
X5432Y2346D01*
X0Y2345D02*
X7Y2345D01*
X5425Y2345D02*
X5432Y2345D01*
X0Y2344D02*
X7Y2344D01*
X5425Y2344D02*
X5432Y2344D01*
X0Y2343D02*
X7Y2343D01*
X5425Y2343D02*
X5432Y2343D01*
X0Y2342D02*
X7Y2342D01*
X5425Y2342D02*
X5432Y2342D01*
X0Y2341D02*
X7Y2341D01*
X5425Y2341D02*
X5432Y2341D01*
X0Y2340D02*
X7Y2340D01*
X5425Y2340D02*
X5432Y2340D01*
X0Y2339D02*
X7Y2339D01*
X5425Y2339D02*
X5432Y2339D01*
X0Y2338D02*
X7Y2338D01*
X5425Y2338D02*
X5432Y2338D01*
X0Y2337D02*
X7Y2337D01*
X5425Y2337D02*
X5432Y2337D01*
X0Y2336D02*
X7Y2336D01*
X5425Y2336D02*
X5432Y2336D01*
X0Y2335D02*
X7Y2335D01*
X5425Y2335D02*
X5432Y2335D01*
X0Y2334D02*
X7Y2334D01*
X5425Y2334D02*
X5432Y2334D01*
X0Y2333D02*
X7Y2333D01*
X5425Y2333D02*
X5432Y2333D01*
X0Y2332D02*
X7Y2332D01*
X5425Y2332D02*
X5432Y2332D01*
X0Y2331D02*
X7Y2331D01*
X5425Y2331D02*
X5432Y2331D01*
X0Y2330D02*
X7Y2330D01*
X5425Y2330D02*
X5432Y2330D01*
X0Y2329D02*
X7Y2329D01*
X5425Y2329D02*
X5432Y2329D01*
X0Y2328D02*
X7Y2328D01*
X5425Y2328D02*
X5432Y2328D01*
X0Y2327D02*
X7Y2327D01*
X5425Y2327D02*
X5432Y2327D01*
X0Y2326D02*
X7Y2326D01*
X5425Y2326D02*
X5432Y2326D01*
X0Y2325D02*
X7Y2325D01*
X5425Y2325D02*
X5432Y2325D01*
X0Y2324D02*
X7Y2324D01*
X5425Y2324D02*
X5432Y2324D01*
X0Y2323D02*
X7Y2323D01*
X5425Y2323D02*
X5432Y2323D01*
X0Y2322D02*
X7Y2322D01*
X5425Y2322D02*
X5432Y2322D01*
X0Y2321D02*
X7Y2321D01*
X5425Y2321D02*
X5432Y2321D01*
X0Y2320D02*
X7Y2320D01*
X5425Y2320D02*
X5432Y2320D01*
X0Y2319D02*
X7Y2319D01*
X5425Y2319D02*
X5432Y2319D01*
X0Y2318D02*
X7Y2318D01*
X5425Y2318D02*
X5432Y2318D01*
X0Y2317D02*
X7Y2317D01*
X5425Y2317D02*
X5432Y2317D01*
X0Y2316D02*
X7Y2316D01*
X5425Y2316D02*
X5432Y2316D01*
X0Y2315D02*
X7Y2315D01*
X5425Y2315D02*
X5432Y2315D01*
X0Y2314D02*
X7Y2314D01*
X5425Y2314D02*
X5432Y2314D01*
X0Y2313D02*
X7Y2313D01*
X5425Y2313D02*
X5432Y2313D01*
X0Y2312D02*
X7Y2312D01*
X5425Y2312D02*
X5432Y2312D01*
X0Y2311D02*
X7Y2311D01*
X5425Y2311D02*
X5432Y2311D01*
X0Y2310D02*
X7Y2310D01*
X5425Y2310D02*
X5432Y2310D01*
X0Y2309D02*
X7Y2309D01*
X5425Y2309D02*
X5432Y2309D01*
X0Y2308D02*
X7Y2308D01*
X5425Y2308D02*
X5432Y2308D01*
X0Y2307D02*
X7Y2307D01*
X5425Y2307D02*
X5432Y2307D01*
X0Y2306D02*
X7Y2306D01*
X5425Y2306D02*
X5432Y2306D01*
X0Y2305D02*
X7Y2305D01*
X5425Y2305D02*
X5432Y2305D01*
X0Y2304D02*
X7Y2304D01*
X5425Y2304D02*
X5432Y2304D01*
X0Y2303D02*
X7Y2303D01*
X5425Y2303D02*
X5432Y2303D01*
X0Y2302D02*
X7Y2302D01*
X5425Y2302D02*
X5432Y2302D01*
X0Y2301D02*
X7Y2301D01*
X5425Y2301D02*
X5432Y2301D01*
X0Y2300D02*
X7Y2300D01*
X5425Y2300D02*
X5432Y2300D01*
X0Y2299D02*
X7Y2299D01*
X5425Y2299D02*
X5432Y2299D01*
X0Y2298D02*
X7Y2298D01*
X5425Y2298D02*
X5432Y2298D01*
X0Y2297D02*
X7Y2297D01*
X5425Y2297D02*
X5432Y2297D01*
X0Y2296D02*
X7Y2296D01*
X5425Y2296D02*
X5432Y2296D01*
X0Y2295D02*
X7Y2295D01*
X5425Y2295D02*
X5432Y2295D01*
X0Y2294D02*
X7Y2294D01*
X5425Y2294D02*
X5432Y2294D01*
X0Y2293D02*
X7Y2293D01*
X5425Y2293D02*
X5432Y2293D01*
X0Y2292D02*
X7Y2292D01*
X5425Y2292D02*
X5432Y2292D01*
X0Y2291D02*
X7Y2291D01*
X5425Y2291D02*
X5432Y2291D01*
X0Y2290D02*
X7Y2290D01*
X5425Y2290D02*
X5432Y2290D01*
X0Y2289D02*
X7Y2289D01*
X5425Y2289D02*
X5432Y2289D01*
X0Y2288D02*
X7Y2288D01*
X5425Y2288D02*
X5432Y2288D01*
X0Y2287D02*
X7Y2287D01*
X5425Y2287D02*
X5432Y2287D01*
X0Y2286D02*
X7Y2286D01*
X1867Y2286D02*
X1886Y2286D01*
X1905Y2286D02*
X1916Y2286D01*
X1929Y2286D02*
X1932Y2286D01*
X2845Y2286D02*
X2849Y2286D01*
X2868Y2286D02*
X2879Y2286D01*
X2893Y2286D02*
X2895Y2286D01*
X5425Y2286D02*
X5432Y2286D01*
X0Y2285D02*
X7Y2285D01*
X1867Y2285D02*
X1886Y2285D01*
X1905Y2285D02*
X1916Y2285D01*
X1929Y2285D02*
X1932Y2285D01*
X2845Y2285D02*
X2850Y2285D01*
X2868Y2285D02*
X2880Y2285D01*
X2892Y2285D02*
X2895Y2285D01*
X5425Y2285D02*
X5432Y2285D01*
X0Y2284D02*
X7Y2284D01*
X1867Y2284D02*
X1886Y2284D01*
X1905Y2284D02*
X1916Y2284D01*
X1929Y2284D02*
X1932Y2284D01*
X2845Y2284D02*
X2850Y2284D01*
X2868Y2284D02*
X2880Y2284D01*
X2892Y2284D02*
X2895Y2284D01*
X5425Y2284D02*
X5432Y2284D01*
X0Y2283D02*
X7Y2283D01*
X1867Y2283D02*
X1886Y2283D01*
X1905Y2283D02*
X1915Y2283D01*
X1929Y2283D02*
X1932Y2283D01*
X2845Y2283D02*
X2850Y2283D01*
X2868Y2283D02*
X2879Y2283D01*
X2892Y2283D02*
X2895Y2283D01*
X3799Y2283D02*
X3814Y2283D01*
X3837Y2283D02*
X3847Y2283D01*
X3861Y2283D02*
X3863Y2283D01*
X5425Y2283D02*
X5432Y2283D01*
X0Y2282D02*
X7Y2282D01*
X1867Y2282D02*
X1870Y2282D01*
X1884Y2282D02*
X1886Y2282D01*
X1905Y2282D02*
X1908Y2282D01*
X1929Y2282D02*
X1932Y2282D01*
X2847Y2282D02*
X2850Y2282D01*
X2868Y2282D02*
X2871Y2282D01*
X2892Y2282D02*
X2895Y2282D01*
X3798Y2282D02*
X3814Y2282D01*
X3837Y2282D02*
X3848Y2282D01*
X3860Y2282D02*
X3863Y2282D01*
X5425Y2282D02*
X5432Y2282D01*
X0Y2281D02*
X7Y2281D01*
X1867Y2281D02*
X1870Y2281D01*
X1885Y2281D02*
X1885Y2281D01*
X1905Y2281D02*
X1908Y2281D01*
X1929Y2281D02*
X1932Y2281D01*
X2847Y2281D02*
X2850Y2281D01*
X2868Y2281D02*
X2871Y2281D01*
X2892Y2281D02*
X2895Y2281D01*
X3798Y2281D02*
X3814Y2281D01*
X3837Y2281D02*
X3848Y2281D01*
X3860Y2281D02*
X3864Y2281D01*
X5425Y2281D02*
X5432Y2281D01*
X0Y2280D02*
X7Y2280D01*
X1867Y2280D02*
X1870Y2280D01*
X1905Y2280D02*
X1908Y2280D01*
X1929Y2280D02*
X1932Y2280D01*
X2847Y2280D02*
X2850Y2280D01*
X2868Y2280D02*
X2871Y2280D01*
X2892Y2280D02*
X2895Y2280D01*
X3799Y2280D02*
X3814Y2280D01*
X3837Y2280D02*
X3847Y2280D01*
X3860Y2280D02*
X3864Y2280D01*
X5425Y2280D02*
X5432Y2280D01*
X0Y2279D02*
X7Y2279D01*
X1867Y2279D02*
X1870Y2279D01*
X1905Y2279D02*
X1908Y2279D01*
X1929Y2279D02*
X1932Y2279D01*
X2847Y2279D02*
X2850Y2279D01*
X2868Y2279D02*
X2871Y2279D01*
X2892Y2279D02*
X2895Y2279D01*
X3811Y2279D02*
X3814Y2279D01*
X3837Y2279D02*
X3840Y2279D01*
X3860Y2279D02*
X3864Y2279D01*
X5425Y2279D02*
X5432Y2279D01*
X0Y2278D02*
X7Y2278D01*
X1867Y2278D02*
X1870Y2278D01*
X1905Y2278D02*
X1908Y2278D01*
X1929Y2278D02*
X1932Y2278D01*
X2847Y2278D02*
X2850Y2278D01*
X2868Y2278D02*
X2871Y2278D01*
X2892Y2278D02*
X2895Y2278D01*
X3811Y2278D02*
X3814Y2278D01*
X3837Y2278D02*
X3840Y2278D01*
X3860Y2278D02*
X3864Y2278D01*
X5425Y2278D02*
X5432Y2278D01*
X0Y2277D02*
X7Y2277D01*
X1867Y2277D02*
X1870Y2277D01*
X1905Y2277D02*
X1908Y2277D01*
X1929Y2277D02*
X1932Y2277D01*
X2847Y2277D02*
X2850Y2277D01*
X2868Y2277D02*
X2871Y2277D01*
X2892Y2277D02*
X2895Y2277D01*
X3811Y2277D02*
X3814Y2277D01*
X3837Y2277D02*
X3840Y2277D01*
X3860Y2277D02*
X3864Y2277D01*
X5425Y2277D02*
X5432Y2277D01*
X0Y2276D02*
X7Y2276D01*
X1867Y2276D02*
X1870Y2276D01*
X1905Y2276D02*
X1908Y2276D01*
X1929Y2276D02*
X1932Y2276D01*
X2847Y2276D02*
X2850Y2276D01*
X2868Y2276D02*
X2871Y2276D01*
X2892Y2276D02*
X2895Y2276D01*
X3811Y2276D02*
X3814Y2276D01*
X3837Y2276D02*
X3840Y2276D01*
X3860Y2276D02*
X3864Y2276D01*
X5425Y2276D02*
X5432Y2276D01*
X0Y2275D02*
X7Y2275D01*
X1867Y2275D02*
X1870Y2275D01*
X1905Y2275D02*
X1908Y2275D01*
X1929Y2275D02*
X1932Y2275D01*
X2847Y2275D02*
X2850Y2275D01*
X2868Y2275D02*
X2871Y2275D01*
X2892Y2275D02*
X2895Y2275D01*
X3811Y2275D02*
X3814Y2275D01*
X3837Y2275D02*
X3840Y2275D01*
X3860Y2275D02*
X3864Y2275D01*
X5425Y2275D02*
X5432Y2275D01*
X0Y2274D02*
X7Y2274D01*
X1867Y2274D02*
X1871Y2274D01*
X1905Y2274D02*
X1908Y2274D01*
X1929Y2274D02*
X1932Y2274D01*
X2847Y2274D02*
X2850Y2274D01*
X2868Y2274D02*
X2871Y2274D01*
X2892Y2274D02*
X2895Y2274D01*
X3811Y2274D02*
X3814Y2274D01*
X3837Y2274D02*
X3840Y2274D01*
X3860Y2274D02*
X3864Y2274D01*
X5425Y2274D02*
X5432Y2274D01*
X0Y2273D02*
X7Y2273D01*
X1867Y2273D02*
X1872Y2273D01*
X1905Y2273D02*
X1908Y2273D01*
X1929Y2273D02*
X1932Y2273D01*
X2847Y2273D02*
X2850Y2273D01*
X2868Y2273D02*
X2871Y2273D01*
X2892Y2273D02*
X2895Y2273D01*
X3811Y2273D02*
X3814Y2273D01*
X3837Y2273D02*
X3840Y2273D01*
X3860Y2273D02*
X3864Y2273D01*
X5425Y2273D02*
X5432Y2273D01*
X0Y2272D02*
X7Y2272D01*
X1868Y2272D02*
X1874Y2272D01*
X1905Y2272D02*
X1908Y2272D01*
X1929Y2272D02*
X1932Y2272D01*
X2847Y2272D02*
X2850Y2272D01*
X2868Y2272D02*
X2871Y2272D01*
X2892Y2272D02*
X2895Y2272D01*
X3811Y2272D02*
X3814Y2272D01*
X3837Y2272D02*
X3840Y2272D01*
X3860Y2272D02*
X3864Y2272D01*
X5425Y2272D02*
X5432Y2272D01*
X0Y2271D02*
X7Y2271D01*
X1869Y2271D02*
X1875Y2271D01*
X1905Y2271D02*
X1908Y2271D01*
X1929Y2271D02*
X1932Y2271D01*
X2847Y2271D02*
X2850Y2271D01*
X2868Y2271D02*
X2871Y2271D01*
X2892Y2271D02*
X2895Y2271D01*
X3811Y2271D02*
X3814Y2271D01*
X3837Y2271D02*
X3840Y2271D01*
X3860Y2271D02*
X3864Y2271D01*
X5425Y2271D02*
X5432Y2271D01*
X0Y2270D02*
X7Y2270D01*
X1870Y2270D02*
X1876Y2270D01*
X1905Y2270D02*
X1908Y2270D01*
X1929Y2270D02*
X1932Y2270D01*
X2847Y2270D02*
X2850Y2270D01*
X2868Y2270D02*
X2871Y2270D01*
X2892Y2270D02*
X2895Y2270D01*
X3811Y2270D02*
X3814Y2270D01*
X3837Y2270D02*
X3840Y2270D01*
X3860Y2270D02*
X3864Y2270D01*
X5425Y2270D02*
X5432Y2270D01*
X0Y2269D02*
X7Y2269D01*
X1872Y2269D02*
X1877Y2269D01*
X1898Y2269D02*
X1899Y2269D01*
X1905Y2269D02*
X1908Y2269D01*
X1929Y2269D02*
X1932Y2269D01*
X1942Y2269D02*
X1943Y2269D01*
X2832Y2269D02*
X2850Y2269D01*
X2868Y2269D02*
X2871Y2269D01*
X2892Y2269D02*
X2895Y2269D01*
X2906Y2269D02*
X2906Y2269D01*
X3800Y2269D02*
X3814Y2269D01*
X3837Y2269D02*
X3840Y2269D01*
X3860Y2269D02*
X3864Y2269D01*
X5425Y2269D02*
X5432Y2269D01*
X0Y2268D02*
X7Y2268D01*
X1873Y2268D02*
X1878Y2268D01*
X1897Y2268D02*
X1900Y2268D01*
X1905Y2268D02*
X1908Y2268D01*
X1929Y2268D02*
X1932Y2268D01*
X1941Y2268D02*
X1944Y2268D01*
X2830Y2268D02*
X2850Y2268D01*
X2860Y2268D02*
X2863Y2268D01*
X2868Y2268D02*
X2871Y2268D01*
X2892Y2268D02*
X2895Y2268D01*
X2905Y2268D02*
X2907Y2268D01*
X3799Y2268D02*
X3814Y2268D01*
X3837Y2268D02*
X3840Y2268D01*
X3860Y2268D02*
X3864Y2268D01*
X5425Y2268D02*
X5432Y2268D01*
X0Y2267D02*
X7Y2267D01*
X1874Y2267D02*
X1878Y2267D01*
X1897Y2267D02*
X1900Y2267D01*
X1905Y2267D02*
X1908Y2267D01*
X1929Y2267D02*
X1932Y2267D01*
X1941Y2267D02*
X1944Y2267D01*
X2830Y2267D02*
X2850Y2267D01*
X2860Y2267D02*
X2863Y2267D01*
X2868Y2267D02*
X2871Y2267D01*
X2892Y2267D02*
X2895Y2267D01*
X2904Y2267D02*
X2908Y2267D01*
X3799Y2267D02*
X3814Y2267D01*
X3837Y2267D02*
X3840Y2267D01*
X3860Y2267D02*
X3864Y2267D01*
X5425Y2267D02*
X5432Y2267D01*
X0Y2266D02*
X7Y2266D01*
X1875Y2266D02*
X1878Y2266D01*
X1897Y2266D02*
X1900Y2266D01*
X1905Y2266D02*
X1908Y2266D01*
X1929Y2266D02*
X1932Y2266D01*
X1941Y2266D02*
X1944Y2266D01*
X2830Y2266D02*
X2850Y2266D01*
X2860Y2266D02*
X2863Y2266D01*
X2868Y2266D02*
X2871Y2266D01*
X2892Y2266D02*
X2895Y2266D01*
X2904Y2266D02*
X2908Y2266D01*
X3798Y2266D02*
X3814Y2266D01*
X3830Y2266D02*
X3830Y2266D01*
X3837Y2266D02*
X3840Y2266D01*
X3860Y2266D02*
X3864Y2266D01*
X3874Y2266D02*
X3874Y2266D01*
X5425Y2266D02*
X5432Y2266D01*
X0Y2265D02*
X7Y2265D01*
X1875Y2265D02*
X1878Y2265D01*
X1897Y2265D02*
X1900Y2265D01*
X1905Y2265D02*
X1908Y2265D01*
X1929Y2265D02*
X1932Y2265D01*
X1941Y2265D02*
X1944Y2265D01*
X2830Y2265D02*
X2850Y2265D01*
X2860Y2265D02*
X2863Y2265D01*
X2868Y2265D02*
X2871Y2265D01*
X2892Y2265D02*
X2895Y2265D01*
X2904Y2265D02*
X2908Y2265D01*
X3798Y2265D02*
X3802Y2265D01*
X3829Y2265D02*
X3831Y2265D01*
X3837Y2265D02*
X3840Y2265D01*
X3860Y2265D02*
X3864Y2265D01*
X3873Y2265D02*
X3876Y2265D01*
X5425Y2265D02*
X5432Y2265D01*
X0Y2264D02*
X7Y2264D01*
X1875Y2264D02*
X1878Y2264D01*
X1897Y2264D02*
X1900Y2264D01*
X1905Y2264D02*
X1908Y2264D01*
X1929Y2264D02*
X1932Y2264D01*
X1941Y2264D02*
X1944Y2264D01*
X2830Y2264D02*
X2833Y2264D01*
X2847Y2264D02*
X2850Y2264D01*
X2860Y2264D02*
X2863Y2264D01*
X2868Y2264D02*
X2871Y2264D01*
X2892Y2264D02*
X2895Y2264D01*
X2904Y2264D02*
X2908Y2264D01*
X3798Y2264D02*
X3801Y2264D01*
X3828Y2264D02*
X3831Y2264D01*
X3837Y2264D02*
X3840Y2264D01*
X3860Y2264D02*
X3864Y2264D01*
X3873Y2264D02*
X3876Y2264D01*
X5425Y2264D02*
X5432Y2264D01*
X0Y2263D02*
X7Y2263D01*
X1875Y2263D02*
X1878Y2263D01*
X1897Y2263D02*
X1900Y2263D01*
X1905Y2263D02*
X1908Y2263D01*
X1929Y2263D02*
X1932Y2263D01*
X1941Y2263D02*
X1944Y2263D01*
X2830Y2263D02*
X2833Y2263D01*
X2847Y2263D02*
X2850Y2263D01*
X2860Y2263D02*
X2863Y2263D01*
X2868Y2263D02*
X2871Y2263D01*
X2892Y2263D02*
X2895Y2263D01*
X2904Y2263D02*
X2908Y2263D01*
X3798Y2263D02*
X3801Y2263D01*
X3828Y2263D02*
X3831Y2263D01*
X3837Y2263D02*
X3840Y2263D01*
X3860Y2263D02*
X3864Y2263D01*
X3873Y2263D02*
X3876Y2263D01*
X5425Y2263D02*
X5432Y2263D01*
X0Y2262D02*
X7Y2262D01*
X1875Y2262D02*
X1878Y2262D01*
X1897Y2262D02*
X1900Y2262D01*
X1905Y2262D02*
X1908Y2262D01*
X1929Y2262D02*
X1932Y2262D01*
X1941Y2262D02*
X1944Y2262D01*
X2830Y2262D02*
X2833Y2262D01*
X2847Y2262D02*
X2850Y2262D01*
X2860Y2262D02*
X2863Y2262D01*
X2868Y2262D02*
X2871Y2262D01*
X2892Y2262D02*
X2895Y2262D01*
X2904Y2262D02*
X2908Y2262D01*
X3798Y2262D02*
X3801Y2262D01*
X3828Y2262D02*
X3831Y2262D01*
X3837Y2262D02*
X3840Y2262D01*
X3860Y2262D02*
X3864Y2262D01*
X3873Y2262D02*
X3876Y2262D01*
X5425Y2262D02*
X5432Y2262D01*
X0Y2261D02*
X7Y2261D01*
X1875Y2261D02*
X1878Y2261D01*
X1897Y2261D02*
X1900Y2261D01*
X1905Y2261D02*
X1908Y2261D01*
X1929Y2261D02*
X1932Y2261D01*
X1941Y2261D02*
X1944Y2261D01*
X2830Y2261D02*
X2833Y2261D01*
X2847Y2261D02*
X2850Y2261D01*
X2860Y2261D02*
X2863Y2261D01*
X2868Y2261D02*
X2871Y2261D01*
X2892Y2261D02*
X2895Y2261D01*
X2904Y2261D02*
X2908Y2261D01*
X3798Y2261D02*
X3801Y2261D01*
X3828Y2261D02*
X3831Y2261D01*
X3837Y2261D02*
X3840Y2261D01*
X3860Y2261D02*
X3864Y2261D01*
X3873Y2261D02*
X3876Y2261D01*
X5425Y2261D02*
X5432Y2261D01*
X0Y2260D02*
X7Y2260D01*
X1875Y2260D02*
X1878Y2260D01*
X1897Y2260D02*
X1900Y2260D01*
X1905Y2260D02*
X1908Y2260D01*
X1929Y2260D02*
X1932Y2260D01*
X1941Y2260D02*
X1944Y2260D01*
X2830Y2260D02*
X2833Y2260D01*
X2847Y2260D02*
X2850Y2260D01*
X2860Y2260D02*
X2863Y2260D01*
X2868Y2260D02*
X2871Y2260D01*
X2892Y2260D02*
X2895Y2260D01*
X2904Y2260D02*
X2908Y2260D01*
X3798Y2260D02*
X3801Y2260D01*
X3828Y2260D02*
X3831Y2260D01*
X3837Y2260D02*
X3840Y2260D01*
X3860Y2260D02*
X3864Y2260D01*
X3873Y2260D02*
X3876Y2260D01*
X5425Y2260D02*
X5432Y2260D01*
X0Y2259D02*
X7Y2259D01*
X1875Y2259D02*
X1878Y2259D01*
X1897Y2259D02*
X1900Y2259D01*
X1905Y2259D02*
X1908Y2259D01*
X1929Y2259D02*
X1933Y2259D01*
X1940Y2259D02*
X1944Y2259D01*
X2830Y2259D02*
X2833Y2259D01*
X2847Y2259D02*
X2850Y2259D01*
X2860Y2259D02*
X2863Y2259D01*
X2868Y2259D02*
X2871Y2259D01*
X2892Y2259D02*
X2896Y2259D01*
X2904Y2259D02*
X2907Y2259D01*
X3798Y2259D02*
X3801Y2259D01*
X3828Y2259D02*
X3831Y2259D01*
X3837Y2259D02*
X3840Y2259D01*
X3860Y2259D02*
X3864Y2259D01*
X3873Y2259D02*
X3876Y2259D01*
X5425Y2259D02*
X5432Y2259D01*
X0Y2258D02*
X7Y2258D01*
X1875Y2258D02*
X1878Y2258D01*
X1897Y2258D02*
X1916Y2258D01*
X1929Y2258D02*
X1944Y2258D01*
X2830Y2258D02*
X2850Y2258D01*
X2860Y2258D02*
X2879Y2258D01*
X2893Y2258D02*
X2907Y2258D01*
X3798Y2258D02*
X3801Y2258D01*
X3828Y2258D02*
X3831Y2258D01*
X3837Y2258D02*
X3840Y2258D01*
X3860Y2258D02*
X3864Y2258D01*
X3873Y2258D02*
X3876Y2258D01*
X5425Y2258D02*
X5432Y2258D01*
X0Y2257D02*
X7Y2257D01*
X1875Y2257D02*
X1878Y2257D01*
X1897Y2257D02*
X1916Y2257D01*
X1930Y2257D02*
X1943Y2257D01*
X2830Y2257D02*
X2850Y2257D01*
X2860Y2257D02*
X2880Y2257D01*
X2893Y2257D02*
X2906Y2257D01*
X3798Y2257D02*
X3801Y2257D01*
X3816Y2257D02*
X3817Y2257D01*
X3828Y2257D02*
X3831Y2257D01*
X3837Y2257D02*
X3840Y2257D01*
X3860Y2257D02*
X3864Y2257D01*
X3873Y2257D02*
X3876Y2257D01*
X5425Y2257D02*
X5432Y2257D01*
X0Y2256D02*
X7Y2256D01*
X1875Y2256D02*
X1878Y2256D01*
X1897Y2256D02*
X1916Y2256D01*
X1931Y2256D02*
X1942Y2256D01*
X2830Y2256D02*
X2850Y2256D01*
X2860Y2256D02*
X2880Y2256D01*
X2894Y2256D02*
X2906Y2256D01*
X3798Y2256D02*
X3801Y2256D01*
X3814Y2256D02*
X3818Y2256D01*
X3828Y2256D02*
X3831Y2256D01*
X3837Y2256D02*
X3840Y2256D01*
X3861Y2256D02*
X3864Y2256D01*
X3872Y2256D02*
X3876Y2256D01*
X5425Y2256D02*
X5432Y2256D01*
X0Y2255D02*
X7Y2255D01*
X1876Y2255D02*
X1877Y2255D01*
X1897Y2255D02*
X1916Y2255D01*
X1933Y2255D02*
X1941Y2255D01*
X2831Y2255D02*
X2849Y2255D01*
X2861Y2255D02*
X2879Y2255D01*
X2896Y2255D02*
X2904Y2255D01*
X3798Y2255D02*
X3818Y2255D01*
X3828Y2255D02*
X3847Y2255D01*
X3861Y2255D02*
X3875Y2255D01*
X5425Y2255D02*
X5432Y2255D01*
X0Y2254D02*
X7Y2254D01*
X3799Y2254D02*
X3818Y2254D01*
X3828Y2254D02*
X3848Y2254D01*
X3862Y2254D02*
X3875Y2254D01*
X5425Y2254D02*
X5432Y2254D01*
X0Y2253D02*
X7Y2253D01*
X3799Y2253D02*
X3816Y2253D01*
X3828Y2253D02*
X3848Y2253D01*
X3862Y2253D02*
X3874Y2253D01*
X5425Y2253D02*
X5432Y2253D01*
X0Y2252D02*
X7Y2252D01*
X1466Y2252D02*
X2465Y2252D01*
X3800Y2252D02*
X3814Y2252D01*
X3829Y2252D02*
X3847Y2252D01*
X3864Y2252D02*
X3872Y2252D01*
X5425Y2252D02*
X5432Y2252D01*
X0Y2251D02*
X7Y2251D01*
X1466Y2251D02*
X2465Y2251D01*
X5425Y2251D02*
X5432Y2251D01*
X0Y2250D02*
X7Y2250D01*
X1466Y2250D02*
X2465Y2250D01*
X5425Y2250D02*
X5432Y2250D01*
X0Y2249D02*
X7Y2249D01*
X1466Y2249D02*
X2465Y2249D01*
X5425Y2249D02*
X5432Y2249D01*
X0Y2248D02*
X7Y2248D01*
X1466Y2248D02*
X2465Y2248D01*
X4591Y2248D02*
X4593Y2248D01*
X5425Y2248D02*
X5432Y2248D01*
X0Y2247D02*
X7Y2247D01*
X1466Y2247D02*
X2465Y2247D01*
X4590Y2247D02*
X4594Y2247D01*
X5425Y2247D02*
X5432Y2247D01*
X0Y2246D02*
X7Y2246D01*
X1466Y2246D02*
X2465Y2246D01*
X4590Y2246D02*
X4595Y2246D01*
X5425Y2246D02*
X5432Y2246D01*
X0Y2245D02*
X7Y2245D01*
X1466Y2245D02*
X2465Y2245D01*
X4590Y2245D02*
X4596Y2245D01*
X5425Y2245D02*
X5432Y2245D01*
X0Y2244D02*
X7Y2244D01*
X1466Y2244D02*
X2465Y2244D01*
X4591Y2244D02*
X4597Y2244D01*
X5425Y2244D02*
X5432Y2244D01*
X0Y2243D02*
X7Y2243D01*
X1466Y2243D02*
X1508Y2243D01*
X1525Y2243D02*
X1613Y2243D01*
X1620Y2243D02*
X2465Y2243D01*
X4592Y2243D02*
X4598Y2243D01*
X5425Y2243D02*
X5432Y2243D01*
X0Y2242D02*
X7Y2242D01*
X4593Y2242D02*
X4599Y2242D01*
X5425Y2242D02*
X5432Y2242D01*
X0Y2241D02*
X7Y2241D01*
X4594Y2241D02*
X4600Y2241D01*
X5425Y2241D02*
X5432Y2241D01*
X0Y2240D02*
X7Y2240D01*
X4595Y2240D02*
X4601Y2240D01*
X5425Y2240D02*
X5432Y2240D01*
X0Y2239D02*
X7Y2239D01*
X4596Y2239D02*
X4602Y2239D01*
X5425Y2239D02*
X5432Y2239D01*
X0Y2238D02*
X7Y2238D01*
X4597Y2238D02*
X4603Y2238D01*
X5425Y2238D02*
X5432Y2238D01*
X0Y2237D02*
X7Y2237D01*
X4598Y2237D02*
X4604Y2237D01*
X5425Y2237D02*
X5432Y2237D01*
X0Y2236D02*
X7Y2236D01*
X4599Y2236D02*
X4605Y2236D01*
X5425Y2236D02*
X5432Y2236D01*
X0Y2235D02*
X7Y2235D01*
X4600Y2235D02*
X4606Y2235D01*
X5425Y2235D02*
X5432Y2235D01*
X0Y2234D02*
X7Y2234D01*
X4601Y2234D02*
X4607Y2234D01*
X5425Y2234D02*
X5432Y2234D01*
X0Y2233D02*
X7Y2233D01*
X4602Y2233D02*
X4608Y2233D01*
X5425Y2233D02*
X5432Y2233D01*
X0Y2232D02*
X7Y2232D01*
X4603Y2232D02*
X4609Y2232D01*
X5425Y2232D02*
X5432Y2232D01*
X0Y2231D02*
X7Y2231D01*
X4604Y2231D02*
X4610Y2231D01*
X5425Y2231D02*
X5432Y2231D01*
X0Y2230D02*
X7Y2230D01*
X4606Y2230D02*
X4611Y2230D01*
X5425Y2230D02*
X5432Y2230D01*
X0Y2229D02*
X7Y2229D01*
X4607Y2229D02*
X4612Y2229D01*
X5425Y2229D02*
X5432Y2229D01*
X0Y2228D02*
X7Y2228D01*
X4608Y2228D02*
X4613Y2228D01*
X5425Y2228D02*
X5432Y2228D01*
X0Y2227D02*
X7Y2227D01*
X4609Y2227D02*
X4614Y2227D01*
X5425Y2227D02*
X5432Y2227D01*
X0Y2226D02*
X7Y2226D01*
X4609Y2226D02*
X4615Y2226D01*
X5425Y2226D02*
X5432Y2226D01*
X0Y2225D02*
X7Y2225D01*
X4610Y2225D02*
X4616Y2225D01*
X5425Y2225D02*
X5432Y2225D01*
X0Y2224D02*
X7Y2224D01*
X4611Y2224D02*
X4617Y2224D01*
X5425Y2224D02*
X5432Y2224D01*
X0Y2223D02*
X7Y2223D01*
X4612Y2223D02*
X4618Y2223D01*
X5425Y2223D02*
X5432Y2223D01*
X0Y2222D02*
X7Y2222D01*
X4613Y2222D02*
X4619Y2222D01*
X5425Y2222D02*
X5432Y2222D01*
X0Y2221D02*
X7Y2221D01*
X4614Y2221D02*
X4620Y2221D01*
X5425Y2221D02*
X5432Y2221D01*
X0Y2220D02*
X7Y2220D01*
X4615Y2220D02*
X4621Y2220D01*
X5425Y2220D02*
X5432Y2220D01*
X0Y2219D02*
X7Y2219D01*
X4616Y2219D02*
X4622Y2219D01*
X5425Y2219D02*
X5432Y2219D01*
X0Y2218D02*
X7Y2218D01*
X4617Y2218D02*
X4623Y2218D01*
X5425Y2218D02*
X5432Y2218D01*
X0Y2217D02*
X7Y2217D01*
X4618Y2217D02*
X4624Y2217D01*
X5425Y2217D02*
X5432Y2217D01*
X0Y2216D02*
X7Y2216D01*
X4619Y2216D02*
X4625Y2216D01*
X5425Y2216D02*
X5432Y2216D01*
X0Y2215D02*
X7Y2215D01*
X4620Y2215D02*
X4626Y2215D01*
X5425Y2215D02*
X5432Y2215D01*
X0Y2214D02*
X7Y2214D01*
X4621Y2214D02*
X4626Y2214D01*
X5425Y2214D02*
X5432Y2214D01*
X0Y2213D02*
X7Y2213D01*
X4622Y2213D02*
X4626Y2213D01*
X5425Y2213D02*
X5432Y2213D01*
X0Y2212D02*
X7Y2212D01*
X4623Y2212D02*
X4625Y2212D01*
X5425Y2212D02*
X5432Y2212D01*
X0Y2211D02*
X7Y2211D01*
X5425Y2211D02*
X5432Y2211D01*
X0Y2210D02*
X7Y2210D01*
X5425Y2210D02*
X5432Y2210D01*
X0Y2209D02*
X7Y2209D01*
X5425Y2209D02*
X5432Y2209D01*
X0Y2208D02*
X7Y2208D01*
X5425Y2208D02*
X5432Y2208D01*
X0Y2207D02*
X7Y2207D01*
X5425Y2207D02*
X5432Y2207D01*
X0Y2206D02*
X7Y2206D01*
X5425Y2206D02*
X5432Y2206D01*
X0Y2205D02*
X7Y2205D01*
X5425Y2205D02*
X5432Y2205D01*
X0Y2204D02*
X7Y2204D01*
X5425Y2204D02*
X5432Y2204D01*
X0Y2203D02*
X7Y2203D01*
X5425Y2203D02*
X5432Y2203D01*
X0Y2202D02*
X7Y2202D01*
X5425Y2202D02*
X5432Y2202D01*
X0Y2201D02*
X7Y2201D01*
X5425Y2201D02*
X5432Y2201D01*
X0Y2200D02*
X7Y2200D01*
X5425Y2200D02*
X5432Y2200D01*
X0Y2199D02*
X7Y2199D01*
X5425Y2199D02*
X5432Y2199D01*
X0Y2198D02*
X7Y2198D01*
X5425Y2198D02*
X5432Y2198D01*
X0Y2197D02*
X7Y2197D01*
X5425Y2197D02*
X5432Y2197D01*
X0Y2196D02*
X7Y2196D01*
X5425Y2196D02*
X5432Y2196D01*
X0Y2195D02*
X7Y2195D01*
X5425Y2195D02*
X5432Y2195D01*
X0Y2194D02*
X7Y2194D01*
X5425Y2194D02*
X5432Y2194D01*
X0Y2193D02*
X7Y2193D01*
X5425Y2193D02*
X5432Y2193D01*
X0Y2192D02*
X7Y2192D01*
X5425Y2192D02*
X5432Y2192D01*
X0Y2191D02*
X7Y2191D01*
X5425Y2191D02*
X5432Y2191D01*
X0Y2190D02*
X7Y2190D01*
X5425Y2190D02*
X5432Y2190D01*
X0Y2189D02*
X7Y2189D01*
X5425Y2189D02*
X5432Y2189D01*
X0Y2188D02*
X7Y2188D01*
X5425Y2188D02*
X5432Y2188D01*
X0Y2187D02*
X7Y2187D01*
X5425Y2187D02*
X5432Y2187D01*
X0Y2186D02*
X7Y2186D01*
X5425Y2186D02*
X5432Y2186D01*
X0Y2185D02*
X7Y2185D01*
X5425Y2185D02*
X5432Y2185D01*
X0Y2184D02*
X7Y2184D01*
X2464Y2184D02*
X2464Y2184D01*
X5425Y2184D02*
X5432Y2184D01*
X0Y2183D02*
X7Y2183D01*
X2463Y2183D02*
X2465Y2183D01*
X3323Y2183D02*
X3325Y2183D01*
X4223Y2183D02*
X4225Y2183D01*
X5425Y2183D02*
X5432Y2183D01*
X0Y2182D02*
X7Y2182D01*
X2462Y2182D02*
X2466Y2182D01*
X3322Y2182D02*
X3326Y2182D01*
X4222Y2182D02*
X4226Y2182D01*
X5425Y2182D02*
X5432Y2182D01*
X0Y2181D02*
X7Y2181D01*
X2461Y2181D02*
X2467Y2181D01*
X3321Y2181D02*
X3326Y2181D01*
X4221Y2181D02*
X4226Y2181D01*
X5425Y2181D02*
X5432Y2181D01*
X0Y2180D02*
X7Y2180D01*
X2460Y2180D02*
X2466Y2180D01*
X3320Y2180D02*
X3326Y2180D01*
X4220Y2180D02*
X4226Y2180D01*
X5425Y2180D02*
X5432Y2180D01*
X0Y2179D02*
X7Y2179D01*
X2459Y2179D02*
X2465Y2179D01*
X3319Y2179D02*
X3325Y2179D01*
X4219Y2179D02*
X4225Y2179D01*
X5425Y2179D02*
X5432Y2179D01*
X0Y2178D02*
X7Y2178D01*
X2458Y2178D02*
X2464Y2178D01*
X3318Y2178D02*
X3324Y2178D01*
X4218Y2178D02*
X4224Y2178D01*
X5425Y2178D02*
X5432Y2178D01*
X0Y2177D02*
X7Y2177D01*
X2457Y2177D02*
X2463Y2177D01*
X3317Y2177D02*
X3323Y2177D01*
X4217Y2177D02*
X4223Y2177D01*
X5425Y2177D02*
X5432Y2177D01*
X0Y2176D02*
X7Y2176D01*
X2456Y2176D02*
X2462Y2176D01*
X3316Y2176D02*
X3322Y2176D01*
X4216Y2176D02*
X4222Y2176D01*
X5425Y2176D02*
X5432Y2176D01*
X0Y2175D02*
X7Y2175D01*
X2455Y2175D02*
X2461Y2175D01*
X3315Y2175D02*
X3321Y2175D01*
X4215Y2175D02*
X4221Y2175D01*
X5425Y2175D02*
X5432Y2175D01*
X0Y2174D02*
X7Y2174D01*
X2454Y2174D02*
X2460Y2174D01*
X3314Y2174D02*
X3320Y2174D01*
X4214Y2174D02*
X4220Y2174D01*
X5425Y2174D02*
X5432Y2174D01*
X0Y2173D02*
X7Y2173D01*
X2453Y2173D02*
X2459Y2173D01*
X3313Y2173D02*
X3319Y2173D01*
X4213Y2173D02*
X4219Y2173D01*
X5425Y2173D02*
X5432Y2173D01*
X0Y2172D02*
X7Y2172D01*
X2452Y2172D02*
X2458Y2172D01*
X3312Y2172D02*
X3318Y2172D01*
X4212Y2172D02*
X4218Y2172D01*
X5425Y2172D02*
X5432Y2172D01*
X0Y2171D02*
X7Y2171D01*
X2451Y2171D02*
X2457Y2171D01*
X3311Y2171D02*
X3317Y2171D01*
X4211Y2171D02*
X4217Y2171D01*
X5425Y2171D02*
X5432Y2171D01*
X0Y2170D02*
X7Y2170D01*
X2450Y2170D02*
X2456Y2170D01*
X3310Y2170D02*
X3316Y2170D01*
X4210Y2170D02*
X4216Y2170D01*
X5425Y2170D02*
X5432Y2170D01*
X0Y2169D02*
X7Y2169D01*
X2450Y2169D02*
X2455Y2169D01*
X3309Y2169D02*
X3315Y2169D01*
X4209Y2169D02*
X4215Y2169D01*
X5425Y2169D02*
X5432Y2169D01*
X0Y2168D02*
X7Y2168D01*
X2449Y2168D02*
X2454Y2168D01*
X3309Y2168D02*
X3314Y2168D01*
X4209Y2168D02*
X4214Y2168D01*
X5425Y2168D02*
X5432Y2168D01*
X0Y2167D02*
X7Y2167D01*
X2448Y2167D02*
X2453Y2167D01*
X3308Y2167D02*
X3313Y2167D01*
X4208Y2167D02*
X4213Y2167D01*
X5425Y2167D02*
X5432Y2167D01*
X0Y2166D02*
X7Y2166D01*
X2447Y2166D02*
X2452Y2166D01*
X3307Y2166D02*
X3312Y2166D01*
X4207Y2166D02*
X4212Y2166D01*
X5425Y2166D02*
X5432Y2166D01*
X0Y2165D02*
X7Y2165D01*
X2446Y2165D02*
X2451Y2165D01*
X3306Y2165D02*
X3311Y2165D01*
X4206Y2165D02*
X4211Y2165D01*
X5425Y2165D02*
X5432Y2165D01*
X0Y2164D02*
X7Y2164D01*
X2445Y2164D02*
X2450Y2164D01*
X3304Y2164D02*
X3310Y2164D01*
X4204Y2164D02*
X4210Y2164D01*
X5425Y2164D02*
X5432Y2164D01*
X0Y2163D02*
X7Y2163D01*
X2443Y2163D02*
X2449Y2163D01*
X3303Y2163D02*
X3309Y2163D01*
X4203Y2163D02*
X4209Y2163D01*
X5425Y2163D02*
X5432Y2163D01*
X0Y2162D02*
X7Y2162D01*
X2442Y2162D02*
X2448Y2162D01*
X3302Y2162D02*
X3308Y2162D01*
X4202Y2162D02*
X4208Y2162D01*
X5425Y2162D02*
X5432Y2162D01*
X0Y2161D02*
X7Y2161D01*
X2441Y2161D02*
X2447Y2161D01*
X3301Y2161D02*
X3307Y2161D01*
X4201Y2161D02*
X4207Y2161D01*
X5425Y2161D02*
X5432Y2161D01*
X0Y2160D02*
X7Y2160D01*
X2440Y2160D02*
X2446Y2160D01*
X3300Y2160D02*
X3306Y2160D01*
X4200Y2160D02*
X4206Y2160D01*
X5425Y2160D02*
X5432Y2160D01*
X0Y2159D02*
X7Y2159D01*
X2439Y2159D02*
X2445Y2159D01*
X3299Y2159D02*
X3305Y2159D01*
X4199Y2159D02*
X4205Y2159D01*
X5425Y2159D02*
X5432Y2159D01*
X0Y2158D02*
X7Y2158D01*
X2438Y2158D02*
X2444Y2158D01*
X3298Y2158D02*
X3304Y2158D01*
X4198Y2158D02*
X4204Y2158D01*
X5425Y2158D02*
X5432Y2158D01*
X0Y2157D02*
X7Y2157D01*
X2437Y2157D02*
X2443Y2157D01*
X3297Y2157D02*
X3303Y2157D01*
X4197Y2157D02*
X4203Y2157D01*
X5425Y2157D02*
X5432Y2157D01*
X0Y2156D02*
X7Y2156D01*
X2436Y2156D02*
X2442Y2156D01*
X3296Y2156D02*
X3302Y2156D01*
X4196Y2156D02*
X4202Y2156D01*
X5425Y2156D02*
X5432Y2156D01*
X0Y2155D02*
X7Y2155D01*
X2435Y2155D02*
X2441Y2155D01*
X3295Y2155D02*
X3301Y2155D01*
X4195Y2155D02*
X4201Y2155D01*
X5425Y2155D02*
X5432Y2155D01*
X0Y2154D02*
X7Y2154D01*
X2434Y2154D02*
X2440Y2154D01*
X3294Y2154D02*
X3300Y2154D01*
X4194Y2154D02*
X4200Y2154D01*
X5425Y2154D02*
X5432Y2154D01*
X0Y2153D02*
X7Y2153D01*
X2433Y2153D02*
X2439Y2153D01*
X3293Y2153D02*
X3299Y2153D01*
X4193Y2153D02*
X4199Y2153D01*
X5425Y2153D02*
X5432Y2153D01*
X0Y2152D02*
X7Y2152D01*
X2432Y2152D02*
X2438Y2152D01*
X3292Y2152D02*
X3298Y2152D01*
X4192Y2152D02*
X4198Y2152D01*
X5425Y2152D02*
X5432Y2152D01*
X0Y2151D02*
X7Y2151D01*
X2431Y2151D02*
X2437Y2151D01*
X3291Y2151D02*
X3297Y2151D01*
X4191Y2151D02*
X4197Y2151D01*
X5425Y2151D02*
X5432Y2151D01*
X0Y2150D02*
X7Y2150D01*
X2430Y2150D02*
X2436Y2150D01*
X3290Y2150D02*
X3296Y2150D01*
X4190Y2150D02*
X4196Y2150D01*
X5425Y2150D02*
X5432Y2150D01*
X0Y2149D02*
X7Y2149D01*
X2430Y2149D02*
X2435Y2149D01*
X3290Y2149D02*
X3295Y2149D01*
X4190Y2149D02*
X4195Y2149D01*
X5425Y2149D02*
X5432Y2149D01*
X0Y2148D02*
X7Y2148D01*
X2431Y2148D02*
X2434Y2148D01*
X3291Y2148D02*
X3294Y2148D01*
X4191Y2148D02*
X4194Y2148D01*
X5425Y2148D02*
X5432Y2148D01*
X0Y2147D02*
X7Y2147D01*
X2432Y2147D02*
X2433Y2147D01*
X3292Y2147D02*
X3293Y2147D01*
X4192Y2147D02*
X4193Y2147D01*
X5425Y2147D02*
X5432Y2147D01*
X0Y2146D02*
X7Y2146D01*
X5425Y2146D02*
X5432Y2146D01*
X0Y2145D02*
X7Y2145D01*
X5425Y2145D02*
X5432Y2145D01*
X0Y2144D02*
X7Y2144D01*
X5425Y2144D02*
X5432Y2144D01*
X0Y2143D02*
X7Y2143D01*
X5425Y2143D02*
X5432Y2143D01*
X0Y2142D02*
X7Y2142D01*
X5425Y2142D02*
X5432Y2142D01*
X0Y2141D02*
X7Y2141D01*
X5425Y2141D02*
X5432Y2141D01*
X0Y2140D02*
X7Y2140D01*
X5425Y2140D02*
X5432Y2140D01*
X0Y2139D02*
X7Y2139D01*
X5425Y2139D02*
X5432Y2139D01*
X0Y2138D02*
X7Y2138D01*
X5425Y2138D02*
X5432Y2138D01*
X0Y2137D02*
X7Y2137D01*
X5425Y2137D02*
X5432Y2137D01*
X0Y2136D02*
X7Y2136D01*
X5425Y2136D02*
X5432Y2136D01*
X0Y2135D02*
X7Y2135D01*
X5425Y2135D02*
X5432Y2135D01*
X0Y2134D02*
X7Y2134D01*
X5425Y2134D02*
X5432Y2134D01*
X0Y2133D02*
X7Y2133D01*
X5425Y2133D02*
X5432Y2133D01*
X0Y2132D02*
X7Y2132D01*
X5425Y2132D02*
X5432Y2132D01*
X0Y2131D02*
X7Y2131D01*
X5425Y2131D02*
X5432Y2131D01*
X0Y2130D02*
X7Y2130D01*
X5425Y2130D02*
X5432Y2130D01*
X0Y2129D02*
X7Y2129D01*
X5425Y2129D02*
X5432Y2129D01*
X0Y2128D02*
X7Y2128D01*
X5425Y2128D02*
X5432Y2128D01*
X0Y2127D02*
X7Y2127D01*
X5425Y2127D02*
X5432Y2127D01*
X0Y2126D02*
X7Y2126D01*
X5425Y2126D02*
X5432Y2126D01*
X0Y2125D02*
X7Y2125D01*
X5425Y2125D02*
X5432Y2125D01*
X0Y2124D02*
X7Y2124D01*
X5425Y2124D02*
X5432Y2124D01*
X0Y2123D02*
X7Y2123D01*
X5425Y2123D02*
X5432Y2123D01*
X0Y2122D02*
X7Y2122D01*
X5425Y2122D02*
X5432Y2122D01*
X0Y2121D02*
X7Y2121D01*
X5425Y2121D02*
X5432Y2121D01*
X0Y2120D02*
X7Y2120D01*
X5425Y2120D02*
X5432Y2120D01*
X0Y2119D02*
X7Y2119D01*
X5425Y2119D02*
X5432Y2119D01*
X0Y2118D02*
X7Y2118D01*
X5425Y2118D02*
X5432Y2118D01*
X0Y2117D02*
X7Y2117D01*
X5425Y2117D02*
X5432Y2117D01*
X0Y2116D02*
X7Y2116D01*
X5425Y2116D02*
X5432Y2116D01*
X0Y2115D02*
X7Y2115D01*
X5425Y2115D02*
X5432Y2115D01*
X0Y2114D02*
X7Y2114D01*
X5425Y2114D02*
X5432Y2114D01*
X0Y2113D02*
X7Y2113D01*
X5425Y2113D02*
X5432Y2113D01*
X0Y2112D02*
X7Y2112D01*
X5425Y2112D02*
X5432Y2112D01*
X0Y2111D02*
X7Y2111D01*
X5425Y2111D02*
X5432Y2111D01*
X0Y2110D02*
X7Y2110D01*
X5425Y2110D02*
X5432Y2110D01*
X0Y2109D02*
X7Y2109D01*
X5425Y2109D02*
X5432Y2109D01*
X0Y2108D02*
X7Y2108D01*
X5425Y2108D02*
X5432Y2108D01*
X0Y2107D02*
X7Y2107D01*
X5425Y2107D02*
X5432Y2107D01*
X0Y2106D02*
X7Y2106D01*
X5425Y2106D02*
X5432Y2106D01*
X0Y2105D02*
X7Y2105D01*
X5425Y2105D02*
X5432Y2105D01*
X0Y2104D02*
X7Y2104D01*
X5425Y2104D02*
X5432Y2104D01*
X0Y2103D02*
X7Y2103D01*
X5425Y2103D02*
X5432Y2103D01*
X0Y2102D02*
X7Y2102D01*
X5425Y2102D02*
X5432Y2102D01*
X0Y2101D02*
X7Y2101D01*
X5425Y2101D02*
X5432Y2101D01*
X0Y2100D02*
X7Y2100D01*
X4723Y2100D02*
X4732Y2100D01*
X4756Y2100D02*
X4766Y2100D01*
X4781Y2100D02*
X4782Y2100D01*
X5425Y2100D02*
X5432Y2100D01*
X0Y2099D02*
X7Y2099D01*
X4722Y2099D02*
X4733Y2099D01*
X4756Y2099D02*
X4767Y2099D01*
X4780Y2099D02*
X4783Y2099D01*
X5425Y2099D02*
X5432Y2099D01*
X0Y2098D02*
X7Y2098D01*
X4722Y2098D02*
X4733Y2098D01*
X4756Y2098D02*
X4767Y2098D01*
X4780Y2098D02*
X4783Y2098D01*
X5425Y2098D02*
X5432Y2098D01*
X0Y2097D02*
X7Y2097D01*
X4722Y2097D02*
X4733Y2097D01*
X4756Y2097D02*
X4767Y2097D01*
X4780Y2097D02*
X4783Y2097D01*
X5425Y2097D02*
X5432Y2097D01*
X0Y2096D02*
X7Y2096D01*
X4722Y2096D02*
X4733Y2096D01*
X4756Y2096D02*
X4765Y2096D01*
X4780Y2096D02*
X4783Y2096D01*
X5425Y2096D02*
X5432Y2096D01*
X0Y2095D02*
X7Y2095D01*
X4722Y2095D02*
X4725Y2095D01*
X4730Y2095D02*
X4733Y2095D01*
X4756Y2095D02*
X4759Y2095D01*
X4780Y2095D02*
X4783Y2095D01*
X5425Y2095D02*
X5432Y2095D01*
X0Y2094D02*
X7Y2094D01*
X4722Y2094D02*
X4725Y2094D01*
X4730Y2094D02*
X4733Y2094D01*
X4756Y2094D02*
X4759Y2094D01*
X4780Y2094D02*
X4783Y2094D01*
X5425Y2094D02*
X5432Y2094D01*
X0Y2093D02*
X7Y2093D01*
X4722Y2093D02*
X4725Y2093D01*
X4730Y2093D02*
X4733Y2093D01*
X4756Y2093D02*
X4759Y2093D01*
X4780Y2093D02*
X4783Y2093D01*
X5425Y2093D02*
X5432Y2093D01*
X0Y2092D02*
X7Y2092D01*
X4722Y2092D02*
X4725Y2092D01*
X4730Y2092D02*
X4733Y2092D01*
X4756Y2092D02*
X4759Y2092D01*
X4780Y2092D02*
X4783Y2092D01*
X5425Y2092D02*
X5432Y2092D01*
X0Y2091D02*
X7Y2091D01*
X4722Y2091D02*
X4725Y2091D01*
X4730Y2091D02*
X4733Y2091D01*
X4756Y2091D02*
X4759Y2091D01*
X4780Y2091D02*
X4783Y2091D01*
X5425Y2091D02*
X5432Y2091D01*
X0Y2090D02*
X7Y2090D01*
X4722Y2090D02*
X4725Y2090D01*
X4730Y2090D02*
X4733Y2090D01*
X4756Y2090D02*
X4759Y2090D01*
X4780Y2090D02*
X4783Y2090D01*
X5425Y2090D02*
X5432Y2090D01*
X0Y2089D02*
X7Y2089D01*
X4722Y2089D02*
X4725Y2089D01*
X4730Y2089D02*
X4733Y2089D01*
X4756Y2089D02*
X4759Y2089D01*
X4780Y2089D02*
X4783Y2089D01*
X5425Y2089D02*
X5432Y2089D01*
X0Y2088D02*
X7Y2088D01*
X4722Y2088D02*
X4725Y2088D01*
X4730Y2088D02*
X4733Y2088D01*
X4756Y2088D02*
X4759Y2088D01*
X4780Y2088D02*
X4783Y2088D01*
X5425Y2088D02*
X5432Y2088D01*
X0Y2087D02*
X7Y2087D01*
X4722Y2087D02*
X4725Y2087D01*
X4730Y2087D02*
X4733Y2087D01*
X4756Y2087D02*
X4759Y2087D01*
X4780Y2087D02*
X4783Y2087D01*
X5425Y2087D02*
X5432Y2087D01*
X0Y2086D02*
X7Y2086D01*
X4722Y2086D02*
X4734Y2086D01*
X4756Y2086D02*
X4759Y2086D01*
X4780Y2086D02*
X4783Y2086D01*
X5425Y2086D02*
X5432Y2086D01*
X0Y2085D02*
X7Y2085D01*
X4719Y2085D02*
X4736Y2085D01*
X4756Y2085D02*
X4759Y2085D01*
X4780Y2085D02*
X4783Y2085D01*
X5425Y2085D02*
X5432Y2085D01*
X0Y2084D02*
X7Y2084D01*
X4718Y2084D02*
X4737Y2084D01*
X4756Y2084D02*
X4759Y2084D01*
X4780Y2084D02*
X4783Y2084D01*
X5425Y2084D02*
X5432Y2084D01*
X0Y2083D02*
X7Y2083D01*
X4718Y2083D02*
X4737Y2083D01*
X4756Y2083D02*
X4759Y2083D01*
X4780Y2083D02*
X4783Y2083D01*
X5425Y2083D02*
X5432Y2083D01*
X0Y2082D02*
X7Y2082D01*
X4718Y2082D02*
X4737Y2082D01*
X4749Y2082D02*
X4750Y2082D01*
X4756Y2082D02*
X4759Y2082D01*
X4780Y2082D02*
X4783Y2082D01*
X4793Y2082D02*
X4795Y2082D01*
X5425Y2082D02*
X5432Y2082D01*
X0Y2081D02*
X7Y2081D01*
X4718Y2081D02*
X4721Y2081D01*
X4734Y2081D02*
X4738Y2081D01*
X4748Y2081D02*
X4751Y2081D01*
X4756Y2081D02*
X4759Y2081D01*
X4780Y2081D02*
X4783Y2081D01*
X4792Y2081D02*
X4795Y2081D01*
X5425Y2081D02*
X5432Y2081D01*
X0Y2080D02*
X7Y2080D01*
X4718Y2080D02*
X4721Y2080D01*
X4734Y2080D02*
X4738Y2080D01*
X4748Y2080D02*
X4751Y2080D01*
X4756Y2080D02*
X4759Y2080D01*
X4780Y2080D02*
X4783Y2080D01*
X4792Y2080D02*
X4795Y2080D01*
X5425Y2080D02*
X5432Y2080D01*
X0Y2079D02*
X7Y2079D01*
X4718Y2079D02*
X4721Y2079D01*
X4734Y2079D02*
X4738Y2079D01*
X4748Y2079D02*
X4751Y2079D01*
X4756Y2079D02*
X4759Y2079D01*
X4780Y2079D02*
X4783Y2079D01*
X4792Y2079D02*
X4795Y2079D01*
X5425Y2079D02*
X5432Y2079D01*
X0Y2078D02*
X7Y2078D01*
X4718Y2078D02*
X4721Y2078D01*
X4734Y2078D02*
X4738Y2078D01*
X4748Y2078D02*
X4751Y2078D01*
X4756Y2078D02*
X4759Y2078D01*
X4780Y2078D02*
X4783Y2078D01*
X4792Y2078D02*
X4795Y2078D01*
X5425Y2078D02*
X5432Y2078D01*
X0Y2077D02*
X7Y2077D01*
X4718Y2077D02*
X4721Y2077D01*
X4734Y2077D02*
X4738Y2077D01*
X4748Y2077D02*
X4751Y2077D01*
X4756Y2077D02*
X4759Y2077D01*
X4780Y2077D02*
X4783Y2077D01*
X4792Y2077D02*
X4795Y2077D01*
X5425Y2077D02*
X5432Y2077D01*
X0Y2076D02*
X7Y2076D01*
X4718Y2076D02*
X4721Y2076D01*
X4734Y2076D02*
X4738Y2076D01*
X4748Y2076D02*
X4751Y2076D01*
X4756Y2076D02*
X4759Y2076D01*
X4780Y2076D02*
X4783Y2076D01*
X4792Y2076D02*
X4795Y2076D01*
X5425Y2076D02*
X5432Y2076D01*
X0Y2075D02*
X7Y2075D01*
X4718Y2075D02*
X4721Y2075D01*
X4734Y2075D02*
X4738Y2075D01*
X4748Y2075D02*
X4751Y2075D01*
X4756Y2075D02*
X4759Y2075D01*
X4780Y2075D02*
X4783Y2075D01*
X4792Y2075D02*
X4795Y2075D01*
X5425Y2075D02*
X5432Y2075D01*
X0Y2074D02*
X7Y2074D01*
X4718Y2074D02*
X4721Y2074D01*
X4734Y2074D02*
X4738Y2074D01*
X4748Y2074D02*
X4751Y2074D01*
X4756Y2074D02*
X4759Y2074D01*
X4780Y2074D02*
X4783Y2074D01*
X4792Y2074D02*
X4795Y2074D01*
X5425Y2074D02*
X5432Y2074D01*
X0Y2073D02*
X7Y2073D01*
X4718Y2073D02*
X4721Y2073D01*
X4734Y2073D02*
X4738Y2073D01*
X4748Y2073D02*
X4751Y2073D01*
X4756Y2073D02*
X4759Y2073D01*
X4780Y2073D02*
X4783Y2073D01*
X4792Y2073D02*
X4795Y2073D01*
X5425Y2073D02*
X5432Y2073D01*
X0Y2072D02*
X7Y2072D01*
X4718Y2072D02*
X4721Y2072D01*
X4734Y2072D02*
X4737Y2072D01*
X4748Y2072D02*
X4751Y2072D01*
X4756Y2072D02*
X4760Y2072D01*
X4780Y2072D02*
X4785Y2072D01*
X4791Y2072D02*
X4795Y2072D01*
X5425Y2072D02*
X5432Y2072D01*
X0Y2071D02*
X7Y2071D01*
X4718Y2071D02*
X4737Y2071D01*
X4748Y2071D02*
X4767Y2071D01*
X4781Y2071D02*
X4795Y2071D01*
X5425Y2071D02*
X5432Y2071D01*
X0Y2070D02*
X7Y2070D01*
X4718Y2070D02*
X4737Y2070D01*
X4748Y2070D02*
X4767Y2070D01*
X4781Y2070D02*
X4794Y2070D01*
X5425Y2070D02*
X5432Y2070D01*
X0Y2069D02*
X7Y2069D01*
X4719Y2069D02*
X4736Y2069D01*
X4748Y2069D02*
X4767Y2069D01*
X4783Y2069D02*
X4793Y2069D01*
X5425Y2069D02*
X5432Y2069D01*
X0Y2068D02*
X7Y2068D01*
X4721Y2068D02*
X4735Y2068D01*
X4749Y2068D02*
X4766Y2068D01*
X4784Y2068D02*
X4791Y2068D01*
X5425Y2068D02*
X5432Y2068D01*
X0Y2067D02*
X7Y2067D01*
X5425Y2067D02*
X5432Y2067D01*
X0Y2066D02*
X7Y2066D01*
X5425Y2066D02*
X5432Y2066D01*
X0Y2065D02*
X7Y2065D01*
X5425Y2065D02*
X5432Y2065D01*
X0Y2064D02*
X7Y2064D01*
X5425Y2064D02*
X5432Y2064D01*
X0Y2063D02*
X7Y2063D01*
X5425Y2063D02*
X5432Y2063D01*
X0Y2062D02*
X7Y2062D01*
X5425Y2062D02*
X5432Y2062D01*
X0Y2061D02*
X7Y2061D01*
X5425Y2061D02*
X5432Y2061D01*
X0Y2060D02*
X7Y2060D01*
X5425Y2060D02*
X5432Y2060D01*
X0Y2059D02*
X7Y2059D01*
X5425Y2059D02*
X5432Y2059D01*
X0Y2058D02*
X7Y2058D01*
X5425Y2058D02*
X5432Y2058D01*
X0Y2057D02*
X7Y2057D01*
X5425Y2057D02*
X5432Y2057D01*
X0Y2056D02*
X7Y2056D01*
X5425Y2056D02*
X5432Y2056D01*
X0Y2055D02*
X7Y2055D01*
X5425Y2055D02*
X5432Y2055D01*
X0Y2054D02*
X7Y2054D01*
X5425Y2054D02*
X5432Y2054D01*
X0Y2053D02*
X7Y2053D01*
X5425Y2053D02*
X5432Y2053D01*
X0Y2052D02*
X7Y2052D01*
X5425Y2052D02*
X5432Y2052D01*
X0Y2051D02*
X7Y2051D01*
X5425Y2051D02*
X5432Y2051D01*
X0Y2050D02*
X7Y2050D01*
X5425Y2050D02*
X5432Y2050D01*
X0Y2049D02*
X7Y2049D01*
X5425Y2049D02*
X5432Y2049D01*
X0Y2048D02*
X7Y2048D01*
X5425Y2048D02*
X5432Y2048D01*
X0Y2047D02*
X7Y2047D01*
X5425Y2047D02*
X5432Y2047D01*
X0Y2046D02*
X7Y2046D01*
X5425Y2046D02*
X5432Y2046D01*
X0Y2045D02*
X7Y2045D01*
X5425Y2045D02*
X5432Y2045D01*
X0Y2044D02*
X7Y2044D01*
X5425Y2044D02*
X5432Y2044D01*
X0Y2043D02*
X7Y2043D01*
X5425Y2043D02*
X5432Y2043D01*
X0Y2042D02*
X7Y2042D01*
X5425Y2042D02*
X5432Y2042D01*
X0Y2041D02*
X7Y2041D01*
X5425Y2041D02*
X5432Y2041D01*
X0Y2040D02*
X7Y2040D01*
X5425Y2040D02*
X5432Y2040D01*
X0Y2039D02*
X7Y2039D01*
X5425Y2039D02*
X5432Y2039D01*
X0Y2038D02*
X7Y2038D01*
X5425Y2038D02*
X5432Y2038D01*
X0Y2037D02*
X7Y2037D01*
X5425Y2037D02*
X5432Y2037D01*
X0Y2036D02*
X7Y2036D01*
X5425Y2036D02*
X5432Y2036D01*
X0Y2035D02*
X7Y2035D01*
X5425Y2035D02*
X5432Y2035D01*
X0Y2034D02*
X7Y2034D01*
X5425Y2034D02*
X5432Y2034D01*
X0Y2033D02*
X7Y2033D01*
X5425Y2033D02*
X5432Y2033D01*
X0Y2032D02*
X7Y2032D01*
X5425Y2032D02*
X5432Y2032D01*
X0Y2031D02*
X7Y2031D01*
X5425Y2031D02*
X5432Y2031D01*
X0Y2030D02*
X7Y2030D01*
X5425Y2030D02*
X5432Y2030D01*
X0Y2029D02*
X7Y2029D01*
X5425Y2029D02*
X5432Y2029D01*
X0Y2028D02*
X7Y2028D01*
X5425Y2028D02*
X5432Y2028D01*
X0Y2027D02*
X7Y2027D01*
X5425Y2027D02*
X5432Y2027D01*
X0Y2026D02*
X7Y2026D01*
X5425Y2026D02*
X5432Y2026D01*
X0Y2025D02*
X7Y2025D01*
X5425Y2025D02*
X5432Y2025D01*
X0Y2024D02*
X7Y2024D01*
X5425Y2024D02*
X5432Y2024D01*
X0Y2023D02*
X7Y2023D01*
X5425Y2023D02*
X5432Y2023D01*
X0Y2022D02*
X7Y2022D01*
X5425Y2022D02*
X5432Y2022D01*
X0Y2021D02*
X7Y2021D01*
X5425Y2021D02*
X5432Y2021D01*
X0Y2020D02*
X7Y2020D01*
X5425Y2020D02*
X5432Y2020D01*
X0Y2019D02*
X7Y2019D01*
X5425Y2019D02*
X5432Y2019D01*
X0Y2018D02*
X7Y2018D01*
X5425Y2018D02*
X5432Y2018D01*
X0Y2017D02*
X7Y2017D01*
X5425Y2017D02*
X5432Y2017D01*
X0Y2016D02*
X7Y2016D01*
X5425Y2016D02*
X5432Y2016D01*
X0Y2015D02*
X7Y2015D01*
X5425Y2015D02*
X5432Y2015D01*
X0Y2014D02*
X7Y2014D01*
X5425Y2014D02*
X5432Y2014D01*
X0Y2013D02*
X7Y2013D01*
X5425Y2013D02*
X5432Y2013D01*
X0Y2012D02*
X7Y2012D01*
X5425Y2012D02*
X5432Y2012D01*
X0Y2011D02*
X7Y2011D01*
X5425Y2011D02*
X5432Y2011D01*
X0Y2010D02*
X7Y2010D01*
X5425Y2010D02*
X5432Y2010D01*
X0Y2009D02*
X7Y2009D01*
X5425Y2009D02*
X5432Y2009D01*
X0Y2008D02*
X7Y2008D01*
X5425Y2008D02*
X5432Y2008D01*
X0Y2007D02*
X7Y2007D01*
X5425Y2007D02*
X5432Y2007D01*
X0Y2006D02*
X7Y2006D01*
X5425Y2006D02*
X5432Y2006D01*
X0Y2005D02*
X7Y2005D01*
X5425Y2005D02*
X5432Y2005D01*
X0Y2004D02*
X7Y2004D01*
X5425Y2004D02*
X5432Y2004D01*
X0Y2003D02*
X7Y2003D01*
X5425Y2003D02*
X5432Y2003D01*
X0Y2002D02*
X7Y2002D01*
X5425Y2002D02*
X5432Y2002D01*
X0Y2001D02*
X7Y2001D01*
X5425Y2001D02*
X5432Y2001D01*
X0Y2000D02*
X7Y2000D01*
X5425Y2000D02*
X5432Y2000D01*
X0Y1999D02*
X7Y1999D01*
X5425Y1999D02*
X5432Y1999D01*
X0Y1998D02*
X7Y1998D01*
X5425Y1998D02*
X5432Y1998D01*
X0Y1997D02*
X7Y1997D01*
X5425Y1997D02*
X5432Y1997D01*
X0Y1996D02*
X7Y1996D01*
X5425Y1996D02*
X5432Y1996D01*
X0Y1995D02*
X7Y1995D01*
X5425Y1995D02*
X5432Y1995D01*
X0Y1994D02*
X7Y1994D01*
X5425Y1994D02*
X5432Y1994D01*
X0Y1993D02*
X7Y1993D01*
X5425Y1993D02*
X5432Y1993D01*
X0Y1992D02*
X7Y1992D01*
X5425Y1992D02*
X5432Y1992D01*
X0Y1991D02*
X7Y1991D01*
X5425Y1991D02*
X5432Y1991D01*
X0Y1990D02*
X7Y1990D01*
X5425Y1990D02*
X5432Y1990D01*
X0Y1989D02*
X7Y1989D01*
X5425Y1989D02*
X5432Y1989D01*
X0Y1988D02*
X7Y1988D01*
X5425Y1988D02*
X5432Y1988D01*
X0Y1987D02*
X7Y1987D01*
X5425Y1987D02*
X5432Y1987D01*
X0Y1986D02*
X7Y1986D01*
X5425Y1986D02*
X5432Y1986D01*
X0Y1985D02*
X7Y1985D01*
X5425Y1985D02*
X5432Y1985D01*
X0Y1984D02*
X7Y1984D01*
X5425Y1984D02*
X5432Y1984D01*
X0Y1983D02*
X7Y1983D01*
X5425Y1983D02*
X5432Y1983D01*
X0Y1982D02*
X7Y1982D01*
X5425Y1982D02*
X5432Y1982D01*
X0Y1981D02*
X7Y1981D01*
X5425Y1981D02*
X5432Y1981D01*
X0Y1980D02*
X7Y1980D01*
X5425Y1980D02*
X5432Y1980D01*
X0Y1979D02*
X7Y1979D01*
X5425Y1979D02*
X5432Y1979D01*
X0Y1978D02*
X7Y1978D01*
X5425Y1978D02*
X5432Y1978D01*
X0Y1977D02*
X7Y1977D01*
X5425Y1977D02*
X5432Y1977D01*
X0Y1976D02*
X7Y1976D01*
X5425Y1976D02*
X5432Y1976D01*
X0Y1975D02*
X7Y1975D01*
X5425Y1975D02*
X5432Y1975D01*
X0Y1974D02*
X7Y1974D01*
X5425Y1974D02*
X5432Y1974D01*
X0Y1973D02*
X7Y1973D01*
X5425Y1973D02*
X5432Y1973D01*
X0Y1972D02*
X7Y1972D01*
X5425Y1972D02*
X5432Y1972D01*
X0Y1971D02*
X7Y1971D01*
X5425Y1971D02*
X5432Y1971D01*
X0Y1970D02*
X7Y1970D01*
X5425Y1970D02*
X5432Y1970D01*
X0Y1969D02*
X7Y1969D01*
X5425Y1969D02*
X5432Y1969D01*
X0Y1968D02*
X7Y1968D01*
X5425Y1968D02*
X5432Y1968D01*
X0Y1967D02*
X7Y1967D01*
X5425Y1967D02*
X5432Y1967D01*
X0Y1966D02*
X7Y1966D01*
X5425Y1966D02*
X5432Y1966D01*
X0Y1965D02*
X7Y1965D01*
X5425Y1965D02*
X5432Y1965D01*
X0Y1964D02*
X7Y1964D01*
X5425Y1964D02*
X5432Y1964D01*
X0Y1963D02*
X7Y1963D01*
X5425Y1963D02*
X5432Y1963D01*
X0Y1962D02*
X7Y1962D01*
X5425Y1962D02*
X5432Y1962D01*
X0Y1961D02*
X7Y1961D01*
X5425Y1961D02*
X5432Y1961D01*
X0Y1960D02*
X7Y1960D01*
X5425Y1960D02*
X5432Y1960D01*
X0Y1959D02*
X7Y1959D01*
X5425Y1959D02*
X5432Y1959D01*
X0Y1958D02*
X7Y1958D01*
X5425Y1958D02*
X5432Y1958D01*
X0Y1957D02*
X7Y1957D01*
X5425Y1957D02*
X5432Y1957D01*
X0Y1956D02*
X7Y1956D01*
X5425Y1956D02*
X5432Y1956D01*
X0Y1955D02*
X7Y1955D01*
X5425Y1955D02*
X5432Y1955D01*
X0Y1954D02*
X7Y1954D01*
X5425Y1954D02*
X5432Y1954D01*
X0Y1953D02*
X7Y1953D01*
X5425Y1953D02*
X5432Y1953D01*
X0Y1952D02*
X7Y1952D01*
X5425Y1952D02*
X5432Y1952D01*
X0Y1951D02*
X7Y1951D01*
X5425Y1951D02*
X5432Y1951D01*
X0Y1950D02*
X7Y1950D01*
X5425Y1950D02*
X5432Y1950D01*
X0Y1949D02*
X7Y1949D01*
X5425Y1949D02*
X5432Y1949D01*
X0Y1948D02*
X7Y1948D01*
X5425Y1948D02*
X5432Y1948D01*
X0Y1947D02*
X7Y1947D01*
X5425Y1947D02*
X5432Y1947D01*
X0Y1946D02*
X7Y1946D01*
X5425Y1946D02*
X5432Y1946D01*
X0Y1945D02*
X7Y1945D01*
X5425Y1945D02*
X5432Y1945D01*
X0Y1944D02*
X7Y1944D01*
X5425Y1944D02*
X5432Y1944D01*
X0Y1943D02*
X7Y1943D01*
X5425Y1943D02*
X5432Y1943D01*
X0Y1942D02*
X7Y1942D01*
X5425Y1942D02*
X5432Y1942D01*
X0Y1941D02*
X7Y1941D01*
X5425Y1941D02*
X5432Y1941D01*
X0Y1940D02*
X7Y1940D01*
X5425Y1940D02*
X5432Y1940D01*
X0Y1939D02*
X7Y1939D01*
X5425Y1939D02*
X5432Y1939D01*
X0Y1938D02*
X7Y1938D01*
X5425Y1938D02*
X5432Y1938D01*
X0Y1937D02*
X7Y1937D01*
X5425Y1937D02*
X5432Y1937D01*
X0Y1936D02*
X7Y1936D01*
X5425Y1936D02*
X5432Y1936D01*
X0Y1935D02*
X7Y1935D01*
X5425Y1935D02*
X5432Y1935D01*
X0Y1934D02*
X7Y1934D01*
X5425Y1934D02*
X5432Y1934D01*
X0Y1933D02*
X7Y1933D01*
X5425Y1933D02*
X5432Y1933D01*
X0Y1932D02*
X7Y1932D01*
X5425Y1932D02*
X5432Y1932D01*
X0Y1931D02*
X7Y1931D01*
X5425Y1931D02*
X5432Y1931D01*
X0Y1930D02*
X7Y1930D01*
X5425Y1930D02*
X5432Y1930D01*
X0Y1929D02*
X7Y1929D01*
X5425Y1929D02*
X5432Y1929D01*
X0Y1928D02*
X7Y1928D01*
X5425Y1928D02*
X5432Y1928D01*
X0Y1927D02*
X7Y1927D01*
X5425Y1927D02*
X5432Y1927D01*
X0Y1926D02*
X7Y1926D01*
X5425Y1926D02*
X5432Y1926D01*
X0Y1925D02*
X7Y1925D01*
X5425Y1925D02*
X5432Y1925D01*
X0Y1924D02*
X7Y1924D01*
X5425Y1924D02*
X5432Y1924D01*
X0Y1923D02*
X7Y1923D01*
X5425Y1923D02*
X5432Y1923D01*
X0Y1922D02*
X7Y1922D01*
X5425Y1922D02*
X5432Y1922D01*
X0Y1921D02*
X7Y1921D01*
X5425Y1921D02*
X5432Y1921D01*
X0Y1920D02*
X7Y1920D01*
X5425Y1920D02*
X5432Y1920D01*
X0Y1919D02*
X7Y1919D01*
X5425Y1919D02*
X5432Y1919D01*
X0Y1918D02*
X7Y1918D01*
X5425Y1918D02*
X5432Y1918D01*
X0Y1917D02*
X7Y1917D01*
X5425Y1917D02*
X5432Y1917D01*
X0Y1916D02*
X7Y1916D01*
X5425Y1916D02*
X5432Y1916D01*
X0Y1915D02*
X7Y1915D01*
X5425Y1915D02*
X5432Y1915D01*
X0Y1914D02*
X7Y1914D01*
X5425Y1914D02*
X5432Y1914D01*
X0Y1913D02*
X7Y1913D01*
X5425Y1913D02*
X5432Y1913D01*
X0Y1912D02*
X7Y1912D01*
X5425Y1912D02*
X5432Y1912D01*
X0Y1911D02*
X7Y1911D01*
X5425Y1911D02*
X5432Y1911D01*
X0Y1910D02*
X7Y1910D01*
X5425Y1910D02*
X5432Y1910D01*
X0Y1909D02*
X7Y1909D01*
X5425Y1909D02*
X5432Y1909D01*
X0Y1908D02*
X7Y1908D01*
X5425Y1908D02*
X5432Y1908D01*
X0Y1907D02*
X7Y1907D01*
X5425Y1907D02*
X5432Y1907D01*
X0Y1906D02*
X7Y1906D01*
X5425Y1906D02*
X5432Y1906D01*
X0Y1905D02*
X7Y1905D01*
X5425Y1905D02*
X5432Y1905D01*
X0Y1904D02*
X7Y1904D01*
X5425Y1904D02*
X5432Y1904D01*
X0Y1903D02*
X7Y1903D01*
X5425Y1903D02*
X5432Y1903D01*
X0Y1902D02*
X7Y1902D01*
X5425Y1902D02*
X5432Y1902D01*
X0Y1901D02*
X7Y1901D01*
X5425Y1901D02*
X5432Y1901D01*
X0Y1900D02*
X7Y1900D01*
X5425Y1900D02*
X5432Y1900D01*
X0Y1899D02*
X7Y1899D01*
X5425Y1899D02*
X5432Y1899D01*
X0Y1898D02*
X7Y1898D01*
X5425Y1898D02*
X5432Y1898D01*
X0Y1897D02*
X7Y1897D01*
X5425Y1897D02*
X5432Y1897D01*
X0Y1896D02*
X7Y1896D01*
X5425Y1896D02*
X5432Y1896D01*
X0Y1895D02*
X7Y1895D01*
X5425Y1895D02*
X5432Y1895D01*
X0Y1894D02*
X7Y1894D01*
X5425Y1894D02*
X5432Y1894D01*
X0Y1893D02*
X7Y1893D01*
X5425Y1893D02*
X5432Y1893D01*
X0Y1892D02*
X7Y1892D01*
X5425Y1892D02*
X5432Y1892D01*
X0Y1891D02*
X7Y1891D01*
X5425Y1891D02*
X5432Y1891D01*
X0Y1890D02*
X7Y1890D01*
X5425Y1890D02*
X5432Y1890D01*
X0Y1889D02*
X7Y1889D01*
X5425Y1889D02*
X5432Y1889D01*
X0Y1888D02*
X7Y1888D01*
X5425Y1888D02*
X5432Y1888D01*
X0Y1887D02*
X7Y1887D01*
X5425Y1887D02*
X5432Y1887D01*
X0Y1886D02*
X7Y1886D01*
X5425Y1886D02*
X5432Y1886D01*
X0Y1885D02*
X7Y1885D01*
X5425Y1885D02*
X5432Y1885D01*
X0Y1884D02*
X7Y1884D01*
X5425Y1884D02*
X5432Y1884D01*
X0Y1883D02*
X7Y1883D01*
X5425Y1883D02*
X5432Y1883D01*
X0Y1882D02*
X7Y1882D01*
X5425Y1882D02*
X5432Y1882D01*
X0Y1881D02*
X7Y1881D01*
X5425Y1881D02*
X5432Y1881D01*
X0Y1880D02*
X7Y1880D01*
X5425Y1880D02*
X5432Y1880D01*
X0Y1879D02*
X7Y1879D01*
X5425Y1879D02*
X5432Y1879D01*
X0Y1878D02*
X7Y1878D01*
X5425Y1878D02*
X5432Y1878D01*
X0Y1877D02*
X7Y1877D01*
X5425Y1877D02*
X5432Y1877D01*
X0Y1876D02*
X7Y1876D01*
X5425Y1876D02*
X5432Y1876D01*
X0Y1875D02*
X7Y1875D01*
X5425Y1875D02*
X5432Y1875D01*
X0Y1874D02*
X7Y1874D01*
X5425Y1874D02*
X5432Y1874D01*
X0Y1873D02*
X7Y1873D01*
X5425Y1873D02*
X5432Y1873D01*
X0Y1872D02*
X7Y1872D01*
X5425Y1872D02*
X5432Y1872D01*
X0Y1871D02*
X7Y1871D01*
X5425Y1871D02*
X5432Y1871D01*
X0Y1870D02*
X7Y1870D01*
X5425Y1870D02*
X5432Y1870D01*
X0Y1869D02*
X7Y1869D01*
X5425Y1869D02*
X5432Y1869D01*
X0Y1868D02*
X7Y1868D01*
X5425Y1868D02*
X5432Y1868D01*
X0Y1867D02*
X7Y1867D01*
X5425Y1867D02*
X5432Y1867D01*
X0Y1866D02*
X7Y1866D01*
X5425Y1866D02*
X5432Y1866D01*
X0Y1865D02*
X7Y1865D01*
X5425Y1865D02*
X5432Y1865D01*
X0Y1864D02*
X7Y1864D01*
X5425Y1864D02*
X5432Y1864D01*
X0Y1863D02*
X7Y1863D01*
X5425Y1863D02*
X5432Y1863D01*
X0Y1862D02*
X7Y1862D01*
X5425Y1862D02*
X5432Y1862D01*
X0Y1861D02*
X7Y1861D01*
X5425Y1861D02*
X5432Y1861D01*
X0Y1860D02*
X7Y1860D01*
X5425Y1860D02*
X5432Y1860D01*
X0Y1859D02*
X7Y1859D01*
X5425Y1859D02*
X5432Y1859D01*
X0Y1858D02*
X7Y1858D01*
X5425Y1858D02*
X5432Y1858D01*
X0Y1857D02*
X7Y1857D01*
X5425Y1857D02*
X5432Y1857D01*
X0Y1856D02*
X7Y1856D01*
X5425Y1856D02*
X5432Y1856D01*
X0Y1855D02*
X7Y1855D01*
X5425Y1855D02*
X5432Y1855D01*
X0Y1854D02*
X7Y1854D01*
X5425Y1854D02*
X5432Y1854D01*
X0Y1853D02*
X7Y1853D01*
X5425Y1853D02*
X5432Y1853D01*
X0Y1852D02*
X7Y1852D01*
X5425Y1852D02*
X5432Y1852D01*
X0Y1851D02*
X7Y1851D01*
X5425Y1851D02*
X5432Y1851D01*
X0Y1850D02*
X7Y1850D01*
X5425Y1850D02*
X5432Y1850D01*
X0Y1849D02*
X7Y1849D01*
X5425Y1849D02*
X5432Y1849D01*
X0Y1848D02*
X7Y1848D01*
X5425Y1848D02*
X5432Y1848D01*
X0Y1847D02*
X7Y1847D01*
X5425Y1847D02*
X5432Y1847D01*
X0Y1846D02*
X7Y1846D01*
X5425Y1846D02*
X5432Y1846D01*
X0Y1845D02*
X7Y1845D01*
X5425Y1845D02*
X5432Y1845D01*
X0Y1844D02*
X7Y1844D01*
X5425Y1844D02*
X5432Y1844D01*
X0Y1843D02*
X7Y1843D01*
X5425Y1843D02*
X5432Y1843D01*
X0Y1842D02*
X7Y1842D01*
X5425Y1842D02*
X5432Y1842D01*
X0Y1841D02*
X7Y1841D01*
X5425Y1841D02*
X5432Y1841D01*
X0Y1840D02*
X7Y1840D01*
X5425Y1840D02*
X5432Y1840D01*
X0Y1839D02*
X7Y1839D01*
X5425Y1839D02*
X5432Y1839D01*
X0Y1838D02*
X7Y1838D01*
X5425Y1838D02*
X5432Y1838D01*
X0Y1837D02*
X7Y1837D01*
X5425Y1837D02*
X5432Y1837D01*
X0Y1836D02*
X7Y1836D01*
X5425Y1836D02*
X5432Y1836D01*
X0Y1835D02*
X7Y1835D01*
X5425Y1835D02*
X5432Y1835D01*
X0Y1834D02*
X7Y1834D01*
X5425Y1834D02*
X5432Y1834D01*
X0Y1833D02*
X7Y1833D01*
X5425Y1833D02*
X5432Y1833D01*
X0Y1832D02*
X7Y1832D01*
X5425Y1832D02*
X5432Y1832D01*
X0Y1831D02*
X7Y1831D01*
X5425Y1831D02*
X5432Y1831D01*
X0Y1830D02*
X7Y1830D01*
X5425Y1830D02*
X5432Y1830D01*
X0Y1829D02*
X7Y1829D01*
X5425Y1829D02*
X5432Y1829D01*
X0Y1828D02*
X7Y1828D01*
X5425Y1828D02*
X5432Y1828D01*
X0Y1827D02*
X7Y1827D01*
X5425Y1827D02*
X5432Y1827D01*
X0Y1826D02*
X7Y1826D01*
X5425Y1826D02*
X5432Y1826D01*
X0Y1825D02*
X7Y1825D01*
X5425Y1825D02*
X5432Y1825D01*
X0Y1824D02*
X7Y1824D01*
X5425Y1824D02*
X5432Y1824D01*
X0Y1823D02*
X7Y1823D01*
X5425Y1823D02*
X5432Y1823D01*
X0Y1822D02*
X7Y1822D01*
X5425Y1822D02*
X5432Y1822D01*
X0Y1821D02*
X7Y1821D01*
X5425Y1821D02*
X5432Y1821D01*
X0Y1820D02*
X7Y1820D01*
X5425Y1820D02*
X5432Y1820D01*
X0Y1819D02*
X7Y1819D01*
X5425Y1819D02*
X5432Y1819D01*
X0Y1818D02*
X7Y1818D01*
X5425Y1818D02*
X5432Y1818D01*
X0Y1817D02*
X7Y1817D01*
X5425Y1817D02*
X5432Y1817D01*
X0Y1816D02*
X7Y1816D01*
X5425Y1816D02*
X5432Y1816D01*
X0Y1815D02*
X7Y1815D01*
X5425Y1815D02*
X5432Y1815D01*
X0Y1814D02*
X7Y1814D01*
X5425Y1814D02*
X5432Y1814D01*
X0Y1813D02*
X7Y1813D01*
X5425Y1813D02*
X5432Y1813D01*
X0Y1812D02*
X7Y1812D01*
X5425Y1812D02*
X5432Y1812D01*
X0Y1811D02*
X7Y1811D01*
X5425Y1811D02*
X5432Y1811D01*
X0Y1810D02*
X7Y1810D01*
X5425Y1810D02*
X5432Y1810D01*
X0Y1809D02*
X7Y1809D01*
X5425Y1809D02*
X5432Y1809D01*
X0Y1808D02*
X7Y1808D01*
X5425Y1808D02*
X5432Y1808D01*
X0Y1807D02*
X7Y1807D01*
X5425Y1807D02*
X5432Y1807D01*
X0Y1806D02*
X7Y1806D01*
X5425Y1806D02*
X5432Y1806D01*
X0Y1805D02*
X7Y1805D01*
X5425Y1805D02*
X5432Y1805D01*
X0Y1804D02*
X7Y1804D01*
X5425Y1804D02*
X5432Y1804D01*
X0Y1803D02*
X7Y1803D01*
X5425Y1803D02*
X5432Y1803D01*
X0Y1802D02*
X7Y1802D01*
X5425Y1802D02*
X5432Y1802D01*
X0Y1801D02*
X7Y1801D01*
X5425Y1801D02*
X5432Y1801D01*
X0Y1800D02*
X7Y1800D01*
X5425Y1800D02*
X5432Y1800D01*
X0Y1799D02*
X7Y1799D01*
X5425Y1799D02*
X5432Y1799D01*
X0Y1798D02*
X7Y1798D01*
X5425Y1798D02*
X5432Y1798D01*
X0Y1797D02*
X7Y1797D01*
X5425Y1797D02*
X5432Y1797D01*
X0Y1796D02*
X7Y1796D01*
X5425Y1796D02*
X5432Y1796D01*
X0Y1795D02*
X7Y1795D01*
X5425Y1795D02*
X5432Y1795D01*
X0Y1794D02*
X7Y1794D01*
X5425Y1794D02*
X5432Y1794D01*
X0Y1793D02*
X7Y1793D01*
X5425Y1793D02*
X5432Y1793D01*
X0Y1792D02*
X7Y1792D01*
X5425Y1792D02*
X5432Y1792D01*
X0Y1791D02*
X7Y1791D01*
X5425Y1791D02*
X5432Y1791D01*
X0Y1790D02*
X7Y1790D01*
X5425Y1790D02*
X5432Y1790D01*
X0Y1789D02*
X7Y1789D01*
X5425Y1789D02*
X5432Y1789D01*
X0Y1788D02*
X7Y1788D01*
X5425Y1788D02*
X5432Y1788D01*
X0Y1787D02*
X7Y1787D01*
X5425Y1787D02*
X5432Y1787D01*
X0Y1786D02*
X7Y1786D01*
X5425Y1786D02*
X5432Y1786D01*
X0Y1785D02*
X7Y1785D01*
X5425Y1785D02*
X5432Y1785D01*
X0Y1784D02*
X7Y1784D01*
X5425Y1784D02*
X5432Y1784D01*
X0Y1783D02*
X7Y1783D01*
X5425Y1783D02*
X5432Y1783D01*
X0Y1782D02*
X7Y1782D01*
X5425Y1782D02*
X5432Y1782D01*
X0Y1781D02*
X7Y1781D01*
X5425Y1781D02*
X5432Y1781D01*
X0Y1780D02*
X7Y1780D01*
X5425Y1780D02*
X5432Y1780D01*
X0Y1779D02*
X7Y1779D01*
X5425Y1779D02*
X5432Y1779D01*
X0Y1778D02*
X7Y1778D01*
X5425Y1778D02*
X5432Y1778D01*
X0Y1777D02*
X7Y1777D01*
X5425Y1777D02*
X5432Y1777D01*
X0Y1776D02*
X7Y1776D01*
X5425Y1776D02*
X5432Y1776D01*
X0Y1775D02*
X7Y1775D01*
X5425Y1775D02*
X5432Y1775D01*
X0Y1774D02*
X7Y1774D01*
X5425Y1774D02*
X5432Y1774D01*
X0Y1773D02*
X7Y1773D01*
X5425Y1773D02*
X5432Y1773D01*
X0Y1772D02*
X7Y1772D01*
X5425Y1772D02*
X5432Y1772D01*
X0Y1771D02*
X7Y1771D01*
X5425Y1771D02*
X5432Y1771D01*
X0Y1770D02*
X7Y1770D01*
X5425Y1770D02*
X5432Y1770D01*
X0Y1769D02*
X7Y1769D01*
X5425Y1769D02*
X5432Y1769D01*
X0Y1768D02*
X7Y1768D01*
X5425Y1768D02*
X5432Y1768D01*
X0Y1767D02*
X7Y1767D01*
X5425Y1767D02*
X5432Y1767D01*
X0Y1766D02*
X7Y1766D01*
X5425Y1766D02*
X5432Y1766D01*
X0Y1765D02*
X7Y1765D01*
X5425Y1765D02*
X5432Y1765D01*
X0Y1764D02*
X7Y1764D01*
X5425Y1764D02*
X5432Y1764D01*
X0Y1763D02*
X7Y1763D01*
X5425Y1763D02*
X5432Y1763D01*
X0Y1762D02*
X7Y1762D01*
X5425Y1762D02*
X5432Y1762D01*
X0Y1761D02*
X7Y1761D01*
X5425Y1761D02*
X5432Y1761D01*
X0Y1760D02*
X7Y1760D01*
X5425Y1760D02*
X5432Y1760D01*
X0Y1759D02*
X7Y1759D01*
X5425Y1759D02*
X5432Y1759D01*
X0Y1758D02*
X7Y1758D01*
X5425Y1758D02*
X5432Y1758D01*
X0Y1757D02*
X7Y1757D01*
X5425Y1757D02*
X5432Y1757D01*
X0Y1756D02*
X7Y1756D01*
X5425Y1756D02*
X5432Y1756D01*
X0Y1755D02*
X7Y1755D01*
X5425Y1755D02*
X5432Y1755D01*
X0Y1754D02*
X7Y1754D01*
X5425Y1754D02*
X5432Y1754D01*
X0Y1753D02*
X7Y1753D01*
X5425Y1753D02*
X5432Y1753D01*
X0Y1752D02*
X7Y1752D01*
X5425Y1752D02*
X5432Y1752D01*
X0Y1751D02*
X7Y1751D01*
X5425Y1751D02*
X5432Y1751D01*
X0Y1750D02*
X7Y1750D01*
X5425Y1750D02*
X5432Y1750D01*
X0Y1749D02*
X7Y1749D01*
X5425Y1749D02*
X5432Y1749D01*
X0Y1748D02*
X7Y1748D01*
X5425Y1748D02*
X5432Y1748D01*
X0Y1747D02*
X7Y1747D01*
X5425Y1747D02*
X5432Y1747D01*
X0Y1746D02*
X7Y1746D01*
X5425Y1746D02*
X5432Y1746D01*
X0Y1745D02*
X7Y1745D01*
X5425Y1745D02*
X5432Y1745D01*
X0Y1744D02*
X7Y1744D01*
X5425Y1744D02*
X5432Y1744D01*
X0Y1743D02*
X7Y1743D01*
X5425Y1743D02*
X5432Y1743D01*
X0Y1742D02*
X7Y1742D01*
X5425Y1742D02*
X5432Y1742D01*
X0Y1741D02*
X7Y1741D01*
X5425Y1741D02*
X5432Y1741D01*
X0Y1740D02*
X7Y1740D01*
X5425Y1740D02*
X5432Y1740D01*
X0Y1739D02*
X7Y1739D01*
X5425Y1739D02*
X5432Y1739D01*
X0Y1738D02*
X7Y1738D01*
X5425Y1738D02*
X5432Y1738D01*
X0Y1737D02*
X7Y1737D01*
X5425Y1737D02*
X5432Y1737D01*
X0Y1736D02*
X7Y1736D01*
X5425Y1736D02*
X5432Y1736D01*
X0Y1735D02*
X7Y1735D01*
X5425Y1735D02*
X5432Y1735D01*
X0Y1734D02*
X7Y1734D01*
X5425Y1734D02*
X5432Y1734D01*
X0Y1733D02*
X7Y1733D01*
X5425Y1733D02*
X5432Y1733D01*
X0Y1732D02*
X7Y1732D01*
X5425Y1732D02*
X5432Y1732D01*
X0Y1731D02*
X7Y1731D01*
X5425Y1731D02*
X5432Y1731D01*
X0Y1730D02*
X7Y1730D01*
X5425Y1730D02*
X5432Y1730D01*
X0Y1729D02*
X7Y1729D01*
X5425Y1729D02*
X5432Y1729D01*
X0Y1728D02*
X7Y1728D01*
X5425Y1728D02*
X5432Y1728D01*
X0Y1727D02*
X7Y1727D01*
X5425Y1727D02*
X5432Y1727D01*
X0Y1726D02*
X7Y1726D01*
X5425Y1726D02*
X5432Y1726D01*
X0Y1725D02*
X7Y1725D01*
X5425Y1725D02*
X5432Y1725D01*
X0Y1724D02*
X7Y1724D01*
X5425Y1724D02*
X5432Y1724D01*
X0Y1723D02*
X7Y1723D01*
X5425Y1723D02*
X5432Y1723D01*
X0Y1722D02*
X7Y1722D01*
X5425Y1722D02*
X5432Y1722D01*
X0Y1721D02*
X7Y1721D01*
X5425Y1721D02*
X5432Y1721D01*
X0Y1720D02*
X7Y1720D01*
X5425Y1720D02*
X5432Y1720D01*
X0Y1719D02*
X7Y1719D01*
X5425Y1719D02*
X5432Y1719D01*
X0Y1718D02*
X7Y1718D01*
X5425Y1718D02*
X5432Y1718D01*
X0Y1717D02*
X7Y1717D01*
X5425Y1717D02*
X5432Y1717D01*
X0Y1716D02*
X7Y1716D01*
X5425Y1716D02*
X5432Y1716D01*
X0Y1715D02*
X7Y1715D01*
X5425Y1715D02*
X5432Y1715D01*
X0Y1714D02*
X7Y1714D01*
X5425Y1714D02*
X5432Y1714D01*
X0Y1713D02*
X7Y1713D01*
X5425Y1713D02*
X5432Y1713D01*
X0Y1712D02*
X7Y1712D01*
X5425Y1712D02*
X5432Y1712D01*
X0Y1711D02*
X7Y1711D01*
X5425Y1711D02*
X5432Y1711D01*
X0Y1710D02*
X7Y1710D01*
X5425Y1710D02*
X5432Y1710D01*
X0Y1709D02*
X7Y1709D01*
X5425Y1709D02*
X5432Y1709D01*
X0Y1708D02*
X7Y1708D01*
X5425Y1708D02*
X5432Y1708D01*
X0Y1707D02*
X7Y1707D01*
X5425Y1707D02*
X5432Y1707D01*
X0Y1706D02*
X7Y1706D01*
X5425Y1706D02*
X5432Y1706D01*
X0Y1705D02*
X7Y1705D01*
X5425Y1705D02*
X5432Y1705D01*
X0Y1704D02*
X7Y1704D01*
X5425Y1704D02*
X5432Y1704D01*
X0Y1703D02*
X7Y1703D01*
X5425Y1703D02*
X5432Y1703D01*
X0Y1702D02*
X7Y1702D01*
X5425Y1702D02*
X5432Y1702D01*
X0Y1701D02*
X7Y1701D01*
X5425Y1701D02*
X5432Y1701D01*
X0Y1700D02*
X7Y1700D01*
X5425Y1700D02*
X5432Y1700D01*
X0Y1699D02*
X7Y1699D01*
X5425Y1699D02*
X5432Y1699D01*
X0Y1698D02*
X7Y1698D01*
X5425Y1698D02*
X5432Y1698D01*
X0Y1697D02*
X7Y1697D01*
X5425Y1697D02*
X5432Y1697D01*
X0Y1696D02*
X7Y1696D01*
X5425Y1696D02*
X5432Y1696D01*
X0Y1695D02*
X7Y1695D01*
X5425Y1695D02*
X5432Y1695D01*
X0Y1694D02*
X7Y1694D01*
X5425Y1694D02*
X5432Y1694D01*
X0Y1693D02*
X7Y1693D01*
X5425Y1693D02*
X5432Y1693D01*
X0Y1692D02*
X7Y1692D01*
X5425Y1692D02*
X5432Y1692D01*
X0Y1691D02*
X7Y1691D01*
X5425Y1691D02*
X5432Y1691D01*
X0Y1690D02*
X7Y1690D01*
X5425Y1690D02*
X5432Y1690D01*
X0Y1689D02*
X7Y1689D01*
X5425Y1689D02*
X5432Y1689D01*
X0Y1688D02*
X7Y1688D01*
X5425Y1688D02*
X5432Y1688D01*
X0Y1687D02*
X7Y1687D01*
X5425Y1687D02*
X5432Y1687D01*
X0Y1686D02*
X7Y1686D01*
X5425Y1686D02*
X5432Y1686D01*
X0Y1685D02*
X7Y1685D01*
X5425Y1685D02*
X5432Y1685D01*
X0Y1684D02*
X7Y1684D01*
X5425Y1684D02*
X5432Y1684D01*
X0Y1683D02*
X7Y1683D01*
X5425Y1683D02*
X5432Y1683D01*
X0Y1682D02*
X7Y1682D01*
X5425Y1682D02*
X5432Y1682D01*
X0Y1681D02*
X7Y1681D01*
X5425Y1681D02*
X5432Y1681D01*
X0Y1680D02*
X7Y1680D01*
X5425Y1680D02*
X5432Y1680D01*
X0Y1679D02*
X7Y1679D01*
X5425Y1679D02*
X5432Y1679D01*
X0Y1678D02*
X7Y1678D01*
X5425Y1678D02*
X5432Y1678D01*
X0Y1677D02*
X7Y1677D01*
X5425Y1677D02*
X5432Y1677D01*
X0Y1676D02*
X7Y1676D01*
X5425Y1676D02*
X5432Y1676D01*
X0Y1675D02*
X7Y1675D01*
X5425Y1675D02*
X5432Y1675D01*
X0Y1674D02*
X7Y1674D01*
X5425Y1674D02*
X5432Y1674D01*
X0Y1673D02*
X7Y1673D01*
X5425Y1673D02*
X5432Y1673D01*
X0Y1672D02*
X7Y1672D01*
X5425Y1672D02*
X5432Y1672D01*
X0Y1671D02*
X7Y1671D01*
X5425Y1671D02*
X5432Y1671D01*
X0Y1670D02*
X7Y1670D01*
X5425Y1670D02*
X5432Y1670D01*
X0Y1669D02*
X7Y1669D01*
X5425Y1669D02*
X5432Y1669D01*
X0Y1668D02*
X7Y1668D01*
X5425Y1668D02*
X5432Y1668D01*
X0Y1667D02*
X7Y1667D01*
X5425Y1667D02*
X5432Y1667D01*
X0Y1666D02*
X7Y1666D01*
X5425Y1666D02*
X5432Y1666D01*
X0Y1665D02*
X7Y1665D01*
X5425Y1665D02*
X5432Y1665D01*
X0Y1664D02*
X7Y1664D01*
X5425Y1664D02*
X5432Y1664D01*
X0Y1663D02*
X7Y1663D01*
X5425Y1663D02*
X5432Y1663D01*
X0Y1662D02*
X7Y1662D01*
X5425Y1662D02*
X5432Y1662D01*
X0Y1661D02*
X7Y1661D01*
X5425Y1661D02*
X5432Y1661D01*
X0Y1660D02*
X7Y1660D01*
X5425Y1660D02*
X5432Y1660D01*
X0Y1659D02*
X7Y1659D01*
X5425Y1659D02*
X5432Y1659D01*
X0Y1658D02*
X7Y1658D01*
X5425Y1658D02*
X5432Y1658D01*
X0Y1657D02*
X7Y1657D01*
X5425Y1657D02*
X5432Y1657D01*
X0Y1656D02*
X7Y1656D01*
X5425Y1656D02*
X5432Y1656D01*
X0Y1655D02*
X7Y1655D01*
X5425Y1655D02*
X5432Y1655D01*
X0Y1654D02*
X7Y1654D01*
X5425Y1654D02*
X5432Y1654D01*
X0Y1653D02*
X7Y1653D01*
X5425Y1653D02*
X5432Y1653D01*
X0Y1652D02*
X7Y1652D01*
X5425Y1652D02*
X5432Y1652D01*
X0Y1651D02*
X7Y1651D01*
X5425Y1651D02*
X5432Y1651D01*
X0Y1650D02*
X7Y1650D01*
X5425Y1650D02*
X5432Y1650D01*
X0Y1649D02*
X7Y1649D01*
X5425Y1649D02*
X5432Y1649D01*
X0Y1648D02*
X7Y1648D01*
X5425Y1648D02*
X5432Y1648D01*
X0Y1647D02*
X7Y1647D01*
X5425Y1647D02*
X5432Y1647D01*
X0Y1646D02*
X7Y1646D01*
X5425Y1646D02*
X5432Y1646D01*
X0Y1645D02*
X7Y1645D01*
X5425Y1645D02*
X5432Y1645D01*
X0Y1644D02*
X7Y1644D01*
X5425Y1644D02*
X5432Y1644D01*
X0Y1643D02*
X7Y1643D01*
X5425Y1643D02*
X5432Y1643D01*
X0Y1642D02*
X7Y1642D01*
X5425Y1642D02*
X5432Y1642D01*
X0Y1641D02*
X7Y1641D01*
X5425Y1641D02*
X5432Y1641D01*
X0Y1640D02*
X7Y1640D01*
X5425Y1640D02*
X5432Y1640D01*
X0Y1639D02*
X7Y1639D01*
X5425Y1639D02*
X5432Y1639D01*
X0Y1638D02*
X7Y1638D01*
X5425Y1638D02*
X5432Y1638D01*
X0Y1637D02*
X7Y1637D01*
X5425Y1637D02*
X5432Y1637D01*
X0Y1636D02*
X7Y1636D01*
X5425Y1636D02*
X5432Y1636D01*
X0Y1635D02*
X7Y1635D01*
X5425Y1635D02*
X5432Y1635D01*
X0Y1634D02*
X7Y1634D01*
X5425Y1634D02*
X5432Y1634D01*
X0Y1633D02*
X7Y1633D01*
X5425Y1633D02*
X5432Y1633D01*
X0Y1632D02*
X7Y1632D01*
X5425Y1632D02*
X5432Y1632D01*
X0Y1631D02*
X7Y1631D01*
X5425Y1631D02*
X5432Y1631D01*
X0Y1630D02*
X7Y1630D01*
X5425Y1630D02*
X5432Y1630D01*
X0Y1629D02*
X7Y1629D01*
X5425Y1629D02*
X5432Y1629D01*
X0Y1628D02*
X7Y1628D01*
X5425Y1628D02*
X5432Y1628D01*
X0Y1627D02*
X7Y1627D01*
X5425Y1627D02*
X5432Y1627D01*
X0Y1626D02*
X7Y1626D01*
X5425Y1626D02*
X5432Y1626D01*
X0Y1625D02*
X7Y1625D01*
X5425Y1625D02*
X5432Y1625D01*
X0Y1624D02*
X7Y1624D01*
X5425Y1624D02*
X5432Y1624D01*
X0Y1623D02*
X7Y1623D01*
X5425Y1623D02*
X5432Y1623D01*
X0Y1622D02*
X7Y1622D01*
X5425Y1622D02*
X5432Y1622D01*
X0Y1621D02*
X7Y1621D01*
X5425Y1621D02*
X5432Y1621D01*
X0Y1620D02*
X7Y1620D01*
X5425Y1620D02*
X5432Y1620D01*
X0Y1619D02*
X7Y1619D01*
X5425Y1619D02*
X5432Y1619D01*
X0Y1618D02*
X7Y1618D01*
X5425Y1618D02*
X5432Y1618D01*
X0Y1617D02*
X7Y1617D01*
X5425Y1617D02*
X5432Y1617D01*
X0Y1616D02*
X7Y1616D01*
X5425Y1616D02*
X5432Y1616D01*
X0Y1615D02*
X7Y1615D01*
X5425Y1615D02*
X5432Y1615D01*
X0Y1614D02*
X7Y1614D01*
X5425Y1614D02*
X5432Y1614D01*
X0Y1613D02*
X7Y1613D01*
X5425Y1613D02*
X5432Y1613D01*
X0Y1612D02*
X7Y1612D01*
X5425Y1612D02*
X5432Y1612D01*
X0Y1611D02*
X7Y1611D01*
X5425Y1611D02*
X5432Y1611D01*
X0Y1610D02*
X7Y1610D01*
X5425Y1610D02*
X5432Y1610D01*
X0Y1609D02*
X7Y1609D01*
X5425Y1609D02*
X5432Y1609D01*
X0Y1608D02*
X7Y1608D01*
X5425Y1608D02*
X5432Y1608D01*
X0Y1607D02*
X7Y1607D01*
X5425Y1607D02*
X5432Y1607D01*
X0Y1606D02*
X7Y1606D01*
X5425Y1606D02*
X5432Y1606D01*
X0Y1605D02*
X7Y1605D01*
X5425Y1605D02*
X5432Y1605D01*
X0Y1604D02*
X7Y1604D01*
X5425Y1604D02*
X5432Y1604D01*
X0Y1603D02*
X7Y1603D01*
X5425Y1603D02*
X5432Y1603D01*
X0Y1602D02*
X7Y1602D01*
X5425Y1602D02*
X5432Y1602D01*
X0Y1601D02*
X7Y1601D01*
X5425Y1601D02*
X5432Y1601D01*
X0Y1600D02*
X7Y1600D01*
X5425Y1600D02*
X5432Y1600D01*
X0Y1599D02*
X7Y1599D01*
X5425Y1599D02*
X5432Y1599D01*
X0Y1598D02*
X7Y1598D01*
X5425Y1598D02*
X5432Y1598D01*
X0Y1597D02*
X7Y1597D01*
X5425Y1597D02*
X5432Y1597D01*
X0Y1596D02*
X7Y1596D01*
X5425Y1596D02*
X5432Y1596D01*
X0Y1595D02*
X7Y1595D01*
X5425Y1595D02*
X5432Y1595D01*
X0Y1594D02*
X7Y1594D01*
X5425Y1594D02*
X5432Y1594D01*
X0Y1593D02*
X7Y1593D01*
X5425Y1593D02*
X5432Y1593D01*
X0Y1592D02*
X7Y1592D01*
X5425Y1592D02*
X5432Y1592D01*
X0Y1591D02*
X7Y1591D01*
X5425Y1591D02*
X5432Y1591D01*
X0Y1590D02*
X7Y1590D01*
X5425Y1590D02*
X5432Y1590D01*
X0Y1589D02*
X7Y1589D01*
X5425Y1589D02*
X5432Y1589D01*
X0Y1588D02*
X7Y1588D01*
X5425Y1588D02*
X5432Y1588D01*
X0Y1587D02*
X7Y1587D01*
X5425Y1587D02*
X5432Y1587D01*
X0Y1586D02*
X7Y1586D01*
X5425Y1586D02*
X5432Y1586D01*
X0Y1585D02*
X7Y1585D01*
X5425Y1585D02*
X5432Y1585D01*
X0Y1584D02*
X7Y1584D01*
X5425Y1584D02*
X5432Y1584D01*
X0Y1583D02*
X7Y1583D01*
X5425Y1583D02*
X5432Y1583D01*
X0Y1582D02*
X7Y1582D01*
X5425Y1582D02*
X5432Y1582D01*
X0Y1581D02*
X7Y1581D01*
X5425Y1581D02*
X5432Y1581D01*
X0Y1580D02*
X7Y1580D01*
X5425Y1580D02*
X5432Y1580D01*
X0Y1579D02*
X7Y1579D01*
X5425Y1579D02*
X5432Y1579D01*
X0Y1578D02*
X7Y1578D01*
X5425Y1578D02*
X5432Y1578D01*
X0Y1577D02*
X7Y1577D01*
X5425Y1577D02*
X5432Y1577D01*
X0Y1576D02*
X7Y1576D01*
X5425Y1576D02*
X5432Y1576D01*
X0Y1575D02*
X7Y1575D01*
X5425Y1575D02*
X5432Y1575D01*
X0Y1574D02*
X7Y1574D01*
X5425Y1574D02*
X5432Y1574D01*
X0Y1573D02*
X7Y1573D01*
X5425Y1573D02*
X5432Y1573D01*
X0Y1572D02*
X7Y1572D01*
X5425Y1572D02*
X5432Y1572D01*
X0Y1571D02*
X7Y1571D01*
X5425Y1571D02*
X5432Y1571D01*
X0Y1570D02*
X7Y1570D01*
X5425Y1570D02*
X5432Y1570D01*
X0Y1569D02*
X7Y1569D01*
X5425Y1569D02*
X5432Y1569D01*
X0Y1568D02*
X7Y1568D01*
X5425Y1568D02*
X5432Y1568D01*
X0Y1567D02*
X7Y1567D01*
X5425Y1567D02*
X5432Y1567D01*
X0Y1566D02*
X7Y1566D01*
X5425Y1566D02*
X5432Y1566D01*
X0Y1565D02*
X7Y1565D01*
X5425Y1565D02*
X5432Y1565D01*
X0Y1564D02*
X7Y1564D01*
X5425Y1564D02*
X5432Y1564D01*
X0Y1563D02*
X7Y1563D01*
X5425Y1563D02*
X5432Y1563D01*
X0Y1562D02*
X7Y1562D01*
X5425Y1562D02*
X5432Y1562D01*
X0Y1561D02*
X7Y1561D01*
X5425Y1561D02*
X5432Y1561D01*
X0Y1560D02*
X7Y1560D01*
X5425Y1560D02*
X5432Y1560D01*
X0Y1559D02*
X7Y1559D01*
X5425Y1559D02*
X5432Y1559D01*
X0Y1558D02*
X7Y1558D01*
X5425Y1558D02*
X5432Y1558D01*
X0Y1557D02*
X7Y1557D01*
X5425Y1557D02*
X5432Y1557D01*
X0Y1556D02*
X7Y1556D01*
X5425Y1556D02*
X5432Y1556D01*
X0Y1555D02*
X7Y1555D01*
X5425Y1555D02*
X5432Y1555D01*
X0Y1554D02*
X7Y1554D01*
X5425Y1554D02*
X5432Y1554D01*
X0Y1553D02*
X7Y1553D01*
X5425Y1553D02*
X5432Y1553D01*
X0Y1552D02*
X7Y1552D01*
X5425Y1552D02*
X5432Y1552D01*
X0Y1551D02*
X7Y1551D01*
X5425Y1551D02*
X5432Y1551D01*
X0Y1550D02*
X7Y1550D01*
X5425Y1550D02*
X5432Y1550D01*
X0Y1549D02*
X7Y1549D01*
X5425Y1549D02*
X5432Y1549D01*
X0Y1548D02*
X7Y1548D01*
X5425Y1548D02*
X5432Y1548D01*
X0Y1547D02*
X7Y1547D01*
X5425Y1547D02*
X5432Y1547D01*
X0Y1546D02*
X7Y1546D01*
X5425Y1546D02*
X5432Y1546D01*
X0Y1545D02*
X7Y1545D01*
X5425Y1545D02*
X5432Y1545D01*
X0Y1544D02*
X7Y1544D01*
X5425Y1544D02*
X5432Y1544D01*
X0Y1543D02*
X7Y1543D01*
X5425Y1543D02*
X5432Y1543D01*
X0Y1542D02*
X7Y1542D01*
X5425Y1542D02*
X5432Y1542D01*
X0Y1541D02*
X7Y1541D01*
X5425Y1541D02*
X5432Y1541D01*
X0Y1540D02*
X7Y1540D01*
X5425Y1540D02*
X5432Y1540D01*
X0Y1539D02*
X7Y1539D01*
X5425Y1539D02*
X5432Y1539D01*
X0Y1538D02*
X7Y1538D01*
X5425Y1538D02*
X5432Y1538D01*
X0Y1537D02*
X7Y1537D01*
X5425Y1537D02*
X5432Y1537D01*
X0Y1536D02*
X7Y1536D01*
X5425Y1536D02*
X5432Y1536D01*
X0Y1535D02*
X7Y1535D01*
X5425Y1535D02*
X5432Y1535D01*
X0Y1534D02*
X7Y1534D01*
X5425Y1534D02*
X5432Y1534D01*
X0Y1533D02*
X7Y1533D01*
X5425Y1533D02*
X5432Y1533D01*
X0Y1532D02*
X7Y1532D01*
X5425Y1532D02*
X5432Y1532D01*
X0Y1531D02*
X7Y1531D01*
X5425Y1531D02*
X5432Y1531D01*
X0Y1530D02*
X7Y1530D01*
X5425Y1530D02*
X5432Y1530D01*
X0Y1529D02*
X7Y1529D01*
X5425Y1529D02*
X5432Y1529D01*
X0Y1528D02*
X7Y1528D01*
X5425Y1528D02*
X5432Y1528D01*
X0Y1527D02*
X7Y1527D01*
X5425Y1527D02*
X5432Y1527D01*
X0Y1526D02*
X7Y1526D01*
X5425Y1526D02*
X5432Y1526D01*
X0Y1525D02*
X7Y1525D01*
X5425Y1525D02*
X5432Y1525D01*
X0Y1524D02*
X7Y1524D01*
X5425Y1524D02*
X5432Y1524D01*
X0Y1523D02*
X7Y1523D01*
X5425Y1523D02*
X5432Y1523D01*
X0Y1522D02*
X7Y1522D01*
X5425Y1522D02*
X5432Y1522D01*
X0Y1521D02*
X7Y1521D01*
X5425Y1521D02*
X5432Y1521D01*
X0Y1520D02*
X7Y1520D01*
X5425Y1520D02*
X5432Y1520D01*
X0Y1519D02*
X7Y1519D01*
X5425Y1519D02*
X5432Y1519D01*
X0Y1518D02*
X7Y1518D01*
X5425Y1518D02*
X5432Y1518D01*
X0Y1517D02*
X7Y1517D01*
X5425Y1517D02*
X5432Y1517D01*
X0Y1516D02*
X7Y1516D01*
X5425Y1516D02*
X5432Y1516D01*
X0Y1515D02*
X7Y1515D01*
X5425Y1515D02*
X5432Y1515D01*
X0Y1514D02*
X7Y1514D01*
X5425Y1514D02*
X5432Y1514D01*
X0Y1513D02*
X7Y1513D01*
X5425Y1513D02*
X5432Y1513D01*
X0Y1512D02*
X7Y1512D01*
X5425Y1512D02*
X5432Y1512D01*
X0Y1511D02*
X7Y1511D01*
X5425Y1511D02*
X5432Y1511D01*
X0Y1510D02*
X7Y1510D01*
X5425Y1510D02*
X5432Y1510D01*
X0Y1509D02*
X7Y1509D01*
X5425Y1509D02*
X5432Y1509D01*
X0Y1508D02*
X7Y1508D01*
X5425Y1508D02*
X5432Y1508D01*
X0Y1507D02*
X7Y1507D01*
X5425Y1507D02*
X5432Y1507D01*
X0Y1506D02*
X7Y1506D01*
X5425Y1506D02*
X5432Y1506D01*
X0Y1505D02*
X7Y1505D01*
X5425Y1505D02*
X5432Y1505D01*
X0Y1504D02*
X7Y1504D01*
X5425Y1504D02*
X5432Y1504D01*
X0Y1503D02*
X7Y1503D01*
X5425Y1503D02*
X5432Y1503D01*
X0Y1502D02*
X7Y1502D01*
X5425Y1502D02*
X5432Y1502D01*
X0Y1501D02*
X7Y1501D01*
X5425Y1501D02*
X5432Y1501D01*
X0Y1500D02*
X7Y1500D01*
X5425Y1500D02*
X5432Y1500D01*
X0Y1499D02*
X7Y1499D01*
X5425Y1499D02*
X5432Y1499D01*
X0Y1498D02*
X7Y1498D01*
X5425Y1498D02*
X5432Y1498D01*
X0Y1497D02*
X7Y1497D01*
X5425Y1497D02*
X5432Y1497D01*
X0Y1496D02*
X7Y1496D01*
X5425Y1496D02*
X5432Y1496D01*
X0Y1495D02*
X7Y1495D01*
X5425Y1495D02*
X5432Y1495D01*
X0Y1494D02*
X7Y1494D01*
X5425Y1494D02*
X5432Y1494D01*
X0Y1493D02*
X7Y1493D01*
X5425Y1493D02*
X5432Y1493D01*
X0Y1492D02*
X7Y1492D01*
X5425Y1492D02*
X5432Y1492D01*
X0Y1491D02*
X7Y1491D01*
X5425Y1491D02*
X5432Y1491D01*
X0Y1490D02*
X7Y1490D01*
X5425Y1490D02*
X5432Y1490D01*
X0Y1489D02*
X7Y1489D01*
X5425Y1489D02*
X5432Y1489D01*
X0Y1488D02*
X7Y1488D01*
X5425Y1488D02*
X5432Y1488D01*
X0Y1487D02*
X7Y1487D01*
X5425Y1487D02*
X5432Y1487D01*
X0Y1486D02*
X7Y1486D01*
X5425Y1486D02*
X5432Y1486D01*
X0Y1485D02*
X7Y1485D01*
X5425Y1485D02*
X5432Y1485D01*
X0Y1484D02*
X7Y1484D01*
X5425Y1484D02*
X5432Y1484D01*
X0Y1483D02*
X7Y1483D01*
X5425Y1483D02*
X5432Y1483D01*
X0Y1482D02*
X7Y1482D01*
X5425Y1482D02*
X5432Y1482D01*
X0Y1481D02*
X7Y1481D01*
X5425Y1481D02*
X5432Y1481D01*
X0Y1480D02*
X7Y1480D01*
X5425Y1480D02*
X5432Y1480D01*
X0Y1479D02*
X7Y1479D01*
X5425Y1479D02*
X5432Y1479D01*
X0Y1478D02*
X7Y1478D01*
X5425Y1478D02*
X5432Y1478D01*
X0Y1477D02*
X7Y1477D01*
X5425Y1477D02*
X5432Y1477D01*
X0Y1476D02*
X7Y1476D01*
X5425Y1476D02*
X5432Y1476D01*
X0Y1475D02*
X7Y1475D01*
X5425Y1475D02*
X5432Y1475D01*
X0Y1474D02*
X7Y1474D01*
X5425Y1474D02*
X5432Y1474D01*
X0Y1473D02*
X7Y1473D01*
X5425Y1473D02*
X5432Y1473D01*
X0Y1472D02*
X7Y1472D01*
X5425Y1472D02*
X5432Y1472D01*
X0Y1471D02*
X7Y1471D01*
X5425Y1471D02*
X5432Y1471D01*
X0Y1470D02*
X7Y1470D01*
X5425Y1470D02*
X5432Y1470D01*
X0Y1469D02*
X7Y1469D01*
X5425Y1469D02*
X5432Y1469D01*
X0Y1468D02*
X7Y1468D01*
X5425Y1468D02*
X5432Y1468D01*
X0Y1467D02*
X7Y1467D01*
X5425Y1467D02*
X5432Y1467D01*
X0Y1466D02*
X7Y1466D01*
X5425Y1466D02*
X5432Y1466D01*
X0Y1465D02*
X7Y1465D01*
X5425Y1465D02*
X5432Y1465D01*
X0Y1464D02*
X7Y1464D01*
X5425Y1464D02*
X5432Y1464D01*
X0Y1463D02*
X7Y1463D01*
X5425Y1463D02*
X5432Y1463D01*
X0Y1462D02*
X7Y1462D01*
X5425Y1462D02*
X5432Y1462D01*
X0Y1461D02*
X7Y1461D01*
X5425Y1461D02*
X5432Y1461D01*
X0Y1460D02*
X7Y1460D01*
X5425Y1460D02*
X5432Y1460D01*
X0Y1459D02*
X7Y1459D01*
X5425Y1459D02*
X5432Y1459D01*
X0Y1458D02*
X7Y1458D01*
X5425Y1458D02*
X5432Y1458D01*
X0Y1457D02*
X7Y1457D01*
X5425Y1457D02*
X5432Y1457D01*
X0Y1456D02*
X7Y1456D01*
X5425Y1456D02*
X5432Y1456D01*
X0Y1455D02*
X7Y1455D01*
X5425Y1455D02*
X5432Y1455D01*
X0Y1454D02*
X7Y1454D01*
X5425Y1454D02*
X5432Y1454D01*
X0Y1453D02*
X7Y1453D01*
X5425Y1453D02*
X5432Y1453D01*
X0Y1452D02*
X7Y1452D01*
X5425Y1452D02*
X5432Y1452D01*
X0Y1451D02*
X7Y1451D01*
X5425Y1451D02*
X5432Y1451D01*
X0Y1450D02*
X7Y1450D01*
X5425Y1450D02*
X5432Y1450D01*
X0Y1449D02*
X7Y1449D01*
X5425Y1449D02*
X5432Y1449D01*
X0Y1448D02*
X7Y1448D01*
X5425Y1448D02*
X5432Y1448D01*
X0Y1447D02*
X7Y1447D01*
X5425Y1447D02*
X5432Y1447D01*
X0Y1446D02*
X7Y1446D01*
X5425Y1446D02*
X5432Y1446D01*
X0Y1445D02*
X7Y1445D01*
X5425Y1445D02*
X5432Y1445D01*
X0Y1444D02*
X7Y1444D01*
X5425Y1444D02*
X5432Y1444D01*
X0Y1443D02*
X7Y1443D01*
X5425Y1443D02*
X5432Y1443D01*
X0Y1442D02*
X7Y1442D01*
X5425Y1442D02*
X5432Y1442D01*
X0Y1441D02*
X7Y1441D01*
X5425Y1441D02*
X5432Y1441D01*
X0Y1440D02*
X7Y1440D01*
X5425Y1440D02*
X5432Y1440D01*
X0Y1439D02*
X7Y1439D01*
X5425Y1439D02*
X5432Y1439D01*
X0Y1438D02*
X7Y1438D01*
X5425Y1438D02*
X5432Y1438D01*
X0Y1437D02*
X7Y1437D01*
X5425Y1437D02*
X5432Y1437D01*
X0Y1436D02*
X7Y1436D01*
X5425Y1436D02*
X5432Y1436D01*
X0Y1435D02*
X7Y1435D01*
X5425Y1435D02*
X5432Y1435D01*
X0Y1434D02*
X7Y1434D01*
X5425Y1434D02*
X5432Y1434D01*
X0Y1433D02*
X7Y1433D01*
X5425Y1433D02*
X5432Y1433D01*
X0Y1432D02*
X7Y1432D01*
X5425Y1432D02*
X5432Y1432D01*
X0Y1431D02*
X7Y1431D01*
X5425Y1431D02*
X5432Y1431D01*
X0Y1430D02*
X7Y1430D01*
X5425Y1430D02*
X5432Y1430D01*
X0Y1429D02*
X7Y1429D01*
X5425Y1429D02*
X5432Y1429D01*
X0Y1428D02*
X7Y1428D01*
X5425Y1428D02*
X5432Y1428D01*
X0Y1427D02*
X7Y1427D01*
X5425Y1427D02*
X5432Y1427D01*
X0Y1426D02*
X7Y1426D01*
X5425Y1426D02*
X5432Y1426D01*
X0Y1425D02*
X7Y1425D01*
X5425Y1425D02*
X5432Y1425D01*
X0Y1424D02*
X7Y1424D01*
X5425Y1424D02*
X5432Y1424D01*
X0Y1423D02*
X7Y1423D01*
X5425Y1423D02*
X5432Y1423D01*
X0Y1422D02*
X7Y1422D01*
X5425Y1422D02*
X5432Y1422D01*
X0Y1421D02*
X7Y1421D01*
X5425Y1421D02*
X5432Y1421D01*
X0Y1420D02*
X7Y1420D01*
X5425Y1420D02*
X5432Y1420D01*
X0Y1419D02*
X7Y1419D01*
X5425Y1419D02*
X5432Y1419D01*
X0Y1418D02*
X7Y1418D01*
X5425Y1418D02*
X5432Y1418D01*
X0Y1417D02*
X7Y1417D01*
X5425Y1417D02*
X5432Y1417D01*
X0Y1416D02*
X7Y1416D01*
X5425Y1416D02*
X5432Y1416D01*
X0Y1415D02*
X7Y1415D01*
X5425Y1415D02*
X5432Y1415D01*
X0Y1414D02*
X7Y1414D01*
X5425Y1414D02*
X5432Y1414D01*
X0Y1413D02*
X7Y1413D01*
X5425Y1413D02*
X5432Y1413D01*
X0Y1412D02*
X7Y1412D01*
X5425Y1412D02*
X5432Y1412D01*
X0Y1411D02*
X7Y1411D01*
X5425Y1411D02*
X5432Y1411D01*
X0Y1410D02*
X7Y1410D01*
X5425Y1410D02*
X5432Y1410D01*
X0Y1409D02*
X7Y1409D01*
X5425Y1409D02*
X5432Y1409D01*
X0Y1408D02*
X7Y1408D01*
X5425Y1408D02*
X5432Y1408D01*
X0Y1407D02*
X7Y1407D01*
X5425Y1407D02*
X5432Y1407D01*
X0Y1406D02*
X7Y1406D01*
X5425Y1406D02*
X5432Y1406D01*
X0Y1405D02*
X7Y1405D01*
X5425Y1405D02*
X5432Y1405D01*
X0Y1404D02*
X7Y1404D01*
X5425Y1404D02*
X5432Y1404D01*
X0Y1403D02*
X7Y1403D01*
X5425Y1403D02*
X5432Y1403D01*
X0Y1402D02*
X7Y1402D01*
X5425Y1402D02*
X5432Y1402D01*
X0Y1401D02*
X7Y1401D01*
X5425Y1401D02*
X5432Y1401D01*
X0Y1400D02*
X7Y1400D01*
X5425Y1400D02*
X5432Y1400D01*
X0Y1399D02*
X7Y1399D01*
X5425Y1399D02*
X5432Y1399D01*
X0Y1398D02*
X7Y1398D01*
X5425Y1398D02*
X5432Y1398D01*
X0Y1397D02*
X7Y1397D01*
X5425Y1397D02*
X5432Y1397D01*
X0Y1396D02*
X7Y1396D01*
X5425Y1396D02*
X5432Y1396D01*
X0Y1395D02*
X7Y1395D01*
X5425Y1395D02*
X5432Y1395D01*
X0Y1394D02*
X7Y1394D01*
X5425Y1394D02*
X5432Y1394D01*
X0Y1393D02*
X7Y1393D01*
X5425Y1393D02*
X5432Y1393D01*
X0Y1392D02*
X7Y1392D01*
X5425Y1392D02*
X5432Y1392D01*
X0Y1391D02*
X7Y1391D01*
X5425Y1391D02*
X5432Y1391D01*
X0Y1390D02*
X7Y1390D01*
X5425Y1390D02*
X5432Y1390D01*
X0Y1389D02*
X7Y1389D01*
X5425Y1389D02*
X5432Y1389D01*
X0Y1388D02*
X7Y1388D01*
X5425Y1388D02*
X5432Y1388D01*
X0Y1387D02*
X7Y1387D01*
X5425Y1387D02*
X5432Y1387D01*
X0Y1386D02*
X7Y1386D01*
X5425Y1386D02*
X5432Y1386D01*
X0Y1385D02*
X7Y1385D01*
X5425Y1385D02*
X5432Y1385D01*
X0Y1384D02*
X7Y1384D01*
X5425Y1384D02*
X5432Y1384D01*
X0Y1383D02*
X7Y1383D01*
X5425Y1383D02*
X5432Y1383D01*
X0Y1382D02*
X7Y1382D01*
X5425Y1382D02*
X5432Y1382D01*
X0Y1381D02*
X7Y1381D01*
X5425Y1381D02*
X5432Y1381D01*
X0Y1380D02*
X7Y1380D01*
X5425Y1380D02*
X5432Y1380D01*
X0Y1379D02*
X7Y1379D01*
X5425Y1379D02*
X5432Y1379D01*
X0Y1378D02*
X7Y1378D01*
X5425Y1378D02*
X5432Y1378D01*
X0Y1377D02*
X7Y1377D01*
X5425Y1377D02*
X5432Y1377D01*
X0Y1376D02*
X7Y1376D01*
X5425Y1376D02*
X5432Y1376D01*
X0Y1375D02*
X7Y1375D01*
X5425Y1375D02*
X5432Y1375D01*
X0Y1374D02*
X7Y1374D01*
X5425Y1374D02*
X5432Y1374D01*
X0Y1373D02*
X7Y1373D01*
X5425Y1373D02*
X5432Y1373D01*
X0Y1372D02*
X7Y1372D01*
X5425Y1372D02*
X5432Y1372D01*
X0Y1371D02*
X7Y1371D01*
X5425Y1371D02*
X5432Y1371D01*
X0Y1370D02*
X7Y1370D01*
X5425Y1370D02*
X5432Y1370D01*
X0Y1369D02*
X7Y1369D01*
X5425Y1369D02*
X5432Y1369D01*
X0Y1368D02*
X7Y1368D01*
X5425Y1368D02*
X5432Y1368D01*
X0Y1367D02*
X7Y1367D01*
X5425Y1367D02*
X5432Y1367D01*
X0Y1366D02*
X7Y1366D01*
X5425Y1366D02*
X5432Y1366D01*
X0Y1365D02*
X7Y1365D01*
X5425Y1365D02*
X5432Y1365D01*
X0Y1364D02*
X7Y1364D01*
X5425Y1364D02*
X5432Y1364D01*
X0Y1363D02*
X7Y1363D01*
X5425Y1363D02*
X5432Y1363D01*
X0Y1362D02*
X7Y1362D01*
X5425Y1362D02*
X5432Y1362D01*
X0Y1361D02*
X7Y1361D01*
X5425Y1361D02*
X5432Y1361D01*
X0Y1360D02*
X7Y1360D01*
X5425Y1360D02*
X5432Y1360D01*
X0Y1359D02*
X7Y1359D01*
X5425Y1359D02*
X5432Y1359D01*
X0Y1358D02*
X7Y1358D01*
X5425Y1358D02*
X5432Y1358D01*
X0Y1357D02*
X7Y1357D01*
X5425Y1357D02*
X5432Y1357D01*
X0Y1356D02*
X7Y1356D01*
X5425Y1356D02*
X5432Y1356D01*
X0Y1355D02*
X7Y1355D01*
X5425Y1355D02*
X5432Y1355D01*
X0Y1354D02*
X7Y1354D01*
X5425Y1354D02*
X5432Y1354D01*
X0Y1353D02*
X7Y1353D01*
X5425Y1353D02*
X5432Y1353D01*
X0Y1352D02*
X7Y1352D01*
X5425Y1352D02*
X5432Y1352D01*
X0Y1351D02*
X7Y1351D01*
X5425Y1351D02*
X5432Y1351D01*
X0Y1350D02*
X7Y1350D01*
X5425Y1350D02*
X5432Y1350D01*
X0Y1349D02*
X7Y1349D01*
X5425Y1349D02*
X5432Y1349D01*
X0Y1348D02*
X7Y1348D01*
X5425Y1348D02*
X5432Y1348D01*
X0Y1347D02*
X7Y1347D01*
X5425Y1347D02*
X5432Y1347D01*
X0Y1346D02*
X7Y1346D01*
X5425Y1346D02*
X5432Y1346D01*
X0Y1345D02*
X7Y1345D01*
X5425Y1345D02*
X5432Y1345D01*
X0Y1344D02*
X7Y1344D01*
X5425Y1344D02*
X5432Y1344D01*
X0Y1343D02*
X7Y1343D01*
X5425Y1343D02*
X5432Y1343D01*
X0Y1342D02*
X7Y1342D01*
X5425Y1342D02*
X5432Y1342D01*
X0Y1341D02*
X7Y1341D01*
X5425Y1341D02*
X5432Y1341D01*
X0Y1340D02*
X7Y1340D01*
X5425Y1340D02*
X5432Y1340D01*
X0Y1339D02*
X7Y1339D01*
X5425Y1339D02*
X5432Y1339D01*
X0Y1338D02*
X7Y1338D01*
X5425Y1338D02*
X5432Y1338D01*
X0Y1337D02*
X7Y1337D01*
X5425Y1337D02*
X5432Y1337D01*
X0Y1336D02*
X7Y1336D01*
X5425Y1336D02*
X5432Y1336D01*
X0Y1335D02*
X7Y1335D01*
X5425Y1335D02*
X5432Y1335D01*
X0Y1334D02*
X7Y1334D01*
X5425Y1334D02*
X5432Y1334D01*
X0Y1333D02*
X7Y1333D01*
X5425Y1333D02*
X5432Y1333D01*
X0Y1332D02*
X7Y1332D01*
X5425Y1332D02*
X5432Y1332D01*
X0Y1331D02*
X7Y1331D01*
X5425Y1331D02*
X5432Y1331D01*
X0Y1330D02*
X7Y1330D01*
X5425Y1330D02*
X5432Y1330D01*
X0Y1329D02*
X7Y1329D01*
X5425Y1329D02*
X5432Y1329D01*
X0Y1328D02*
X7Y1328D01*
X5425Y1328D02*
X5432Y1328D01*
X0Y1327D02*
X7Y1327D01*
X5425Y1327D02*
X5432Y1327D01*
X0Y1326D02*
X7Y1326D01*
X5425Y1326D02*
X5432Y1326D01*
X0Y1325D02*
X7Y1325D01*
X5425Y1325D02*
X5432Y1325D01*
X0Y1324D02*
X7Y1324D01*
X5425Y1324D02*
X5432Y1324D01*
X0Y1323D02*
X7Y1323D01*
X5425Y1323D02*
X5432Y1323D01*
X0Y1322D02*
X7Y1322D01*
X5425Y1322D02*
X5432Y1322D01*
X0Y1321D02*
X7Y1321D01*
X5425Y1321D02*
X5432Y1321D01*
X0Y1320D02*
X7Y1320D01*
X5425Y1320D02*
X5432Y1320D01*
X0Y1319D02*
X7Y1319D01*
X5425Y1319D02*
X5432Y1319D01*
X0Y1318D02*
X7Y1318D01*
X5425Y1318D02*
X5432Y1318D01*
X0Y1317D02*
X7Y1317D01*
X5425Y1317D02*
X5432Y1317D01*
X0Y1316D02*
X7Y1316D01*
X5425Y1316D02*
X5432Y1316D01*
X0Y1315D02*
X7Y1315D01*
X5425Y1315D02*
X5432Y1315D01*
X0Y1314D02*
X7Y1314D01*
X5425Y1314D02*
X5432Y1314D01*
X0Y1313D02*
X7Y1313D01*
X5425Y1313D02*
X5432Y1313D01*
X0Y1312D02*
X7Y1312D01*
X5425Y1312D02*
X5432Y1312D01*
X0Y1311D02*
X7Y1311D01*
X5425Y1311D02*
X5432Y1311D01*
X0Y1310D02*
X7Y1310D01*
X5425Y1310D02*
X5432Y1310D01*
X0Y1309D02*
X7Y1309D01*
X5425Y1309D02*
X5432Y1309D01*
X0Y1308D02*
X7Y1308D01*
X5425Y1308D02*
X5432Y1308D01*
X0Y1307D02*
X7Y1307D01*
X5425Y1307D02*
X5432Y1307D01*
X0Y1306D02*
X7Y1306D01*
X5425Y1306D02*
X5432Y1306D01*
X0Y1305D02*
X7Y1305D01*
X5425Y1305D02*
X5432Y1305D01*
X0Y1304D02*
X7Y1304D01*
X5425Y1304D02*
X5432Y1304D01*
X0Y1303D02*
X7Y1303D01*
X5425Y1303D02*
X5432Y1303D01*
X0Y1302D02*
X7Y1302D01*
X5425Y1302D02*
X5432Y1302D01*
X0Y1301D02*
X7Y1301D01*
X5425Y1301D02*
X5432Y1301D01*
X0Y1300D02*
X7Y1300D01*
X5425Y1300D02*
X5432Y1300D01*
X0Y1299D02*
X7Y1299D01*
X5425Y1299D02*
X5432Y1299D01*
X0Y1298D02*
X7Y1298D01*
X5425Y1298D02*
X5432Y1298D01*
X0Y1297D02*
X7Y1297D01*
X5425Y1297D02*
X5432Y1297D01*
X0Y1296D02*
X7Y1296D01*
X5425Y1296D02*
X5432Y1296D01*
X0Y1295D02*
X7Y1295D01*
X5425Y1295D02*
X5432Y1295D01*
X0Y1294D02*
X7Y1294D01*
X5425Y1294D02*
X5432Y1294D01*
X0Y1293D02*
X7Y1293D01*
X5425Y1293D02*
X5432Y1293D01*
X0Y1292D02*
X7Y1292D01*
X5425Y1292D02*
X5432Y1292D01*
X0Y1291D02*
X7Y1291D01*
X5425Y1291D02*
X5432Y1291D01*
X0Y1290D02*
X7Y1290D01*
X5425Y1290D02*
X5432Y1290D01*
X0Y1289D02*
X7Y1289D01*
X5425Y1289D02*
X5432Y1289D01*
X0Y1288D02*
X7Y1288D01*
X5425Y1288D02*
X5432Y1288D01*
X0Y1287D02*
X7Y1287D01*
X5425Y1287D02*
X5432Y1287D01*
X0Y1286D02*
X7Y1286D01*
X5425Y1286D02*
X5432Y1286D01*
X0Y1285D02*
X7Y1285D01*
X5425Y1285D02*
X5432Y1285D01*
X0Y1284D02*
X7Y1284D01*
X5425Y1284D02*
X5432Y1284D01*
X0Y1283D02*
X7Y1283D01*
X5425Y1283D02*
X5432Y1283D01*
X0Y1282D02*
X7Y1282D01*
X5425Y1282D02*
X5432Y1282D01*
X0Y1281D02*
X7Y1281D01*
X5425Y1281D02*
X5432Y1281D01*
X0Y1280D02*
X7Y1280D01*
X5425Y1280D02*
X5432Y1280D01*
X0Y1279D02*
X7Y1279D01*
X5425Y1279D02*
X5432Y1279D01*
X0Y1278D02*
X7Y1278D01*
X5425Y1278D02*
X5432Y1278D01*
X0Y1277D02*
X7Y1277D01*
X5425Y1277D02*
X5432Y1277D01*
X0Y1276D02*
X7Y1276D01*
X5425Y1276D02*
X5432Y1276D01*
X0Y1275D02*
X7Y1275D01*
X5425Y1275D02*
X5432Y1275D01*
X0Y1274D02*
X7Y1274D01*
X5425Y1274D02*
X5432Y1274D01*
X0Y1273D02*
X7Y1273D01*
X5425Y1273D02*
X5432Y1273D01*
X0Y1272D02*
X7Y1272D01*
X5425Y1272D02*
X5432Y1272D01*
X0Y1271D02*
X7Y1271D01*
X5425Y1271D02*
X5432Y1271D01*
X0Y1270D02*
X7Y1270D01*
X5425Y1270D02*
X5432Y1270D01*
X0Y1269D02*
X7Y1269D01*
X5425Y1269D02*
X5432Y1269D01*
X0Y1268D02*
X7Y1268D01*
X5425Y1268D02*
X5432Y1268D01*
X0Y1267D02*
X7Y1267D01*
X5425Y1267D02*
X5432Y1267D01*
X0Y1266D02*
X7Y1266D01*
X5425Y1266D02*
X5432Y1266D01*
X0Y1265D02*
X7Y1265D01*
X5425Y1265D02*
X5432Y1265D01*
X0Y1264D02*
X7Y1264D01*
X5425Y1264D02*
X5432Y1264D01*
X0Y1263D02*
X7Y1263D01*
X5425Y1263D02*
X5432Y1263D01*
X0Y1262D02*
X7Y1262D01*
X5425Y1262D02*
X5432Y1262D01*
X0Y1261D02*
X7Y1261D01*
X5425Y1261D02*
X5432Y1261D01*
X0Y1260D02*
X7Y1260D01*
X5425Y1260D02*
X5432Y1260D01*
X0Y1259D02*
X7Y1259D01*
X5425Y1259D02*
X5432Y1259D01*
X0Y1258D02*
X7Y1258D01*
X5425Y1258D02*
X5432Y1258D01*
X0Y1257D02*
X7Y1257D01*
X5425Y1257D02*
X5432Y1257D01*
X0Y1256D02*
X7Y1256D01*
X5425Y1256D02*
X5432Y1256D01*
X0Y1255D02*
X7Y1255D01*
X5425Y1255D02*
X5432Y1255D01*
X0Y1254D02*
X7Y1254D01*
X5425Y1254D02*
X5432Y1254D01*
X0Y1253D02*
X7Y1253D01*
X5425Y1253D02*
X5432Y1253D01*
X0Y1252D02*
X7Y1252D01*
X5425Y1252D02*
X5432Y1252D01*
X0Y1251D02*
X7Y1251D01*
X5425Y1251D02*
X5432Y1251D01*
X0Y1250D02*
X7Y1250D01*
X5425Y1250D02*
X5432Y1250D01*
X0Y1249D02*
X7Y1249D01*
X5425Y1249D02*
X5432Y1249D01*
X0Y1248D02*
X7Y1248D01*
X5425Y1248D02*
X5432Y1248D01*
X0Y1247D02*
X7Y1247D01*
X5425Y1247D02*
X5432Y1247D01*
X0Y1246D02*
X7Y1246D01*
X5425Y1246D02*
X5432Y1246D01*
X0Y1245D02*
X7Y1245D01*
X5425Y1245D02*
X5432Y1245D01*
X0Y1244D02*
X7Y1244D01*
X5425Y1244D02*
X5432Y1244D01*
X0Y1243D02*
X7Y1243D01*
X5425Y1243D02*
X5432Y1243D01*
X0Y1242D02*
X7Y1242D01*
X5425Y1242D02*
X5432Y1242D01*
X0Y1241D02*
X7Y1241D01*
X5425Y1241D02*
X5432Y1241D01*
X0Y1240D02*
X7Y1240D01*
X5425Y1240D02*
X5432Y1240D01*
X0Y1239D02*
X7Y1239D01*
X5425Y1239D02*
X5432Y1239D01*
X0Y1238D02*
X7Y1238D01*
X5425Y1238D02*
X5432Y1238D01*
X0Y1237D02*
X7Y1237D01*
X5425Y1237D02*
X5432Y1237D01*
X0Y1236D02*
X7Y1236D01*
X5425Y1236D02*
X5432Y1236D01*
X0Y1235D02*
X7Y1235D01*
X5425Y1235D02*
X5432Y1235D01*
X0Y1234D02*
X7Y1234D01*
X5425Y1234D02*
X5432Y1234D01*
X0Y1233D02*
X7Y1233D01*
X5425Y1233D02*
X5432Y1233D01*
X0Y1232D02*
X7Y1232D01*
X5425Y1232D02*
X5432Y1232D01*
X0Y1231D02*
X7Y1231D01*
X5425Y1231D02*
X5432Y1231D01*
X0Y1230D02*
X7Y1230D01*
X5425Y1230D02*
X5432Y1230D01*
X0Y1229D02*
X7Y1229D01*
X5425Y1229D02*
X5432Y1229D01*
X0Y1228D02*
X7Y1228D01*
X5425Y1228D02*
X5432Y1228D01*
X0Y1227D02*
X7Y1227D01*
X5425Y1227D02*
X5432Y1227D01*
X0Y1226D02*
X7Y1226D01*
X5425Y1226D02*
X5432Y1226D01*
X0Y1225D02*
X7Y1225D01*
X5425Y1225D02*
X5432Y1225D01*
X0Y1224D02*
X7Y1224D01*
X5425Y1224D02*
X5432Y1224D01*
X0Y1223D02*
X7Y1223D01*
X5425Y1223D02*
X5432Y1223D01*
X0Y1222D02*
X7Y1222D01*
X5425Y1222D02*
X5432Y1222D01*
X0Y1221D02*
X7Y1221D01*
X5425Y1221D02*
X5432Y1221D01*
X0Y1220D02*
X7Y1220D01*
X5425Y1220D02*
X5432Y1220D01*
X0Y1219D02*
X7Y1219D01*
X5425Y1219D02*
X5432Y1219D01*
X0Y1218D02*
X7Y1218D01*
X5425Y1218D02*
X5432Y1218D01*
X0Y1217D02*
X7Y1217D01*
X5425Y1217D02*
X5432Y1217D01*
X0Y1216D02*
X7Y1216D01*
X5425Y1216D02*
X5432Y1216D01*
X0Y1215D02*
X7Y1215D01*
X5425Y1215D02*
X5432Y1215D01*
X0Y1214D02*
X7Y1214D01*
X5425Y1214D02*
X5432Y1214D01*
X0Y1213D02*
X7Y1213D01*
X5425Y1213D02*
X5432Y1213D01*
X0Y1212D02*
X7Y1212D01*
X5425Y1212D02*
X5432Y1212D01*
X0Y1211D02*
X7Y1211D01*
X5425Y1211D02*
X5432Y1211D01*
X0Y1210D02*
X7Y1210D01*
X5425Y1210D02*
X5432Y1210D01*
X0Y1209D02*
X7Y1209D01*
X5425Y1209D02*
X5432Y1209D01*
X0Y1208D02*
X7Y1208D01*
X5425Y1208D02*
X5432Y1208D01*
X0Y1207D02*
X7Y1207D01*
X5425Y1207D02*
X5432Y1207D01*
X0Y1206D02*
X7Y1206D01*
X5425Y1206D02*
X5432Y1206D01*
X0Y1205D02*
X7Y1205D01*
X5425Y1205D02*
X5432Y1205D01*
X0Y1204D02*
X7Y1204D01*
X5425Y1204D02*
X5432Y1204D01*
X0Y1203D02*
X7Y1203D01*
X5425Y1203D02*
X5432Y1203D01*
X0Y1202D02*
X7Y1202D01*
X5425Y1202D02*
X5432Y1202D01*
X0Y1201D02*
X7Y1201D01*
X5425Y1201D02*
X5432Y1201D01*
X0Y1200D02*
X7Y1200D01*
X5425Y1200D02*
X5432Y1200D01*
X0Y1199D02*
X7Y1199D01*
X5425Y1199D02*
X5432Y1199D01*
X0Y1198D02*
X7Y1198D01*
X5425Y1198D02*
X5432Y1198D01*
X0Y1197D02*
X7Y1197D01*
X5425Y1197D02*
X5432Y1197D01*
X0Y1196D02*
X7Y1196D01*
X5425Y1196D02*
X5432Y1196D01*
X0Y1195D02*
X7Y1195D01*
X5425Y1195D02*
X5432Y1195D01*
X0Y1194D02*
X7Y1194D01*
X5425Y1194D02*
X5432Y1194D01*
X0Y1193D02*
X7Y1193D01*
X5425Y1193D02*
X5432Y1193D01*
X0Y1192D02*
X7Y1192D01*
X5425Y1192D02*
X5432Y1192D01*
X0Y1191D02*
X7Y1191D01*
X5425Y1191D02*
X5432Y1191D01*
X0Y1190D02*
X7Y1190D01*
X5425Y1190D02*
X5432Y1190D01*
X0Y1189D02*
X7Y1189D01*
X5425Y1189D02*
X5432Y1189D01*
X0Y1188D02*
X7Y1188D01*
X5425Y1188D02*
X5432Y1188D01*
X0Y1187D02*
X7Y1187D01*
X5425Y1187D02*
X5432Y1187D01*
X0Y1186D02*
X7Y1186D01*
X5425Y1186D02*
X5432Y1186D01*
X0Y1185D02*
X7Y1185D01*
X5425Y1185D02*
X5432Y1185D01*
X0Y1184D02*
X7Y1184D01*
X5425Y1184D02*
X5432Y1184D01*
X0Y1183D02*
X7Y1183D01*
X5425Y1183D02*
X5432Y1183D01*
X0Y1182D02*
X7Y1182D01*
X5425Y1182D02*
X5432Y1182D01*
X0Y1181D02*
X7Y1181D01*
X5425Y1181D02*
X5432Y1181D01*
X0Y1180D02*
X7Y1180D01*
X5425Y1180D02*
X5432Y1180D01*
X0Y1179D02*
X7Y1179D01*
X5425Y1179D02*
X5432Y1179D01*
X0Y1178D02*
X7Y1178D01*
X5425Y1178D02*
X5432Y1178D01*
X0Y1177D02*
X7Y1177D01*
X5425Y1177D02*
X5432Y1177D01*
X0Y1176D02*
X7Y1176D01*
X5425Y1176D02*
X5432Y1176D01*
X0Y1175D02*
X7Y1175D01*
X5425Y1175D02*
X5432Y1175D01*
X0Y1174D02*
X7Y1174D01*
X5425Y1174D02*
X5432Y1174D01*
X0Y1173D02*
X7Y1173D01*
X5425Y1173D02*
X5432Y1173D01*
X0Y1172D02*
X7Y1172D01*
X5425Y1172D02*
X5432Y1172D01*
X0Y1171D02*
X7Y1171D01*
X5425Y1171D02*
X5432Y1171D01*
X0Y1170D02*
X7Y1170D01*
X5425Y1170D02*
X5432Y1170D01*
X0Y1169D02*
X7Y1169D01*
X5425Y1169D02*
X5432Y1169D01*
X0Y1168D02*
X7Y1168D01*
X5425Y1168D02*
X5432Y1168D01*
X0Y1167D02*
X7Y1167D01*
X5425Y1167D02*
X5432Y1167D01*
X0Y1166D02*
X7Y1166D01*
X5425Y1166D02*
X5432Y1166D01*
X0Y1165D02*
X7Y1165D01*
X5425Y1165D02*
X5432Y1165D01*
X0Y1164D02*
X7Y1164D01*
X5425Y1164D02*
X5432Y1164D01*
X0Y1163D02*
X7Y1163D01*
X5425Y1163D02*
X5432Y1163D01*
X0Y1162D02*
X7Y1162D01*
X5425Y1162D02*
X5432Y1162D01*
X0Y1161D02*
X7Y1161D01*
X5425Y1161D02*
X5432Y1161D01*
X0Y1160D02*
X7Y1160D01*
X5425Y1160D02*
X5432Y1160D01*
X0Y1159D02*
X7Y1159D01*
X5425Y1159D02*
X5432Y1159D01*
X0Y1158D02*
X7Y1158D01*
X5425Y1158D02*
X5432Y1158D01*
X0Y1157D02*
X7Y1157D01*
X5425Y1157D02*
X5432Y1157D01*
X0Y1156D02*
X7Y1156D01*
X5425Y1156D02*
X5432Y1156D01*
X0Y1155D02*
X7Y1155D01*
X5425Y1155D02*
X5432Y1155D01*
X0Y1154D02*
X7Y1154D01*
X5425Y1154D02*
X5432Y1154D01*
X0Y1153D02*
X7Y1153D01*
X5425Y1153D02*
X5432Y1153D01*
X0Y1152D02*
X7Y1152D01*
X5425Y1152D02*
X5432Y1152D01*
X0Y1151D02*
X7Y1151D01*
X5425Y1151D02*
X5432Y1151D01*
X0Y1150D02*
X7Y1150D01*
X5425Y1150D02*
X5432Y1150D01*
X0Y1149D02*
X7Y1149D01*
X5425Y1149D02*
X5432Y1149D01*
X0Y1148D02*
X7Y1148D01*
X5425Y1148D02*
X5432Y1148D01*
X0Y1147D02*
X7Y1147D01*
X5425Y1147D02*
X5432Y1147D01*
X0Y1146D02*
X7Y1146D01*
X5425Y1146D02*
X5432Y1146D01*
X0Y1145D02*
X7Y1145D01*
X5425Y1145D02*
X5432Y1145D01*
X0Y1144D02*
X7Y1144D01*
X5425Y1144D02*
X5432Y1144D01*
X0Y1143D02*
X7Y1143D01*
X5425Y1143D02*
X5432Y1143D01*
X0Y1142D02*
X7Y1142D01*
X5425Y1142D02*
X5432Y1142D01*
X0Y1141D02*
X7Y1141D01*
X5425Y1141D02*
X5432Y1141D01*
X0Y1140D02*
X7Y1140D01*
X5425Y1140D02*
X5432Y1140D01*
X0Y1139D02*
X7Y1139D01*
X5425Y1139D02*
X5432Y1139D01*
X0Y1138D02*
X7Y1138D01*
X5425Y1138D02*
X5432Y1138D01*
X0Y1137D02*
X7Y1137D01*
X5425Y1137D02*
X5432Y1137D01*
X0Y1136D02*
X7Y1136D01*
X5425Y1136D02*
X5432Y1136D01*
X0Y1135D02*
X7Y1135D01*
X5425Y1135D02*
X5432Y1135D01*
X0Y1134D02*
X7Y1134D01*
X5425Y1134D02*
X5432Y1134D01*
X0Y1133D02*
X7Y1133D01*
X5425Y1133D02*
X5432Y1133D01*
X0Y1132D02*
X7Y1132D01*
X5425Y1132D02*
X5432Y1132D01*
X0Y1131D02*
X7Y1131D01*
X5425Y1131D02*
X5432Y1131D01*
X0Y1130D02*
X7Y1130D01*
X5425Y1130D02*
X5432Y1130D01*
X0Y1129D02*
X7Y1129D01*
X5425Y1129D02*
X5432Y1129D01*
X0Y1128D02*
X7Y1128D01*
X5425Y1128D02*
X5432Y1128D01*
X0Y1127D02*
X7Y1127D01*
X5425Y1127D02*
X5432Y1127D01*
X0Y1126D02*
X7Y1126D01*
X5425Y1126D02*
X5432Y1126D01*
X0Y1125D02*
X7Y1125D01*
X5425Y1125D02*
X5432Y1125D01*
X0Y1124D02*
X7Y1124D01*
X5425Y1124D02*
X5432Y1124D01*
X0Y1123D02*
X7Y1123D01*
X5425Y1123D02*
X5432Y1123D01*
X0Y1122D02*
X7Y1122D01*
X5425Y1122D02*
X5432Y1122D01*
X0Y1121D02*
X7Y1121D01*
X5425Y1121D02*
X5432Y1121D01*
X0Y1120D02*
X7Y1120D01*
X5425Y1120D02*
X5432Y1120D01*
X0Y1119D02*
X7Y1119D01*
X5425Y1119D02*
X5432Y1119D01*
X0Y1118D02*
X7Y1118D01*
X5425Y1118D02*
X5432Y1118D01*
X0Y1117D02*
X7Y1117D01*
X5425Y1117D02*
X5432Y1117D01*
X0Y1116D02*
X7Y1116D01*
X5425Y1116D02*
X5432Y1116D01*
X0Y1115D02*
X7Y1115D01*
X5425Y1115D02*
X5432Y1115D01*
X0Y1114D02*
X7Y1114D01*
X5425Y1114D02*
X5432Y1114D01*
X0Y1113D02*
X7Y1113D01*
X5425Y1113D02*
X5432Y1113D01*
X0Y1112D02*
X7Y1112D01*
X5425Y1112D02*
X5432Y1112D01*
X0Y1111D02*
X7Y1111D01*
X5425Y1111D02*
X5432Y1111D01*
X0Y1110D02*
X7Y1110D01*
X5425Y1110D02*
X5432Y1110D01*
X0Y1109D02*
X7Y1109D01*
X5425Y1109D02*
X5432Y1109D01*
X0Y1108D02*
X7Y1108D01*
X5425Y1108D02*
X5432Y1108D01*
X0Y1107D02*
X7Y1107D01*
X5425Y1107D02*
X5432Y1107D01*
X0Y1106D02*
X7Y1106D01*
X5425Y1106D02*
X5432Y1106D01*
X0Y1105D02*
X7Y1105D01*
X5425Y1105D02*
X5432Y1105D01*
X0Y1104D02*
X7Y1104D01*
X5425Y1104D02*
X5432Y1104D01*
X0Y1103D02*
X7Y1103D01*
X5425Y1103D02*
X5432Y1103D01*
X0Y1102D02*
X7Y1102D01*
X5425Y1102D02*
X5432Y1102D01*
X0Y1101D02*
X7Y1101D01*
X5425Y1101D02*
X5432Y1101D01*
X0Y1100D02*
X7Y1100D01*
X5425Y1100D02*
X5432Y1100D01*
X0Y1099D02*
X7Y1099D01*
X5425Y1099D02*
X5432Y1099D01*
X0Y1098D02*
X7Y1098D01*
X5425Y1098D02*
X5432Y1098D01*
X0Y1097D02*
X7Y1097D01*
X5425Y1097D02*
X5432Y1097D01*
X0Y1096D02*
X7Y1096D01*
X5425Y1096D02*
X5432Y1096D01*
X0Y1095D02*
X7Y1095D01*
X5425Y1095D02*
X5432Y1095D01*
X0Y1094D02*
X7Y1094D01*
X5425Y1094D02*
X5432Y1094D01*
X0Y1093D02*
X7Y1093D01*
X5425Y1093D02*
X5432Y1093D01*
X0Y1092D02*
X7Y1092D01*
X5425Y1092D02*
X5432Y1092D01*
X0Y1091D02*
X7Y1091D01*
X5425Y1091D02*
X5432Y1091D01*
X0Y1090D02*
X7Y1090D01*
X5425Y1090D02*
X5432Y1090D01*
X0Y1089D02*
X7Y1089D01*
X5425Y1089D02*
X5432Y1089D01*
X0Y1088D02*
X7Y1088D01*
X5425Y1088D02*
X5432Y1088D01*
X0Y1087D02*
X7Y1087D01*
X5425Y1087D02*
X5432Y1087D01*
X0Y1086D02*
X7Y1086D01*
X5425Y1086D02*
X5432Y1086D01*
X0Y1085D02*
X7Y1085D01*
X5425Y1085D02*
X5432Y1085D01*
X0Y1084D02*
X7Y1084D01*
X5425Y1084D02*
X5432Y1084D01*
X0Y1083D02*
X7Y1083D01*
X5425Y1083D02*
X5432Y1083D01*
X0Y1082D02*
X7Y1082D01*
X5425Y1082D02*
X5432Y1082D01*
X0Y1081D02*
X7Y1081D01*
X5425Y1081D02*
X5432Y1081D01*
X0Y1080D02*
X7Y1080D01*
X5425Y1080D02*
X5432Y1080D01*
X0Y1079D02*
X7Y1079D01*
X5425Y1079D02*
X5432Y1079D01*
X0Y1078D02*
X7Y1078D01*
X5425Y1078D02*
X5432Y1078D01*
X0Y1077D02*
X7Y1077D01*
X5425Y1077D02*
X5432Y1077D01*
X0Y1076D02*
X7Y1076D01*
X5425Y1076D02*
X5432Y1076D01*
X0Y1075D02*
X7Y1075D01*
X5425Y1075D02*
X5432Y1075D01*
X0Y1074D02*
X7Y1074D01*
X5425Y1074D02*
X5432Y1074D01*
X0Y1073D02*
X7Y1073D01*
X5425Y1073D02*
X5432Y1073D01*
X0Y1072D02*
X7Y1072D01*
X5425Y1072D02*
X5432Y1072D01*
X0Y1071D02*
X7Y1071D01*
X5425Y1071D02*
X5432Y1071D01*
X0Y1070D02*
X7Y1070D01*
X5425Y1070D02*
X5432Y1070D01*
X0Y1069D02*
X7Y1069D01*
X5425Y1069D02*
X5432Y1069D01*
X0Y1068D02*
X7Y1068D01*
X5425Y1068D02*
X5432Y1068D01*
X0Y1067D02*
X7Y1067D01*
X5425Y1067D02*
X5432Y1067D01*
X0Y1066D02*
X7Y1066D01*
X5425Y1066D02*
X5432Y1066D01*
X0Y1065D02*
X7Y1065D01*
X5425Y1065D02*
X5432Y1065D01*
X0Y1064D02*
X7Y1064D01*
X5425Y1064D02*
X5432Y1064D01*
X0Y1063D02*
X7Y1063D01*
X5425Y1063D02*
X5432Y1063D01*
X0Y1062D02*
X7Y1062D01*
X5425Y1062D02*
X5432Y1062D01*
X0Y1061D02*
X7Y1061D01*
X5425Y1061D02*
X5432Y1061D01*
X0Y1060D02*
X7Y1060D01*
X5425Y1060D02*
X5432Y1060D01*
X0Y1059D02*
X7Y1059D01*
X5425Y1059D02*
X5432Y1059D01*
X0Y1058D02*
X7Y1058D01*
X5425Y1058D02*
X5432Y1058D01*
X0Y1057D02*
X7Y1057D01*
X5425Y1057D02*
X5432Y1057D01*
X0Y1056D02*
X7Y1056D01*
X5425Y1056D02*
X5432Y1056D01*
X0Y1055D02*
X7Y1055D01*
X5425Y1055D02*
X5432Y1055D01*
X0Y1054D02*
X7Y1054D01*
X5425Y1054D02*
X5432Y1054D01*
X0Y1053D02*
X7Y1053D01*
X5425Y1053D02*
X5432Y1053D01*
X0Y1052D02*
X7Y1052D01*
X5425Y1052D02*
X5432Y1052D01*
X0Y1051D02*
X7Y1051D01*
X5425Y1051D02*
X5432Y1051D01*
X0Y1050D02*
X7Y1050D01*
X5425Y1050D02*
X5432Y1050D01*
X0Y1049D02*
X7Y1049D01*
X5425Y1049D02*
X5432Y1049D01*
X0Y1048D02*
X7Y1048D01*
X5425Y1048D02*
X5432Y1048D01*
X0Y1047D02*
X7Y1047D01*
X5425Y1047D02*
X5432Y1047D01*
X0Y1046D02*
X7Y1046D01*
X5425Y1046D02*
X5432Y1046D01*
X0Y1045D02*
X7Y1045D01*
X5425Y1045D02*
X5432Y1045D01*
X0Y1044D02*
X7Y1044D01*
X5425Y1044D02*
X5432Y1044D01*
X0Y1043D02*
X7Y1043D01*
X5425Y1043D02*
X5432Y1043D01*
X0Y1042D02*
X7Y1042D01*
X5425Y1042D02*
X5432Y1042D01*
X0Y1041D02*
X7Y1041D01*
X5425Y1041D02*
X5432Y1041D01*
X0Y1040D02*
X7Y1040D01*
X5425Y1040D02*
X5432Y1040D01*
X0Y1039D02*
X7Y1039D01*
X5425Y1039D02*
X5432Y1039D01*
X0Y1038D02*
X7Y1038D01*
X5425Y1038D02*
X5432Y1038D01*
X0Y1037D02*
X7Y1037D01*
X5425Y1037D02*
X5432Y1037D01*
X0Y1036D02*
X7Y1036D01*
X5425Y1036D02*
X5432Y1036D01*
X0Y1035D02*
X7Y1035D01*
X5425Y1035D02*
X5432Y1035D01*
X0Y1034D02*
X7Y1034D01*
X5425Y1034D02*
X5432Y1034D01*
X0Y1033D02*
X7Y1033D01*
X5425Y1033D02*
X5432Y1033D01*
X0Y1032D02*
X7Y1032D01*
X5425Y1032D02*
X5432Y1032D01*
X0Y1031D02*
X7Y1031D01*
X5425Y1031D02*
X5432Y1031D01*
X0Y1030D02*
X7Y1030D01*
X5425Y1030D02*
X5432Y1030D01*
X0Y1029D02*
X7Y1029D01*
X5425Y1029D02*
X5432Y1029D01*
X0Y1028D02*
X7Y1028D01*
X5425Y1028D02*
X5432Y1028D01*
X0Y1027D02*
X7Y1027D01*
X5425Y1027D02*
X5432Y1027D01*
X0Y1026D02*
X7Y1026D01*
X5425Y1026D02*
X5432Y1026D01*
X0Y1025D02*
X7Y1025D01*
X5425Y1025D02*
X5432Y1025D01*
X0Y1024D02*
X7Y1024D01*
X5425Y1024D02*
X5432Y1024D01*
X0Y1023D02*
X7Y1023D01*
X5425Y1023D02*
X5432Y1023D01*
X0Y1022D02*
X7Y1022D01*
X5425Y1022D02*
X5432Y1022D01*
X0Y1021D02*
X7Y1021D01*
X5425Y1021D02*
X5432Y1021D01*
X0Y1020D02*
X7Y1020D01*
X5425Y1020D02*
X5432Y1020D01*
X0Y1019D02*
X7Y1019D01*
X5425Y1019D02*
X5432Y1019D01*
X0Y1018D02*
X7Y1018D01*
X5425Y1018D02*
X5432Y1018D01*
X0Y1017D02*
X7Y1017D01*
X5425Y1017D02*
X5432Y1017D01*
X0Y1016D02*
X7Y1016D01*
X5425Y1016D02*
X5432Y1016D01*
X0Y1015D02*
X7Y1015D01*
X5425Y1015D02*
X5432Y1015D01*
X0Y1014D02*
X7Y1014D01*
X5425Y1014D02*
X5432Y1014D01*
X0Y1013D02*
X7Y1013D01*
X5425Y1013D02*
X5432Y1013D01*
X0Y1012D02*
X7Y1012D01*
X5425Y1012D02*
X5432Y1012D01*
X0Y1011D02*
X7Y1011D01*
X5425Y1011D02*
X5432Y1011D01*
X0Y1010D02*
X7Y1010D01*
X5425Y1010D02*
X5432Y1010D01*
X0Y1009D02*
X7Y1009D01*
X5425Y1009D02*
X5432Y1009D01*
X0Y1008D02*
X7Y1008D01*
X5425Y1008D02*
X5432Y1008D01*
X0Y1007D02*
X7Y1007D01*
X5425Y1007D02*
X5432Y1007D01*
X0Y1006D02*
X7Y1006D01*
X5425Y1006D02*
X5432Y1006D01*
X0Y1005D02*
X7Y1005D01*
X5425Y1005D02*
X5432Y1005D01*
X0Y1004D02*
X7Y1004D01*
X5425Y1004D02*
X5432Y1004D01*
X0Y1003D02*
X7Y1003D01*
X5425Y1003D02*
X5432Y1003D01*
X0Y1002D02*
X7Y1002D01*
X5425Y1002D02*
X5432Y1002D01*
X0Y1001D02*
X7Y1001D01*
X5425Y1001D02*
X5432Y1001D01*
X0Y1000D02*
X7Y1000D01*
X5425Y1000D02*
X5432Y1000D01*
X0Y999D02*
X7Y999D01*
X5425Y999D02*
X5432Y999D01*
X0Y998D02*
X7Y998D01*
X5425Y998D02*
X5432Y998D01*
X0Y997D02*
X7Y997D01*
X5425Y997D02*
X5432Y997D01*
X0Y996D02*
X7Y996D01*
X5425Y996D02*
X5432Y996D01*
X0Y995D02*
X7Y995D01*
X5425Y995D02*
X5432Y995D01*
X0Y994D02*
X7Y994D01*
X5425Y994D02*
X5432Y994D01*
X0Y993D02*
X7Y993D01*
X5425Y993D02*
X5432Y993D01*
X0Y992D02*
X7Y992D01*
X5425Y992D02*
X5432Y992D01*
X0Y991D02*
X7Y991D01*
X5425Y991D02*
X5432Y991D01*
X0Y990D02*
X7Y990D01*
X5425Y990D02*
X5432Y990D01*
X0Y989D02*
X7Y989D01*
X5425Y989D02*
X5432Y989D01*
X0Y988D02*
X7Y988D01*
X5425Y988D02*
X5432Y988D01*
X0Y987D02*
X7Y987D01*
X5425Y987D02*
X5432Y987D01*
X0Y986D02*
X7Y986D01*
X5425Y986D02*
X5432Y986D01*
X0Y985D02*
X7Y985D01*
X5425Y985D02*
X5432Y985D01*
X0Y984D02*
X7Y984D01*
X5425Y984D02*
X5432Y984D01*
X0Y983D02*
X7Y983D01*
X5425Y983D02*
X5432Y983D01*
X0Y982D02*
X7Y982D01*
X5425Y982D02*
X5432Y982D01*
X0Y981D02*
X7Y981D01*
X5425Y981D02*
X5432Y981D01*
X0Y980D02*
X7Y980D01*
X5425Y980D02*
X5432Y980D01*
X0Y979D02*
X7Y979D01*
X5425Y979D02*
X5432Y979D01*
X0Y978D02*
X7Y978D01*
X5425Y978D02*
X5432Y978D01*
X0Y977D02*
X7Y977D01*
X5425Y977D02*
X5432Y977D01*
X0Y976D02*
X7Y976D01*
X5425Y976D02*
X5432Y976D01*
X0Y975D02*
X7Y975D01*
X5425Y975D02*
X5432Y975D01*
X0Y974D02*
X7Y974D01*
X5425Y974D02*
X5432Y974D01*
X0Y973D02*
X7Y973D01*
X5425Y973D02*
X5432Y973D01*
X0Y972D02*
X7Y972D01*
X5425Y972D02*
X5432Y972D01*
X0Y971D02*
X7Y971D01*
X5425Y971D02*
X5432Y971D01*
X0Y970D02*
X7Y970D01*
X5425Y970D02*
X5432Y970D01*
X0Y969D02*
X7Y969D01*
X5425Y969D02*
X5432Y969D01*
X0Y968D02*
X7Y968D01*
X5425Y968D02*
X5432Y968D01*
X0Y967D02*
X7Y967D01*
X5425Y967D02*
X5432Y967D01*
X0Y966D02*
X7Y966D01*
X5425Y966D02*
X5432Y966D01*
X0Y965D02*
X7Y965D01*
X5425Y965D02*
X5432Y965D01*
X0Y964D02*
X7Y964D01*
X5425Y964D02*
X5432Y964D01*
X0Y963D02*
X7Y963D01*
X5425Y963D02*
X5432Y963D01*
X0Y962D02*
X7Y962D01*
X5425Y962D02*
X5432Y962D01*
X0Y961D02*
X7Y961D01*
X5425Y961D02*
X5432Y961D01*
X0Y960D02*
X7Y960D01*
X5425Y960D02*
X5432Y960D01*
X0Y959D02*
X7Y959D01*
X5425Y959D02*
X5432Y959D01*
X0Y958D02*
X7Y958D01*
X5425Y958D02*
X5432Y958D01*
X0Y957D02*
X7Y957D01*
X5425Y957D02*
X5432Y957D01*
X0Y956D02*
X7Y956D01*
X5425Y956D02*
X5432Y956D01*
X0Y955D02*
X7Y955D01*
X5425Y955D02*
X5432Y955D01*
X0Y954D02*
X7Y954D01*
X5425Y954D02*
X5432Y954D01*
X0Y953D02*
X7Y953D01*
X5425Y953D02*
X5432Y953D01*
X0Y952D02*
X7Y952D01*
X5425Y952D02*
X5432Y952D01*
X0Y951D02*
X7Y951D01*
X5425Y951D02*
X5432Y951D01*
X0Y950D02*
X7Y950D01*
X5425Y950D02*
X5432Y950D01*
X0Y949D02*
X7Y949D01*
X5425Y949D02*
X5432Y949D01*
X0Y948D02*
X7Y948D01*
X5425Y948D02*
X5432Y948D01*
X0Y947D02*
X7Y947D01*
X5425Y947D02*
X5432Y947D01*
X0Y946D02*
X7Y946D01*
X5425Y946D02*
X5432Y946D01*
X0Y945D02*
X7Y945D01*
X5425Y945D02*
X5432Y945D01*
X0Y944D02*
X7Y944D01*
X5425Y944D02*
X5432Y944D01*
X0Y943D02*
X7Y943D01*
X5425Y943D02*
X5432Y943D01*
X0Y942D02*
X7Y942D01*
X5425Y942D02*
X5432Y942D01*
X0Y941D02*
X7Y941D01*
X5425Y941D02*
X5432Y941D01*
X0Y940D02*
X7Y940D01*
X5425Y940D02*
X5432Y940D01*
X0Y939D02*
X7Y939D01*
X5425Y939D02*
X5432Y939D01*
X0Y938D02*
X7Y938D01*
X5425Y938D02*
X5432Y938D01*
X0Y937D02*
X7Y937D01*
X5425Y937D02*
X5432Y937D01*
X0Y936D02*
X7Y936D01*
X5425Y936D02*
X5432Y936D01*
X0Y935D02*
X7Y935D01*
X5425Y935D02*
X5432Y935D01*
X0Y934D02*
X7Y934D01*
X5425Y934D02*
X5432Y934D01*
X0Y933D02*
X7Y933D01*
X5425Y933D02*
X5432Y933D01*
X0Y932D02*
X7Y932D01*
X5425Y932D02*
X5432Y932D01*
X0Y931D02*
X7Y931D01*
X5425Y931D02*
X5432Y931D01*
X0Y930D02*
X7Y930D01*
X5425Y930D02*
X5432Y930D01*
X0Y929D02*
X7Y929D01*
X5425Y929D02*
X5432Y929D01*
X0Y928D02*
X7Y928D01*
X5425Y928D02*
X5432Y928D01*
X0Y927D02*
X7Y927D01*
X5425Y927D02*
X5432Y927D01*
X0Y926D02*
X7Y926D01*
X5425Y926D02*
X5432Y926D01*
X0Y925D02*
X7Y925D01*
X5425Y925D02*
X5432Y925D01*
X0Y924D02*
X7Y924D01*
X5425Y924D02*
X5432Y924D01*
X0Y923D02*
X7Y923D01*
X5425Y923D02*
X5432Y923D01*
X0Y922D02*
X7Y922D01*
X5425Y922D02*
X5432Y922D01*
X0Y921D02*
X7Y921D01*
X5425Y921D02*
X5432Y921D01*
X0Y920D02*
X7Y920D01*
X5425Y920D02*
X5432Y920D01*
X0Y919D02*
X7Y919D01*
X5425Y919D02*
X5432Y919D01*
X0Y918D02*
X7Y918D01*
X5425Y918D02*
X5432Y918D01*
X0Y917D02*
X7Y917D01*
X5425Y917D02*
X5432Y917D01*
X0Y916D02*
X7Y916D01*
X5425Y916D02*
X5432Y916D01*
X0Y915D02*
X7Y915D01*
X5425Y915D02*
X5432Y915D01*
X0Y914D02*
X7Y914D01*
X5425Y914D02*
X5432Y914D01*
X0Y913D02*
X7Y913D01*
X5425Y913D02*
X5432Y913D01*
X0Y912D02*
X7Y912D01*
X5425Y912D02*
X5432Y912D01*
X0Y911D02*
X7Y911D01*
X5425Y911D02*
X5432Y911D01*
X0Y910D02*
X7Y910D01*
X5425Y910D02*
X5432Y910D01*
X0Y909D02*
X7Y909D01*
X5425Y909D02*
X5432Y909D01*
X0Y908D02*
X7Y908D01*
X5425Y908D02*
X5432Y908D01*
X0Y907D02*
X7Y907D01*
X5425Y907D02*
X5432Y907D01*
X0Y906D02*
X7Y906D01*
X5425Y906D02*
X5432Y906D01*
X0Y905D02*
X7Y905D01*
X5425Y905D02*
X5432Y905D01*
X0Y904D02*
X7Y904D01*
X5425Y904D02*
X5432Y904D01*
X0Y903D02*
X7Y903D01*
X5425Y903D02*
X5432Y903D01*
X0Y902D02*
X7Y902D01*
X5425Y902D02*
X5432Y902D01*
X0Y901D02*
X7Y901D01*
X5425Y901D02*
X5432Y901D01*
X0Y900D02*
X7Y900D01*
X5425Y900D02*
X5432Y900D01*
X0Y899D02*
X7Y899D01*
X5425Y899D02*
X5432Y899D01*
X0Y898D02*
X7Y898D01*
X5425Y898D02*
X5432Y898D01*
X0Y897D02*
X7Y897D01*
X5425Y897D02*
X5432Y897D01*
X0Y896D02*
X7Y896D01*
X5425Y896D02*
X5432Y896D01*
X0Y895D02*
X7Y895D01*
X5425Y895D02*
X5432Y895D01*
X0Y894D02*
X7Y894D01*
X5425Y894D02*
X5432Y894D01*
X0Y893D02*
X7Y893D01*
X5425Y893D02*
X5432Y893D01*
X0Y892D02*
X7Y892D01*
X5425Y892D02*
X5432Y892D01*
X0Y891D02*
X7Y891D01*
X5425Y891D02*
X5432Y891D01*
X0Y890D02*
X7Y890D01*
X5425Y890D02*
X5432Y890D01*
X0Y889D02*
X7Y889D01*
X5425Y889D02*
X5432Y889D01*
X0Y888D02*
X7Y888D01*
X5425Y888D02*
X5432Y888D01*
X0Y887D02*
X7Y887D01*
X5425Y887D02*
X5432Y887D01*
X0Y886D02*
X7Y886D01*
X5425Y886D02*
X5432Y886D01*
X0Y885D02*
X7Y885D01*
X5425Y885D02*
X5432Y885D01*
X0Y884D02*
X7Y884D01*
X5425Y884D02*
X5432Y884D01*
X0Y883D02*
X7Y883D01*
X5425Y883D02*
X5432Y883D01*
X0Y882D02*
X7Y882D01*
X5425Y882D02*
X5432Y882D01*
X0Y881D02*
X7Y881D01*
X5425Y881D02*
X5432Y881D01*
X0Y880D02*
X7Y880D01*
X5425Y880D02*
X5432Y880D01*
X0Y879D02*
X7Y879D01*
X5425Y879D02*
X5432Y879D01*
X0Y878D02*
X7Y878D01*
X5425Y878D02*
X5432Y878D01*
X0Y877D02*
X7Y877D01*
X5425Y877D02*
X5432Y877D01*
X0Y876D02*
X7Y876D01*
X5425Y876D02*
X5432Y876D01*
X0Y875D02*
X7Y875D01*
X5425Y875D02*
X5432Y875D01*
X0Y874D02*
X7Y874D01*
X5425Y874D02*
X5432Y874D01*
X0Y873D02*
X7Y873D01*
X5425Y873D02*
X5432Y873D01*
X0Y872D02*
X7Y872D01*
X5425Y872D02*
X5432Y872D01*
X0Y871D02*
X7Y871D01*
X5425Y871D02*
X5432Y871D01*
X0Y870D02*
X7Y870D01*
X5425Y870D02*
X5432Y870D01*
X0Y869D02*
X7Y869D01*
X5425Y869D02*
X5432Y869D01*
X0Y868D02*
X7Y868D01*
X5425Y868D02*
X5432Y868D01*
X0Y867D02*
X7Y867D01*
X5425Y867D02*
X5432Y867D01*
X0Y866D02*
X7Y866D01*
X5425Y866D02*
X5432Y866D01*
X0Y865D02*
X7Y865D01*
X5425Y865D02*
X5432Y865D01*
X0Y864D02*
X7Y864D01*
X5425Y864D02*
X5432Y864D01*
X0Y863D02*
X7Y863D01*
X5425Y863D02*
X5432Y863D01*
X0Y862D02*
X7Y862D01*
X5425Y862D02*
X5432Y862D01*
X0Y861D02*
X7Y861D01*
X5425Y861D02*
X5432Y861D01*
X0Y860D02*
X7Y860D01*
X5425Y860D02*
X5432Y860D01*
X0Y859D02*
X7Y859D01*
X5425Y859D02*
X5432Y859D01*
X0Y858D02*
X7Y858D01*
X5425Y858D02*
X5432Y858D01*
X0Y857D02*
X7Y857D01*
X5425Y857D02*
X5432Y857D01*
X0Y856D02*
X7Y856D01*
X5425Y856D02*
X5432Y856D01*
X0Y855D02*
X7Y855D01*
X5425Y855D02*
X5432Y855D01*
X0Y854D02*
X7Y854D01*
X5425Y854D02*
X5432Y854D01*
X0Y853D02*
X7Y853D01*
X5425Y853D02*
X5432Y853D01*
X0Y852D02*
X7Y852D01*
X5425Y852D02*
X5432Y852D01*
X0Y851D02*
X7Y851D01*
X5425Y851D02*
X5432Y851D01*
X0Y850D02*
X7Y850D01*
X5425Y850D02*
X5432Y850D01*
X0Y849D02*
X7Y849D01*
X5425Y849D02*
X5432Y849D01*
X0Y848D02*
X7Y848D01*
X5425Y848D02*
X5432Y848D01*
X0Y847D02*
X7Y847D01*
X5425Y847D02*
X5432Y847D01*
X0Y846D02*
X7Y846D01*
X5425Y846D02*
X5432Y846D01*
X0Y845D02*
X7Y845D01*
X5425Y845D02*
X5432Y845D01*
X0Y844D02*
X7Y844D01*
X5425Y844D02*
X5432Y844D01*
X0Y843D02*
X7Y843D01*
X5425Y843D02*
X5432Y843D01*
X0Y842D02*
X7Y842D01*
X5425Y842D02*
X5432Y842D01*
X0Y841D02*
X7Y841D01*
X5425Y841D02*
X5432Y841D01*
X0Y840D02*
X7Y840D01*
X5425Y840D02*
X5432Y840D01*
X0Y839D02*
X7Y839D01*
X5425Y839D02*
X5432Y839D01*
X0Y838D02*
X7Y838D01*
X5425Y838D02*
X5432Y838D01*
X0Y837D02*
X7Y837D01*
X5425Y837D02*
X5432Y837D01*
X0Y836D02*
X7Y836D01*
X5425Y836D02*
X5432Y836D01*
X0Y835D02*
X7Y835D01*
X5425Y835D02*
X5432Y835D01*
X0Y834D02*
X7Y834D01*
X5425Y834D02*
X5432Y834D01*
X0Y833D02*
X7Y833D01*
X5425Y833D02*
X5432Y833D01*
X0Y832D02*
X7Y832D01*
X5425Y832D02*
X5432Y832D01*
X0Y831D02*
X7Y831D01*
X5425Y831D02*
X5432Y831D01*
X0Y830D02*
X7Y830D01*
X5425Y830D02*
X5432Y830D01*
X0Y829D02*
X7Y829D01*
X5425Y829D02*
X5432Y829D01*
X0Y828D02*
X7Y828D01*
X5425Y828D02*
X5432Y828D01*
X0Y827D02*
X7Y827D01*
X5425Y827D02*
X5432Y827D01*
X0Y826D02*
X7Y826D01*
X5425Y826D02*
X5432Y826D01*
X0Y825D02*
X7Y825D01*
X5425Y825D02*
X5432Y825D01*
X0Y824D02*
X7Y824D01*
X5425Y824D02*
X5432Y824D01*
X0Y823D02*
X7Y823D01*
X5425Y823D02*
X5432Y823D01*
X0Y822D02*
X7Y822D01*
X5425Y822D02*
X5432Y822D01*
X0Y821D02*
X7Y821D01*
X5425Y821D02*
X5432Y821D01*
X0Y820D02*
X7Y820D01*
X5425Y820D02*
X5432Y820D01*
X0Y819D02*
X7Y819D01*
X5425Y819D02*
X5432Y819D01*
X0Y818D02*
X7Y818D01*
X5425Y818D02*
X5432Y818D01*
X0Y817D02*
X7Y817D01*
X5425Y817D02*
X5432Y817D01*
X0Y816D02*
X7Y816D01*
X5425Y816D02*
X5432Y816D01*
X0Y815D02*
X7Y815D01*
X5425Y815D02*
X5432Y815D01*
X0Y814D02*
X7Y814D01*
X5425Y814D02*
X5432Y814D01*
X0Y813D02*
X7Y813D01*
X5425Y813D02*
X5432Y813D01*
X0Y812D02*
X7Y812D01*
X5425Y812D02*
X5432Y812D01*
X0Y811D02*
X7Y811D01*
X5425Y811D02*
X5432Y811D01*
X0Y810D02*
X7Y810D01*
X5425Y810D02*
X5432Y810D01*
X0Y809D02*
X7Y809D01*
X5425Y809D02*
X5432Y809D01*
X0Y808D02*
X7Y808D01*
X5425Y808D02*
X5432Y808D01*
X0Y807D02*
X7Y807D01*
X5425Y807D02*
X5432Y807D01*
X0Y806D02*
X7Y806D01*
X5425Y806D02*
X5432Y806D01*
X0Y805D02*
X7Y805D01*
X5425Y805D02*
X5432Y805D01*
X0Y804D02*
X7Y804D01*
X5425Y804D02*
X5432Y804D01*
X0Y803D02*
X7Y803D01*
X5425Y803D02*
X5432Y803D01*
X0Y802D02*
X7Y802D01*
X5425Y802D02*
X5432Y802D01*
X0Y801D02*
X7Y801D01*
X5425Y801D02*
X5432Y801D01*
X0Y800D02*
X7Y800D01*
X5425Y800D02*
X5432Y800D01*
X0Y799D02*
X7Y799D01*
X5425Y799D02*
X5432Y799D01*
X0Y798D02*
X7Y798D01*
X5425Y798D02*
X5432Y798D01*
X0Y797D02*
X7Y797D01*
X5425Y797D02*
X5432Y797D01*
X0Y796D02*
X7Y796D01*
X5425Y796D02*
X5432Y796D01*
X0Y795D02*
X7Y795D01*
X5425Y795D02*
X5432Y795D01*
X0Y794D02*
X7Y794D01*
X5425Y794D02*
X5432Y794D01*
X0Y793D02*
X7Y793D01*
X5425Y793D02*
X5432Y793D01*
X0Y792D02*
X7Y792D01*
X5425Y792D02*
X5432Y792D01*
X0Y791D02*
X7Y791D01*
X5425Y791D02*
X5432Y791D01*
X0Y790D02*
X7Y790D01*
X5425Y790D02*
X5432Y790D01*
X0Y789D02*
X7Y789D01*
X5425Y789D02*
X5432Y789D01*
X0Y788D02*
X7Y788D01*
X5425Y788D02*
X5432Y788D01*
X0Y787D02*
X7Y787D01*
X5425Y787D02*
X5432Y787D01*
X0Y786D02*
X7Y786D01*
X5425Y786D02*
X5432Y786D01*
X0Y785D02*
X7Y785D01*
X5425Y785D02*
X5432Y785D01*
X0Y784D02*
X7Y784D01*
X5425Y784D02*
X5432Y784D01*
X0Y783D02*
X7Y783D01*
X5425Y783D02*
X5432Y783D01*
X0Y782D02*
X7Y782D01*
X5425Y782D02*
X5432Y782D01*
X0Y781D02*
X7Y781D01*
X5425Y781D02*
X5432Y781D01*
X0Y780D02*
X7Y780D01*
X5425Y780D02*
X5432Y780D01*
X0Y779D02*
X7Y779D01*
X5425Y779D02*
X5432Y779D01*
X0Y778D02*
X7Y778D01*
X5425Y778D02*
X5432Y778D01*
X0Y777D02*
X7Y777D01*
X5425Y777D02*
X5432Y777D01*
X0Y776D02*
X7Y776D01*
X5425Y776D02*
X5432Y776D01*
X0Y775D02*
X7Y775D01*
X5425Y775D02*
X5432Y775D01*
X0Y774D02*
X7Y774D01*
X5425Y774D02*
X5432Y774D01*
X0Y773D02*
X7Y773D01*
X5425Y773D02*
X5432Y773D01*
X0Y772D02*
X7Y772D01*
X5425Y772D02*
X5432Y772D01*
X0Y771D02*
X7Y771D01*
X5425Y771D02*
X5432Y771D01*
X0Y770D02*
X7Y770D01*
X5425Y770D02*
X5432Y770D01*
X0Y769D02*
X7Y769D01*
X5425Y769D02*
X5432Y769D01*
X0Y768D02*
X7Y768D01*
X5425Y768D02*
X5432Y768D01*
X0Y767D02*
X7Y767D01*
X5425Y767D02*
X5432Y767D01*
X0Y766D02*
X7Y766D01*
X5425Y766D02*
X5432Y766D01*
X0Y765D02*
X7Y765D01*
X5425Y765D02*
X5432Y765D01*
X0Y764D02*
X7Y764D01*
X5425Y764D02*
X5432Y764D01*
X0Y763D02*
X7Y763D01*
X5425Y763D02*
X5432Y763D01*
X0Y762D02*
X7Y762D01*
X5425Y762D02*
X5432Y762D01*
X0Y761D02*
X7Y761D01*
X5425Y761D02*
X5432Y761D01*
X0Y760D02*
X7Y760D01*
X5425Y760D02*
X5432Y760D01*
X0Y759D02*
X7Y759D01*
X5425Y759D02*
X5432Y759D01*
X0Y758D02*
X7Y758D01*
X5425Y758D02*
X5432Y758D01*
X0Y757D02*
X7Y757D01*
X5425Y757D02*
X5432Y757D01*
X0Y756D02*
X7Y756D01*
X5425Y756D02*
X5432Y756D01*
X0Y755D02*
X7Y755D01*
X5425Y755D02*
X5432Y755D01*
X0Y754D02*
X7Y754D01*
X5425Y754D02*
X5432Y754D01*
X0Y753D02*
X7Y753D01*
X5425Y753D02*
X5432Y753D01*
X0Y752D02*
X7Y752D01*
X5425Y752D02*
X5432Y752D01*
X0Y751D02*
X7Y751D01*
X5425Y751D02*
X5432Y751D01*
X0Y750D02*
X7Y750D01*
X5425Y750D02*
X5432Y750D01*
X0Y749D02*
X7Y749D01*
X5425Y749D02*
X5432Y749D01*
X0Y748D02*
X7Y748D01*
X5425Y748D02*
X5432Y748D01*
X0Y747D02*
X7Y747D01*
X5425Y747D02*
X5432Y747D01*
X0Y746D02*
X7Y746D01*
X5425Y746D02*
X5432Y746D01*
X0Y745D02*
X7Y745D01*
X5425Y745D02*
X5432Y745D01*
X0Y744D02*
X7Y744D01*
X5425Y744D02*
X5432Y744D01*
X0Y743D02*
X7Y743D01*
X5425Y743D02*
X5432Y743D01*
X0Y742D02*
X7Y742D01*
X5425Y742D02*
X5432Y742D01*
X0Y741D02*
X7Y741D01*
X5425Y741D02*
X5432Y741D01*
X0Y740D02*
X7Y740D01*
X5425Y740D02*
X5432Y740D01*
X0Y739D02*
X7Y739D01*
X5425Y739D02*
X5432Y739D01*
X0Y738D02*
X7Y738D01*
X5425Y738D02*
X5432Y738D01*
X0Y737D02*
X7Y737D01*
X5425Y737D02*
X5432Y737D01*
X0Y736D02*
X7Y736D01*
X5425Y736D02*
X5432Y736D01*
X0Y735D02*
X7Y735D01*
X5425Y735D02*
X5432Y735D01*
X0Y734D02*
X7Y734D01*
X5425Y734D02*
X5432Y734D01*
X0Y733D02*
X7Y733D01*
X5425Y733D02*
X5432Y733D01*
X0Y732D02*
X7Y732D01*
X5425Y732D02*
X5432Y732D01*
X0Y731D02*
X7Y731D01*
X5425Y731D02*
X5432Y731D01*
X0Y730D02*
X7Y730D01*
X5425Y730D02*
X5432Y730D01*
X0Y729D02*
X7Y729D01*
X5425Y729D02*
X5432Y729D01*
X0Y728D02*
X7Y728D01*
X5425Y728D02*
X5432Y728D01*
X0Y727D02*
X7Y727D01*
X5425Y727D02*
X5432Y727D01*
X0Y726D02*
X7Y726D01*
X5425Y726D02*
X5432Y726D01*
X0Y725D02*
X7Y725D01*
X5425Y725D02*
X5432Y725D01*
X0Y724D02*
X7Y724D01*
X5425Y724D02*
X5432Y724D01*
X0Y723D02*
X7Y723D01*
X5425Y723D02*
X5432Y723D01*
X0Y722D02*
X7Y722D01*
X5425Y722D02*
X5432Y722D01*
X0Y721D02*
X7Y721D01*
X5425Y721D02*
X5432Y721D01*
X0Y720D02*
X7Y720D01*
X5425Y720D02*
X5432Y720D01*
X0Y719D02*
X7Y719D01*
X5425Y719D02*
X5432Y719D01*
X0Y718D02*
X7Y718D01*
X5425Y718D02*
X5432Y718D01*
X0Y717D02*
X7Y717D01*
X5425Y717D02*
X5432Y717D01*
X0Y716D02*
X7Y716D01*
X5425Y716D02*
X5432Y716D01*
X0Y715D02*
X7Y715D01*
X5425Y715D02*
X5432Y715D01*
X0Y714D02*
X7Y714D01*
X5425Y714D02*
X5432Y714D01*
X0Y713D02*
X7Y713D01*
X5425Y713D02*
X5432Y713D01*
X0Y712D02*
X7Y712D01*
X5425Y712D02*
X5432Y712D01*
X0Y711D02*
X7Y711D01*
X5425Y711D02*
X5432Y711D01*
X0Y710D02*
X7Y710D01*
X5425Y710D02*
X5432Y710D01*
X0Y709D02*
X7Y709D01*
X5425Y709D02*
X5432Y709D01*
X0Y708D02*
X7Y708D01*
X5425Y708D02*
X5432Y708D01*
X0Y707D02*
X7Y707D01*
X5425Y707D02*
X5432Y707D01*
X0Y706D02*
X7Y706D01*
X5425Y706D02*
X5432Y706D01*
X0Y705D02*
X7Y705D01*
X5425Y705D02*
X5432Y705D01*
X0Y704D02*
X7Y704D01*
X5425Y704D02*
X5432Y704D01*
X0Y703D02*
X7Y703D01*
X5425Y703D02*
X5432Y703D01*
X0Y702D02*
X7Y702D01*
X5425Y702D02*
X5432Y702D01*
X0Y701D02*
X7Y701D01*
X5425Y701D02*
X5432Y701D01*
X0Y700D02*
X7Y700D01*
X5425Y700D02*
X5432Y700D01*
X0Y699D02*
X7Y699D01*
X5425Y699D02*
X5432Y699D01*
X0Y698D02*
X7Y698D01*
X5425Y698D02*
X5432Y698D01*
X0Y697D02*
X7Y697D01*
X5425Y697D02*
X5432Y697D01*
X0Y696D02*
X7Y696D01*
X5425Y696D02*
X5432Y696D01*
X0Y695D02*
X7Y695D01*
X5425Y695D02*
X5432Y695D01*
X0Y694D02*
X7Y694D01*
X5425Y694D02*
X5432Y694D01*
X0Y693D02*
X7Y693D01*
X5425Y693D02*
X5432Y693D01*
X0Y692D02*
X7Y692D01*
X5425Y692D02*
X5432Y692D01*
X0Y691D02*
X7Y691D01*
X5425Y691D02*
X5432Y691D01*
X0Y690D02*
X7Y690D01*
X5425Y690D02*
X5432Y690D01*
X0Y689D02*
X7Y689D01*
X5425Y689D02*
X5432Y689D01*
X0Y688D02*
X7Y688D01*
X5425Y688D02*
X5432Y688D01*
X0Y687D02*
X7Y687D01*
X5425Y687D02*
X5432Y687D01*
X0Y686D02*
X7Y686D01*
X5425Y686D02*
X5432Y686D01*
X0Y685D02*
X7Y685D01*
X5425Y685D02*
X5432Y685D01*
X0Y684D02*
X7Y684D01*
X5425Y684D02*
X5432Y684D01*
X0Y683D02*
X7Y683D01*
X5425Y683D02*
X5432Y683D01*
X0Y682D02*
X7Y682D01*
X5425Y682D02*
X5432Y682D01*
X0Y681D02*
X7Y681D01*
X5425Y681D02*
X5432Y681D01*
X0Y680D02*
X7Y680D01*
X5425Y680D02*
X5432Y680D01*
X0Y679D02*
X7Y679D01*
X5425Y679D02*
X5432Y679D01*
X0Y678D02*
X7Y678D01*
X5425Y678D02*
X5432Y678D01*
X0Y677D02*
X7Y677D01*
X5425Y677D02*
X5432Y677D01*
X0Y676D02*
X7Y676D01*
X5425Y676D02*
X5432Y676D01*
X0Y675D02*
X7Y675D01*
X5425Y675D02*
X5432Y675D01*
X0Y674D02*
X7Y674D01*
X5425Y674D02*
X5432Y674D01*
X0Y673D02*
X7Y673D01*
X5425Y673D02*
X5432Y673D01*
X0Y672D02*
X7Y672D01*
X5425Y672D02*
X5432Y672D01*
X0Y671D02*
X7Y671D01*
X5425Y671D02*
X5432Y671D01*
X0Y670D02*
X7Y670D01*
X5425Y670D02*
X5432Y670D01*
X0Y669D02*
X7Y669D01*
X5425Y669D02*
X5432Y669D01*
X0Y668D02*
X7Y668D01*
X5425Y668D02*
X5432Y668D01*
X0Y667D02*
X7Y667D01*
X5425Y667D02*
X5432Y667D01*
X0Y666D02*
X7Y666D01*
X5425Y666D02*
X5432Y666D01*
X0Y665D02*
X7Y665D01*
X5425Y665D02*
X5432Y665D01*
X0Y664D02*
X7Y664D01*
X5425Y664D02*
X5432Y664D01*
X0Y663D02*
X7Y663D01*
X5425Y663D02*
X5432Y663D01*
X0Y662D02*
X7Y662D01*
X5425Y662D02*
X5432Y662D01*
X0Y661D02*
X7Y661D01*
X5425Y661D02*
X5432Y661D01*
X0Y660D02*
X7Y660D01*
X5425Y660D02*
X5432Y660D01*
X0Y659D02*
X7Y659D01*
X5425Y659D02*
X5432Y659D01*
X0Y658D02*
X7Y658D01*
X5425Y658D02*
X5432Y658D01*
X0Y657D02*
X7Y657D01*
X5425Y657D02*
X5432Y657D01*
X0Y656D02*
X7Y656D01*
X5425Y656D02*
X5432Y656D01*
X0Y655D02*
X7Y655D01*
X5425Y655D02*
X5432Y655D01*
X0Y654D02*
X7Y654D01*
X5425Y654D02*
X5432Y654D01*
X0Y653D02*
X7Y653D01*
X5425Y653D02*
X5432Y653D01*
X0Y652D02*
X7Y652D01*
X5425Y652D02*
X5432Y652D01*
X0Y651D02*
X7Y651D01*
X5425Y651D02*
X5432Y651D01*
X0Y650D02*
X7Y650D01*
X5425Y650D02*
X5432Y650D01*
X0Y649D02*
X7Y649D01*
X5425Y649D02*
X5432Y649D01*
X0Y648D02*
X7Y648D01*
X5425Y648D02*
X5432Y648D01*
X0Y647D02*
X7Y647D01*
X5425Y647D02*
X5432Y647D01*
X0Y646D02*
X7Y646D01*
X5425Y646D02*
X5432Y646D01*
X0Y645D02*
X7Y645D01*
X5425Y645D02*
X5432Y645D01*
X0Y644D02*
X7Y644D01*
X5425Y644D02*
X5432Y644D01*
X0Y643D02*
X7Y643D01*
X5425Y643D02*
X5432Y643D01*
X0Y642D02*
X7Y642D01*
X5425Y642D02*
X5432Y642D01*
X0Y641D02*
X7Y641D01*
X5425Y641D02*
X5432Y641D01*
X0Y640D02*
X7Y640D01*
X5425Y640D02*
X5432Y640D01*
X0Y639D02*
X7Y639D01*
X5425Y639D02*
X5432Y639D01*
X0Y638D02*
X7Y638D01*
X5425Y638D02*
X5432Y638D01*
X0Y637D02*
X7Y637D01*
X5425Y637D02*
X5432Y637D01*
X0Y636D02*
X7Y636D01*
X5425Y636D02*
X5432Y636D01*
X0Y635D02*
X7Y635D01*
X5425Y635D02*
X5432Y635D01*
X0Y634D02*
X7Y634D01*
X5425Y634D02*
X5432Y634D01*
X0Y633D02*
X7Y633D01*
X5425Y633D02*
X5432Y633D01*
X0Y632D02*
X7Y632D01*
X5425Y632D02*
X5432Y632D01*
X0Y631D02*
X7Y631D01*
X5425Y631D02*
X5432Y631D01*
X0Y630D02*
X7Y630D01*
X5425Y630D02*
X5432Y630D01*
X0Y629D02*
X7Y629D01*
X5425Y629D02*
X5432Y629D01*
X0Y628D02*
X7Y628D01*
X5425Y628D02*
X5432Y628D01*
X0Y627D02*
X7Y627D01*
X5425Y627D02*
X5432Y627D01*
X0Y626D02*
X7Y626D01*
X5425Y626D02*
X5432Y626D01*
X0Y625D02*
X7Y625D01*
X5425Y625D02*
X5432Y625D01*
X0Y624D02*
X7Y624D01*
X5425Y624D02*
X5432Y624D01*
X0Y623D02*
X7Y623D01*
X5425Y623D02*
X5432Y623D01*
X0Y622D02*
X7Y622D01*
X5425Y622D02*
X5432Y622D01*
X0Y621D02*
X7Y621D01*
X5425Y621D02*
X5432Y621D01*
X0Y620D02*
X7Y620D01*
X5425Y620D02*
X5432Y620D01*
X0Y619D02*
X7Y619D01*
X5425Y619D02*
X5432Y619D01*
X0Y618D02*
X7Y618D01*
X5425Y618D02*
X5432Y618D01*
X0Y617D02*
X7Y617D01*
X5425Y617D02*
X5432Y617D01*
X0Y616D02*
X7Y616D01*
X5425Y616D02*
X5432Y616D01*
X0Y615D02*
X7Y615D01*
X5425Y615D02*
X5432Y615D01*
X0Y614D02*
X7Y614D01*
X5425Y614D02*
X5432Y614D01*
X0Y613D02*
X7Y613D01*
X5425Y613D02*
X5432Y613D01*
X0Y612D02*
X7Y612D01*
X5425Y612D02*
X5432Y612D01*
X0Y611D02*
X7Y611D01*
X5425Y611D02*
X5432Y611D01*
X0Y610D02*
X7Y610D01*
X5425Y610D02*
X5432Y610D01*
X0Y609D02*
X7Y609D01*
X5425Y609D02*
X5432Y609D01*
X0Y608D02*
X7Y608D01*
X5425Y608D02*
X5432Y608D01*
X0Y607D02*
X7Y607D01*
X5425Y607D02*
X5432Y607D01*
X0Y606D02*
X7Y606D01*
X5425Y606D02*
X5432Y606D01*
X0Y605D02*
X7Y605D01*
X5425Y605D02*
X5432Y605D01*
X0Y604D02*
X7Y604D01*
X5425Y604D02*
X5432Y604D01*
X0Y603D02*
X7Y603D01*
X5425Y603D02*
X5432Y603D01*
X0Y602D02*
X7Y602D01*
X5425Y602D02*
X5432Y602D01*
X0Y601D02*
X7Y601D01*
X5425Y601D02*
X5432Y601D01*
X0Y600D02*
X7Y600D01*
X5425Y600D02*
X5432Y600D01*
X0Y599D02*
X7Y599D01*
X5425Y599D02*
X5432Y599D01*
X0Y598D02*
X7Y598D01*
X5425Y598D02*
X5432Y598D01*
X0Y597D02*
X7Y597D01*
X5425Y597D02*
X5432Y597D01*
X0Y596D02*
X7Y596D01*
X5425Y596D02*
X5432Y596D01*
X0Y595D02*
X7Y595D01*
X5425Y595D02*
X5432Y595D01*
X0Y594D02*
X7Y594D01*
X5425Y594D02*
X5432Y594D01*
X0Y593D02*
X7Y593D01*
X5425Y593D02*
X5432Y593D01*
X0Y592D02*
X7Y592D01*
X5425Y592D02*
X5432Y592D01*
X0Y591D02*
X7Y591D01*
X5425Y591D02*
X5432Y591D01*
X0Y590D02*
X7Y590D01*
X5425Y590D02*
X5432Y590D01*
X0Y589D02*
X7Y589D01*
X5425Y589D02*
X5432Y589D01*
X0Y588D02*
X7Y588D01*
X5425Y588D02*
X5432Y588D01*
X0Y587D02*
X7Y587D01*
X5425Y587D02*
X5432Y587D01*
X0Y586D02*
X7Y586D01*
X5425Y586D02*
X5432Y586D01*
X0Y585D02*
X7Y585D01*
X5425Y585D02*
X5432Y585D01*
X0Y584D02*
X7Y584D01*
X5425Y584D02*
X5432Y584D01*
X0Y583D02*
X7Y583D01*
X5425Y583D02*
X5432Y583D01*
X0Y582D02*
X7Y582D01*
X5425Y582D02*
X5432Y582D01*
X0Y581D02*
X7Y581D01*
X5425Y581D02*
X5432Y581D01*
X0Y580D02*
X7Y580D01*
X5425Y580D02*
X5432Y580D01*
X0Y579D02*
X7Y579D01*
X5425Y579D02*
X5432Y579D01*
X0Y578D02*
X7Y578D01*
X5425Y578D02*
X5432Y578D01*
X0Y577D02*
X7Y577D01*
X5425Y577D02*
X5432Y577D01*
X0Y576D02*
X7Y576D01*
X5425Y576D02*
X5432Y576D01*
X0Y575D02*
X7Y575D01*
X5425Y575D02*
X5432Y575D01*
X0Y574D02*
X7Y574D01*
X5425Y574D02*
X5432Y574D01*
X0Y573D02*
X7Y573D01*
X5425Y573D02*
X5432Y573D01*
X0Y572D02*
X7Y572D01*
X5425Y572D02*
X5432Y572D01*
X0Y571D02*
X7Y571D01*
X5425Y571D02*
X5432Y571D01*
X0Y570D02*
X7Y570D01*
X5425Y570D02*
X5432Y570D01*
X0Y569D02*
X7Y569D01*
X5425Y569D02*
X5432Y569D01*
X0Y568D02*
X7Y568D01*
X5425Y568D02*
X5432Y568D01*
X0Y567D02*
X7Y567D01*
X5425Y567D02*
X5432Y567D01*
X0Y566D02*
X7Y566D01*
X5425Y566D02*
X5432Y566D01*
X0Y565D02*
X7Y565D01*
X5425Y565D02*
X5432Y565D01*
X0Y564D02*
X7Y564D01*
X5425Y564D02*
X5432Y564D01*
X0Y563D02*
X7Y563D01*
X5425Y563D02*
X5432Y563D01*
X0Y562D02*
X7Y562D01*
X5425Y562D02*
X5432Y562D01*
X0Y561D02*
X7Y561D01*
X5425Y561D02*
X5432Y561D01*
X0Y560D02*
X7Y560D01*
X5425Y560D02*
X5432Y560D01*
X0Y559D02*
X7Y559D01*
X5425Y559D02*
X5432Y559D01*
X0Y558D02*
X7Y558D01*
X5425Y558D02*
X5432Y558D01*
X0Y557D02*
X7Y557D01*
X5425Y557D02*
X5432Y557D01*
X0Y556D02*
X7Y556D01*
X5425Y556D02*
X5432Y556D01*
X0Y555D02*
X7Y555D01*
X5425Y555D02*
X5432Y555D01*
X0Y554D02*
X7Y554D01*
X5425Y554D02*
X5432Y554D01*
X0Y553D02*
X7Y553D01*
X5425Y553D02*
X5432Y553D01*
X0Y552D02*
X7Y552D01*
X5425Y552D02*
X5432Y552D01*
X0Y551D02*
X7Y551D01*
X5425Y551D02*
X5432Y551D01*
X0Y550D02*
X7Y550D01*
X5425Y550D02*
X5432Y550D01*
X0Y549D02*
X7Y549D01*
X5425Y549D02*
X5432Y549D01*
X0Y548D02*
X7Y548D01*
X5425Y548D02*
X5432Y548D01*
X0Y547D02*
X7Y547D01*
X5425Y547D02*
X5432Y547D01*
X0Y546D02*
X7Y546D01*
X5425Y546D02*
X5432Y546D01*
X0Y545D02*
X7Y545D01*
X5425Y545D02*
X5432Y545D01*
X0Y544D02*
X7Y544D01*
X5425Y544D02*
X5432Y544D01*
X0Y543D02*
X7Y543D01*
X5425Y543D02*
X5432Y543D01*
X0Y542D02*
X7Y542D01*
X5425Y542D02*
X5432Y542D01*
X0Y541D02*
X7Y541D01*
X5425Y541D02*
X5432Y541D01*
X0Y540D02*
X7Y540D01*
X5425Y540D02*
X5432Y540D01*
X0Y539D02*
X7Y539D01*
X5425Y539D02*
X5432Y539D01*
X0Y538D02*
X7Y538D01*
X5425Y538D02*
X5432Y538D01*
X0Y537D02*
X7Y537D01*
X5425Y537D02*
X5432Y537D01*
X0Y536D02*
X7Y536D01*
X5425Y536D02*
X5432Y536D01*
X0Y535D02*
X7Y535D01*
X5425Y535D02*
X5432Y535D01*
X0Y534D02*
X7Y534D01*
X5425Y534D02*
X5432Y534D01*
X0Y533D02*
X7Y533D01*
X5425Y533D02*
X5432Y533D01*
X0Y532D02*
X7Y532D01*
X5425Y532D02*
X5432Y532D01*
X0Y531D02*
X7Y531D01*
X5425Y531D02*
X5432Y531D01*
X0Y530D02*
X7Y530D01*
X5425Y530D02*
X5432Y530D01*
X0Y529D02*
X7Y529D01*
X5425Y529D02*
X5432Y529D01*
X0Y528D02*
X7Y528D01*
X5425Y528D02*
X5432Y528D01*
X0Y527D02*
X7Y527D01*
X5425Y527D02*
X5432Y527D01*
X0Y526D02*
X7Y526D01*
X5425Y526D02*
X5432Y526D01*
X0Y525D02*
X7Y525D01*
X5425Y525D02*
X5432Y525D01*
X0Y524D02*
X7Y524D01*
X5425Y524D02*
X5432Y524D01*
X0Y523D02*
X7Y523D01*
X5425Y523D02*
X5432Y523D01*
X0Y522D02*
X7Y522D01*
X5425Y522D02*
X5432Y522D01*
X0Y521D02*
X7Y521D01*
X5425Y521D02*
X5432Y521D01*
X0Y520D02*
X7Y520D01*
X5425Y520D02*
X5432Y520D01*
X0Y519D02*
X7Y519D01*
X5425Y519D02*
X5432Y519D01*
X0Y518D02*
X7Y518D01*
X5425Y518D02*
X5432Y518D01*
X0Y517D02*
X7Y517D01*
X5425Y517D02*
X5432Y517D01*
X0Y516D02*
X7Y516D01*
X5425Y516D02*
X5432Y516D01*
X0Y515D02*
X7Y515D01*
X5425Y515D02*
X5432Y515D01*
X0Y514D02*
X7Y514D01*
X5425Y514D02*
X5432Y514D01*
X0Y513D02*
X7Y513D01*
X5425Y513D02*
X5432Y513D01*
X0Y512D02*
X7Y512D01*
X5425Y512D02*
X5432Y512D01*
X0Y511D02*
X7Y511D01*
X5425Y511D02*
X5432Y511D01*
X0Y510D02*
X7Y510D01*
X5425Y510D02*
X5432Y510D01*
X0Y509D02*
X7Y509D01*
X5425Y509D02*
X5432Y509D01*
X0Y508D02*
X7Y508D01*
X5425Y508D02*
X5432Y508D01*
X0Y507D02*
X7Y507D01*
X5425Y507D02*
X5432Y507D01*
X0Y506D02*
X7Y506D01*
X5425Y506D02*
X5432Y506D01*
X0Y505D02*
X7Y505D01*
X5425Y505D02*
X5432Y505D01*
X0Y504D02*
X7Y504D01*
X5425Y504D02*
X5432Y504D01*
X0Y503D02*
X7Y503D01*
X5425Y503D02*
X5432Y503D01*
X0Y502D02*
X7Y502D01*
X5425Y502D02*
X5432Y502D01*
X0Y501D02*
X7Y501D01*
X5425Y501D02*
X5432Y501D01*
X0Y500D02*
X7Y500D01*
X5425Y500D02*
X5432Y500D01*
X0Y499D02*
X7Y499D01*
X5425Y499D02*
X5432Y499D01*
X0Y498D02*
X7Y498D01*
X5425Y498D02*
X5432Y498D01*
X0Y497D02*
X7Y497D01*
X5425Y497D02*
X5432Y497D01*
X0Y496D02*
X7Y496D01*
X5425Y496D02*
X5432Y496D01*
X0Y495D02*
X7Y495D01*
X5425Y495D02*
X5432Y495D01*
X0Y494D02*
X7Y494D01*
X5425Y494D02*
X5432Y494D01*
X0Y493D02*
X7Y493D01*
X5425Y493D02*
X5432Y493D01*
X0Y492D02*
X7Y492D01*
X5425Y492D02*
X5432Y492D01*
X0Y491D02*
X7Y491D01*
X5425Y491D02*
X5432Y491D01*
X0Y490D02*
X7Y490D01*
X5425Y490D02*
X5432Y490D01*
X0Y489D02*
X7Y489D01*
X5425Y489D02*
X5432Y489D01*
X0Y488D02*
X7Y488D01*
X5425Y488D02*
X5432Y488D01*
X0Y487D02*
X7Y487D01*
X5425Y487D02*
X5432Y487D01*
X0Y486D02*
X7Y486D01*
X5425Y486D02*
X5432Y486D01*
X0Y485D02*
X7Y485D01*
X5425Y485D02*
X5432Y485D01*
X0Y484D02*
X7Y484D01*
X5425Y484D02*
X5432Y484D01*
X0Y483D02*
X7Y483D01*
X5425Y483D02*
X5432Y483D01*
X0Y482D02*
X7Y482D01*
X5425Y482D02*
X5432Y482D01*
X0Y481D02*
X7Y481D01*
X5425Y481D02*
X5432Y481D01*
X0Y480D02*
X7Y480D01*
X5425Y480D02*
X5432Y480D01*
X0Y479D02*
X7Y479D01*
X5425Y479D02*
X5432Y479D01*
X0Y478D02*
X7Y478D01*
X5425Y478D02*
X5432Y478D01*
X0Y477D02*
X7Y477D01*
X5425Y477D02*
X5432Y477D01*
X0Y476D02*
X7Y476D01*
X5425Y476D02*
X5432Y476D01*
X0Y475D02*
X7Y475D01*
X5425Y475D02*
X5432Y475D01*
X0Y474D02*
X7Y474D01*
X5425Y474D02*
X5432Y474D01*
X0Y473D02*
X7Y473D01*
X5425Y473D02*
X5432Y473D01*
X0Y472D02*
X7Y472D01*
X5425Y472D02*
X5432Y472D01*
X0Y471D02*
X7Y471D01*
X5425Y471D02*
X5432Y471D01*
X0Y470D02*
X7Y470D01*
X5425Y470D02*
X5432Y470D01*
X0Y469D02*
X7Y469D01*
X5425Y469D02*
X5432Y469D01*
X0Y468D02*
X7Y468D01*
X5425Y468D02*
X5432Y468D01*
X0Y467D02*
X7Y467D01*
X5425Y467D02*
X5432Y467D01*
X0Y466D02*
X7Y466D01*
X5425Y466D02*
X5432Y466D01*
X0Y465D02*
X7Y465D01*
X5425Y465D02*
X5432Y465D01*
X0Y464D02*
X7Y464D01*
X5425Y464D02*
X5432Y464D01*
X0Y463D02*
X7Y463D01*
X5425Y463D02*
X5432Y463D01*
X0Y462D02*
X7Y462D01*
X5425Y462D02*
X5432Y462D01*
X0Y461D02*
X7Y461D01*
X5425Y461D02*
X5432Y461D01*
X0Y460D02*
X7Y460D01*
X5425Y460D02*
X5432Y460D01*
X0Y459D02*
X7Y459D01*
X5425Y459D02*
X5432Y459D01*
X0Y458D02*
X7Y458D01*
X5425Y458D02*
X5432Y458D01*
X0Y457D02*
X7Y457D01*
X5425Y457D02*
X5432Y457D01*
X0Y456D02*
X7Y456D01*
X5425Y456D02*
X5432Y456D01*
X0Y455D02*
X7Y455D01*
X5425Y455D02*
X5432Y455D01*
X0Y454D02*
X7Y454D01*
X5425Y454D02*
X5432Y454D01*
X0Y453D02*
X7Y453D01*
X5425Y453D02*
X5432Y453D01*
X0Y452D02*
X7Y452D01*
X5425Y452D02*
X5432Y452D01*
X0Y451D02*
X7Y451D01*
X5425Y451D02*
X5432Y451D01*
X0Y450D02*
X7Y450D01*
X5425Y450D02*
X5432Y450D01*
X0Y449D02*
X7Y449D01*
X5425Y449D02*
X5432Y449D01*
X0Y448D02*
X7Y448D01*
X5425Y448D02*
X5432Y448D01*
X0Y447D02*
X7Y447D01*
X5425Y447D02*
X5432Y447D01*
X0Y446D02*
X7Y446D01*
X5425Y446D02*
X5432Y446D01*
X0Y445D02*
X7Y445D01*
X5425Y445D02*
X5432Y445D01*
X0Y444D02*
X7Y444D01*
X5425Y444D02*
X5432Y444D01*
X0Y443D02*
X7Y443D01*
X5425Y443D02*
X5432Y443D01*
X0Y442D02*
X7Y442D01*
X5425Y442D02*
X5432Y442D01*
X0Y441D02*
X7Y441D01*
X5425Y441D02*
X5432Y441D01*
X0Y440D02*
X7Y440D01*
X5425Y440D02*
X5432Y440D01*
X0Y439D02*
X7Y439D01*
X5425Y439D02*
X5432Y439D01*
X0Y438D02*
X7Y438D01*
X5425Y438D02*
X5432Y438D01*
X0Y437D02*
X7Y437D01*
X5425Y437D02*
X5432Y437D01*
X0Y436D02*
X7Y436D01*
X5425Y436D02*
X5432Y436D01*
X0Y435D02*
X7Y435D01*
X5425Y435D02*
X5432Y435D01*
X0Y434D02*
X7Y434D01*
X5425Y434D02*
X5432Y434D01*
X0Y433D02*
X7Y433D01*
X5425Y433D02*
X5432Y433D01*
X0Y432D02*
X7Y432D01*
X5425Y432D02*
X5432Y432D01*
X0Y431D02*
X7Y431D01*
X5425Y431D02*
X5432Y431D01*
X0Y430D02*
X7Y430D01*
X5425Y430D02*
X5432Y430D01*
X0Y429D02*
X7Y429D01*
X5425Y429D02*
X5432Y429D01*
X0Y428D02*
X7Y428D01*
X5425Y428D02*
X5432Y428D01*
X0Y427D02*
X7Y427D01*
X5425Y427D02*
X5432Y427D01*
X0Y426D02*
X7Y426D01*
X5425Y426D02*
X5432Y426D01*
X0Y425D02*
X7Y425D01*
X5425Y425D02*
X5432Y425D01*
X0Y424D02*
X7Y424D01*
X5425Y424D02*
X5432Y424D01*
X0Y423D02*
X7Y423D01*
X5425Y423D02*
X5432Y423D01*
X0Y422D02*
X7Y422D01*
X5425Y422D02*
X5432Y422D01*
X0Y421D02*
X7Y421D01*
X5425Y421D02*
X5432Y421D01*
X0Y420D02*
X7Y420D01*
X5425Y420D02*
X5432Y420D01*
X0Y419D02*
X7Y419D01*
X5425Y419D02*
X5432Y419D01*
X0Y418D02*
X7Y418D01*
X5425Y418D02*
X5432Y418D01*
X0Y417D02*
X7Y417D01*
X5425Y417D02*
X5432Y417D01*
X0Y416D02*
X7Y416D01*
X5425Y416D02*
X5432Y416D01*
X0Y415D02*
X7Y415D01*
X5425Y415D02*
X5432Y415D01*
X0Y414D02*
X7Y414D01*
X5425Y414D02*
X5432Y414D01*
X0Y413D02*
X7Y413D01*
X5425Y413D02*
X5432Y413D01*
X0Y412D02*
X7Y412D01*
X5425Y412D02*
X5432Y412D01*
X0Y411D02*
X7Y411D01*
X5425Y411D02*
X5432Y411D01*
X0Y410D02*
X7Y410D01*
X5425Y410D02*
X5432Y410D01*
X0Y409D02*
X7Y409D01*
X5425Y409D02*
X5432Y409D01*
X0Y408D02*
X7Y408D01*
X5425Y408D02*
X5432Y408D01*
X0Y407D02*
X7Y407D01*
X5425Y407D02*
X5432Y407D01*
X0Y406D02*
X7Y406D01*
X5425Y406D02*
X5432Y406D01*
X0Y405D02*
X7Y405D01*
X5425Y405D02*
X5432Y405D01*
X0Y404D02*
X7Y404D01*
X5425Y404D02*
X5432Y404D01*
X0Y403D02*
X7Y403D01*
X5425Y403D02*
X5432Y403D01*
X0Y402D02*
X7Y402D01*
X5425Y402D02*
X5432Y402D01*
X0Y401D02*
X7Y401D01*
X5425Y401D02*
X5432Y401D01*
X0Y400D02*
X7Y400D01*
X5425Y400D02*
X5432Y400D01*
X0Y399D02*
X7Y399D01*
X5425Y399D02*
X5432Y399D01*
X0Y398D02*
X7Y398D01*
X5425Y398D02*
X5432Y398D01*
X0Y397D02*
X7Y397D01*
X5425Y397D02*
X5432Y397D01*
X0Y396D02*
X7Y396D01*
X5425Y396D02*
X5432Y396D01*
X0Y395D02*
X7Y395D01*
X5425Y395D02*
X5432Y395D01*
X0Y394D02*
X7Y394D01*
X5425Y394D02*
X5432Y394D01*
X0Y393D02*
X7Y393D01*
X5425Y393D02*
X5432Y393D01*
X0Y392D02*
X7Y392D01*
X5425Y392D02*
X5432Y392D01*
X0Y391D02*
X7Y391D01*
X5425Y391D02*
X5432Y391D01*
X0Y390D02*
X7Y390D01*
X5425Y390D02*
X5432Y390D01*
X0Y389D02*
X7Y389D01*
X5425Y389D02*
X5432Y389D01*
X0Y388D02*
X7Y388D01*
X5425Y388D02*
X5432Y388D01*
X0Y387D02*
X7Y387D01*
X5425Y387D02*
X5432Y387D01*
X0Y386D02*
X7Y386D01*
X5425Y386D02*
X5432Y386D01*
X0Y385D02*
X7Y385D01*
X5425Y385D02*
X5432Y385D01*
X0Y384D02*
X7Y384D01*
X5425Y384D02*
X5432Y384D01*
X0Y383D02*
X7Y383D01*
X5425Y383D02*
X5432Y383D01*
X0Y382D02*
X7Y382D01*
X5425Y382D02*
X5432Y382D01*
X0Y381D02*
X7Y381D01*
X5425Y381D02*
X5432Y381D01*
X0Y380D02*
X7Y380D01*
X5425Y380D02*
X5432Y380D01*
X0Y379D02*
X7Y379D01*
X5425Y379D02*
X5432Y379D01*
X0Y378D02*
X7Y378D01*
X5425Y378D02*
X5432Y378D01*
X0Y377D02*
X7Y377D01*
X5425Y377D02*
X5432Y377D01*
X0Y376D02*
X7Y376D01*
X5425Y376D02*
X5432Y376D01*
X0Y375D02*
X7Y375D01*
X5425Y375D02*
X5432Y375D01*
X0Y374D02*
X7Y374D01*
X5425Y374D02*
X5432Y374D01*
X0Y373D02*
X7Y373D01*
X5425Y373D02*
X5432Y373D01*
X0Y372D02*
X7Y372D01*
X5425Y372D02*
X5432Y372D01*
X0Y371D02*
X7Y371D01*
X5425Y371D02*
X5432Y371D01*
X0Y370D02*
X7Y370D01*
X5425Y370D02*
X5432Y370D01*
X0Y369D02*
X7Y369D01*
X5425Y369D02*
X5432Y369D01*
X0Y368D02*
X7Y368D01*
X5425Y368D02*
X5432Y368D01*
X0Y367D02*
X7Y367D01*
X5425Y367D02*
X5432Y367D01*
X0Y366D02*
X7Y366D01*
X5425Y366D02*
X5432Y366D01*
X0Y365D02*
X7Y365D01*
X5425Y365D02*
X5432Y365D01*
X0Y364D02*
X7Y364D01*
X5425Y364D02*
X5432Y364D01*
X0Y363D02*
X7Y363D01*
X5425Y363D02*
X5432Y363D01*
X0Y362D02*
X7Y362D01*
X5425Y362D02*
X5432Y362D01*
X0Y361D02*
X7Y361D01*
X5425Y361D02*
X5432Y361D01*
X0Y360D02*
X7Y360D01*
X5425Y360D02*
X5432Y360D01*
X0Y359D02*
X7Y359D01*
X5425Y359D02*
X5432Y359D01*
X0Y358D02*
X7Y358D01*
X5425Y358D02*
X5432Y358D01*
X0Y357D02*
X7Y357D01*
X5425Y357D02*
X5432Y357D01*
X0Y356D02*
X7Y356D01*
X5425Y356D02*
X5432Y356D01*
X0Y355D02*
X7Y355D01*
X5425Y355D02*
X5432Y355D01*
X0Y354D02*
X7Y354D01*
X5425Y354D02*
X5432Y354D01*
X0Y353D02*
X7Y353D01*
X5425Y353D02*
X5432Y353D01*
X0Y352D02*
X7Y352D01*
X5425Y352D02*
X5432Y352D01*
X0Y351D02*
X7Y351D01*
X5425Y351D02*
X5432Y351D01*
X0Y350D02*
X7Y350D01*
X5425Y350D02*
X5432Y350D01*
X0Y349D02*
X7Y349D01*
X5425Y349D02*
X5432Y349D01*
X0Y348D02*
X7Y348D01*
X5425Y348D02*
X5432Y348D01*
X0Y347D02*
X7Y347D01*
X5425Y347D02*
X5432Y347D01*
X0Y346D02*
X7Y346D01*
X5425Y346D02*
X5432Y346D01*
X0Y345D02*
X7Y345D01*
X5425Y345D02*
X5432Y345D01*
X0Y344D02*
X7Y344D01*
X5425Y344D02*
X5432Y344D01*
X0Y343D02*
X7Y343D01*
X5425Y343D02*
X5432Y343D01*
X0Y342D02*
X7Y342D01*
X5425Y342D02*
X5432Y342D01*
X0Y341D02*
X7Y341D01*
X5425Y341D02*
X5432Y341D01*
X0Y340D02*
X7Y340D01*
X5425Y340D02*
X5432Y340D01*
X0Y339D02*
X7Y339D01*
X5425Y339D02*
X5432Y339D01*
X0Y338D02*
X7Y338D01*
X5425Y338D02*
X5432Y338D01*
X0Y337D02*
X7Y337D01*
X5425Y337D02*
X5432Y337D01*
X0Y336D02*
X7Y336D01*
X5425Y336D02*
X5432Y336D01*
X0Y335D02*
X7Y335D01*
X5425Y335D02*
X5432Y335D01*
X0Y334D02*
X7Y334D01*
X5425Y334D02*
X5432Y334D01*
X0Y333D02*
X7Y333D01*
X5425Y333D02*
X5432Y333D01*
X0Y332D02*
X7Y332D01*
X5425Y332D02*
X5432Y332D01*
X0Y331D02*
X7Y331D01*
X5425Y331D02*
X5432Y331D01*
X0Y330D02*
X7Y330D01*
X5425Y330D02*
X5432Y330D01*
X0Y329D02*
X7Y329D01*
X5425Y329D02*
X5432Y329D01*
X0Y328D02*
X7Y328D01*
X5425Y328D02*
X5432Y328D01*
X0Y327D02*
X7Y327D01*
X5425Y327D02*
X5432Y327D01*
X0Y326D02*
X7Y326D01*
X5425Y326D02*
X5432Y326D01*
X0Y325D02*
X7Y325D01*
X5425Y325D02*
X5432Y325D01*
X0Y324D02*
X7Y324D01*
X5425Y324D02*
X5432Y324D01*
X0Y323D02*
X7Y323D01*
X5425Y323D02*
X5432Y323D01*
X0Y322D02*
X7Y322D01*
X5425Y322D02*
X5432Y322D01*
X0Y321D02*
X7Y321D01*
X5425Y321D02*
X5432Y321D01*
X0Y320D02*
X7Y320D01*
X5425Y320D02*
X5432Y320D01*
X0Y319D02*
X7Y319D01*
X5425Y319D02*
X5432Y319D01*
X0Y318D02*
X7Y318D01*
X5425Y318D02*
X5432Y318D01*
X0Y317D02*
X7Y317D01*
X5425Y317D02*
X5432Y317D01*
X0Y316D02*
X7Y316D01*
X5425Y316D02*
X5432Y316D01*
X0Y315D02*
X7Y315D01*
X5425Y315D02*
X5432Y315D01*
X0Y314D02*
X7Y314D01*
X5425Y314D02*
X5432Y314D01*
X0Y313D02*
X7Y313D01*
X5425Y313D02*
X5432Y313D01*
X0Y312D02*
X7Y312D01*
X5425Y312D02*
X5432Y312D01*
X0Y311D02*
X7Y311D01*
X5425Y311D02*
X5432Y311D01*
X0Y310D02*
X7Y310D01*
X5425Y310D02*
X5432Y310D01*
X0Y309D02*
X7Y309D01*
X5425Y309D02*
X5432Y309D01*
X0Y308D02*
X7Y308D01*
X5425Y308D02*
X5432Y308D01*
X0Y307D02*
X7Y307D01*
X5425Y307D02*
X5432Y307D01*
X0Y306D02*
X7Y306D01*
X5425Y306D02*
X5432Y306D01*
X0Y305D02*
X7Y305D01*
X5425Y305D02*
X5432Y305D01*
X0Y304D02*
X7Y304D01*
X5425Y304D02*
X5432Y304D01*
X0Y303D02*
X7Y303D01*
X5425Y303D02*
X5432Y303D01*
X0Y302D02*
X7Y302D01*
X5425Y302D02*
X5432Y302D01*
X0Y301D02*
X7Y301D01*
X5425Y301D02*
X5432Y301D01*
X0Y300D02*
X7Y300D01*
X5425Y300D02*
X5432Y300D01*
X0Y299D02*
X7Y299D01*
X5425Y299D02*
X5432Y299D01*
X0Y298D02*
X7Y298D01*
X5425Y298D02*
X5432Y298D01*
X0Y297D02*
X7Y297D01*
X5425Y297D02*
X5432Y297D01*
X0Y296D02*
X7Y296D01*
X5425Y296D02*
X5432Y296D01*
X0Y295D02*
X7Y295D01*
X5425Y295D02*
X5432Y295D01*
X0Y294D02*
X7Y294D01*
X5425Y294D02*
X5432Y294D01*
X0Y293D02*
X7Y293D01*
X5425Y293D02*
X5432Y293D01*
X0Y292D02*
X7Y292D01*
X5425Y292D02*
X5432Y292D01*
X0Y291D02*
X7Y291D01*
X5425Y291D02*
X5432Y291D01*
X0Y290D02*
X7Y290D01*
X5425Y290D02*
X5432Y290D01*
X0Y289D02*
X7Y289D01*
X5425Y289D02*
X5432Y289D01*
X0Y288D02*
X7Y288D01*
X5425Y288D02*
X5432Y288D01*
X0Y287D02*
X7Y287D01*
X5425Y287D02*
X5432Y287D01*
X0Y286D02*
X7Y286D01*
X5425Y286D02*
X5432Y286D01*
X0Y285D02*
X7Y285D01*
X5425Y285D02*
X5432Y285D01*
X0Y284D02*
X7Y284D01*
X2624Y284D02*
X2624Y284D01*
X3524Y284D02*
X3524Y284D01*
X4424Y284D02*
X4424Y284D01*
X5425Y284D02*
X5432Y284D01*
X0Y283D02*
X7Y283D01*
X2623Y283D02*
X2625Y283D01*
X3523Y283D02*
X3525Y283D01*
X4423Y283D02*
X4425Y283D01*
X5425Y283D02*
X5432Y283D01*
X0Y282D02*
X7Y282D01*
X2622Y282D02*
X2626Y282D01*
X3522Y282D02*
X3526Y282D01*
X4422Y282D02*
X4426Y282D01*
X5425Y282D02*
X5432Y282D01*
X0Y281D02*
X7Y281D01*
X2621Y281D02*
X2627Y281D01*
X3521Y281D02*
X3527Y281D01*
X4421Y281D02*
X4426Y281D01*
X5425Y281D02*
X5432Y281D01*
X0Y280D02*
X7Y280D01*
X2620Y280D02*
X2626Y280D01*
X3520Y280D02*
X3526Y280D01*
X4420Y280D02*
X4426Y280D01*
X5425Y280D02*
X5432Y280D01*
X0Y279D02*
X7Y279D01*
X2619Y279D02*
X2625Y279D01*
X3519Y279D02*
X3525Y279D01*
X4419Y279D02*
X4425Y279D01*
X5425Y279D02*
X5432Y279D01*
X0Y278D02*
X7Y278D01*
X2618Y278D02*
X2624Y278D01*
X3518Y278D02*
X3524Y278D01*
X4418Y278D02*
X4424Y278D01*
X5425Y278D02*
X5432Y278D01*
X0Y277D02*
X7Y277D01*
X2617Y277D02*
X2623Y277D01*
X3517Y277D02*
X3523Y277D01*
X4417Y277D02*
X4423Y277D01*
X5425Y277D02*
X5432Y277D01*
X0Y276D02*
X7Y276D01*
X2616Y276D02*
X2622Y276D01*
X3516Y276D02*
X3522Y276D01*
X4416Y276D02*
X4422Y276D01*
X5425Y276D02*
X5432Y276D01*
X0Y275D02*
X7Y275D01*
X2615Y275D02*
X2621Y275D01*
X3515Y275D02*
X3521Y275D01*
X4415Y275D02*
X4421Y275D01*
X5425Y275D02*
X5432Y275D01*
X0Y274D02*
X7Y274D01*
X2614Y274D02*
X2620Y274D01*
X3514Y274D02*
X3520Y274D01*
X4414Y274D02*
X4420Y274D01*
X5425Y274D02*
X5432Y274D01*
X0Y273D02*
X7Y273D01*
X2613Y273D02*
X2619Y273D01*
X3513Y273D02*
X3519Y273D01*
X4413Y273D02*
X4419Y273D01*
X5425Y273D02*
X5432Y273D01*
X0Y272D02*
X7Y272D01*
X2612Y272D02*
X2618Y272D01*
X3512Y272D02*
X3518Y272D01*
X4412Y272D02*
X4418Y272D01*
X5425Y272D02*
X5432Y272D01*
X0Y271D02*
X7Y271D01*
X2611Y271D02*
X2617Y271D01*
X3511Y271D02*
X3517Y271D01*
X4411Y271D02*
X4417Y271D01*
X5425Y271D02*
X5432Y271D01*
X0Y270D02*
X7Y270D01*
X2610Y270D02*
X2616Y270D01*
X3510Y270D02*
X3516Y270D01*
X4410Y270D02*
X4416Y270D01*
X5425Y270D02*
X5432Y270D01*
X0Y269D02*
X7Y269D01*
X2609Y269D02*
X2615Y269D01*
X3509Y269D02*
X3515Y269D01*
X4409Y269D02*
X4415Y269D01*
X5425Y269D02*
X5432Y269D01*
X0Y268D02*
X7Y268D01*
X2609Y268D02*
X2614Y268D01*
X3509Y268D02*
X3514Y268D01*
X4409Y268D02*
X4414Y268D01*
X5425Y268D02*
X5432Y268D01*
X0Y267D02*
X7Y267D01*
X2608Y267D02*
X2613Y267D01*
X3508Y267D02*
X3513Y267D01*
X4408Y267D02*
X4413Y267D01*
X5425Y267D02*
X5432Y267D01*
X0Y266D02*
X7Y266D01*
X2607Y266D02*
X2612Y266D01*
X3507Y266D02*
X3512Y266D01*
X4407Y266D02*
X4412Y266D01*
X5425Y266D02*
X5432Y266D01*
X0Y265D02*
X7Y265D01*
X2606Y265D02*
X2611Y265D01*
X3506Y265D02*
X3511Y265D01*
X4406Y265D02*
X4411Y265D01*
X5425Y265D02*
X5432Y265D01*
X0Y264D02*
X7Y264D01*
X2604Y264D02*
X2610Y264D01*
X3504Y264D02*
X3510Y264D01*
X4404Y264D02*
X4410Y264D01*
X5425Y264D02*
X5432Y264D01*
X0Y263D02*
X7Y263D01*
X2603Y263D02*
X2609Y263D01*
X3503Y263D02*
X3509Y263D01*
X4403Y263D02*
X4409Y263D01*
X5425Y263D02*
X5432Y263D01*
X0Y262D02*
X7Y262D01*
X2602Y262D02*
X2608Y262D01*
X3502Y262D02*
X3508Y262D01*
X4402Y262D02*
X4408Y262D01*
X5425Y262D02*
X5432Y262D01*
X0Y261D02*
X7Y261D01*
X2601Y261D02*
X2607Y261D01*
X3501Y261D02*
X3507Y261D01*
X4401Y261D02*
X4407Y261D01*
X5425Y261D02*
X5432Y261D01*
X0Y260D02*
X7Y260D01*
X2600Y260D02*
X2606Y260D01*
X3500Y260D02*
X3506Y260D01*
X4400Y260D02*
X4406Y260D01*
X5425Y260D02*
X5432Y260D01*
X0Y259D02*
X7Y259D01*
X2599Y259D02*
X2605Y259D01*
X3499Y259D02*
X3505Y259D01*
X4399Y259D02*
X4405Y259D01*
X5425Y259D02*
X5432Y259D01*
X0Y258D02*
X7Y258D01*
X2598Y258D02*
X2604Y258D01*
X3498Y258D02*
X3504Y258D01*
X4398Y258D02*
X4404Y258D01*
X5425Y258D02*
X5432Y258D01*
X0Y257D02*
X7Y257D01*
X2597Y257D02*
X2603Y257D01*
X3497Y257D02*
X3503Y257D01*
X4397Y257D02*
X4403Y257D01*
X5425Y257D02*
X5432Y257D01*
X0Y256D02*
X7Y256D01*
X2596Y256D02*
X2602Y256D01*
X3496Y256D02*
X3502Y256D01*
X4396Y256D02*
X4402Y256D01*
X5425Y256D02*
X5432Y256D01*
X0Y255D02*
X7Y255D01*
X2595Y255D02*
X2601Y255D01*
X3495Y255D02*
X3501Y255D01*
X4395Y255D02*
X4401Y255D01*
X5425Y255D02*
X5432Y255D01*
X0Y254D02*
X7Y254D01*
X2594Y254D02*
X2600Y254D01*
X3494Y254D02*
X3500Y254D01*
X4394Y254D02*
X4400Y254D01*
X5425Y254D02*
X5432Y254D01*
X0Y253D02*
X7Y253D01*
X2593Y253D02*
X2599Y253D01*
X3493Y253D02*
X3499Y253D01*
X4393Y253D02*
X4399Y253D01*
X5425Y253D02*
X5432Y253D01*
X0Y252D02*
X7Y252D01*
X2592Y252D02*
X2598Y252D01*
X3492Y252D02*
X3498Y252D01*
X4392Y252D02*
X4398Y252D01*
X5425Y252D02*
X5432Y252D01*
X0Y251D02*
X7Y251D01*
X2591Y251D02*
X2597Y251D01*
X3491Y251D02*
X3497Y251D01*
X4391Y251D02*
X4397Y251D01*
X5425Y251D02*
X5432Y251D01*
X0Y250D02*
X7Y250D01*
X2590Y250D02*
X2596Y250D01*
X3490Y250D02*
X3496Y250D01*
X4390Y250D02*
X4396Y250D01*
X5425Y250D02*
X5432Y250D01*
X0Y249D02*
X7Y249D01*
X2590Y249D02*
X2595Y249D01*
X3490Y249D02*
X3495Y249D01*
X4390Y249D02*
X4395Y249D01*
X5425Y249D02*
X5432Y249D01*
X0Y248D02*
X7Y248D01*
X2591Y248D02*
X2594Y248D01*
X3491Y248D02*
X3494Y248D01*
X4391Y248D02*
X4394Y248D01*
X5425Y248D02*
X5432Y248D01*
X0Y247D02*
X7Y247D01*
X2592Y247D02*
X2593Y247D01*
X3492Y247D02*
X3493Y247D01*
X4392Y247D02*
X4393Y247D01*
X5425Y247D02*
X5432Y247D01*
X0Y246D02*
X7Y246D01*
X5425Y246D02*
X5432Y246D01*
X0Y245D02*
X7Y245D01*
X5425Y245D02*
X5432Y245D01*
X0Y244D02*
X7Y244D01*
X5425Y244D02*
X5432Y244D01*
X0Y243D02*
X7Y243D01*
X5425Y243D02*
X5432Y243D01*
X0Y242D02*
X7Y242D01*
X5425Y242D02*
X5432Y242D01*
X0Y241D02*
X7Y241D01*
X5425Y241D02*
X5432Y241D01*
X0Y240D02*
X7Y240D01*
X5425Y240D02*
X5432Y240D01*
X0Y239D02*
X7Y239D01*
X5425Y239D02*
X5432Y239D01*
X0Y238D02*
X7Y238D01*
X2203Y238D02*
X2204Y238D01*
X2225Y238D02*
X2235Y238D01*
X2250Y238D02*
X2251Y238D01*
X3079Y238D02*
X3097Y238D01*
X3116Y238D02*
X3127Y238D01*
X3140Y238D02*
X3143Y238D01*
X5425Y238D02*
X5432Y238D01*
X0Y237D02*
X7Y237D01*
X2202Y237D02*
X2205Y237D01*
X2225Y237D02*
X2236Y237D01*
X2249Y237D02*
X2251Y237D01*
X3078Y237D02*
X3097Y237D01*
X3116Y237D02*
X3127Y237D01*
X3140Y237D02*
X3143Y237D01*
X5425Y237D02*
X5432Y237D01*
X0Y236D02*
X7Y236D01*
X2202Y236D02*
X2205Y236D01*
X2225Y236D02*
X2236Y236D01*
X2248Y236D02*
X2252Y236D01*
X3078Y236D02*
X3097Y236D01*
X3116Y236D02*
X3127Y236D01*
X3140Y236D02*
X3143Y236D01*
X5425Y236D02*
X5432Y236D01*
X0Y235D02*
X7Y235D01*
X2202Y235D02*
X2205Y235D01*
X2225Y235D02*
X2236Y235D01*
X2248Y235D02*
X2252Y235D01*
X3078Y235D02*
X3096Y235D01*
X3116Y235D02*
X3126Y235D01*
X3140Y235D02*
X3143Y235D01*
X5425Y235D02*
X5432Y235D01*
X0Y234D02*
X7Y234D01*
X2190Y234D02*
X2192Y234D01*
X2202Y234D02*
X2205Y234D01*
X2225Y234D02*
X2228Y234D01*
X2248Y234D02*
X2252Y234D01*
X3078Y234D02*
X3081Y234D01*
X3116Y234D02*
X3119Y234D01*
X3140Y234D02*
X3143Y234D01*
X5425Y234D02*
X5432Y234D01*
X0Y233D02*
X7Y233D01*
X2190Y233D02*
X2193Y233D01*
X2202Y233D02*
X2205Y233D01*
X2225Y233D02*
X2228Y233D01*
X2248Y233D02*
X2252Y233D01*
X3078Y233D02*
X3081Y233D01*
X3116Y233D02*
X3119Y233D01*
X3140Y233D02*
X3143Y233D01*
X5425Y233D02*
X5432Y233D01*
X0Y232D02*
X7Y232D01*
X2190Y232D02*
X2193Y232D01*
X2202Y232D02*
X2205Y232D01*
X2225Y232D02*
X2228Y232D01*
X2248Y232D02*
X2252Y232D01*
X3078Y232D02*
X3081Y232D01*
X3116Y232D02*
X3119Y232D01*
X3140Y232D02*
X3143Y232D01*
X3993Y232D02*
X4011Y232D01*
X4030Y232D02*
X4041Y232D01*
X4054Y232D02*
X4056Y232D01*
X5425Y232D02*
X5432Y232D01*
X0Y231D02*
X7Y231D01*
X2190Y231D02*
X2193Y231D01*
X2202Y231D02*
X2205Y231D01*
X2225Y231D02*
X2228Y231D01*
X2248Y231D02*
X2252Y231D01*
X3078Y231D02*
X3081Y231D01*
X3116Y231D02*
X3119Y231D01*
X3140Y231D02*
X3143Y231D01*
X3992Y231D02*
X4011Y231D01*
X4030Y231D02*
X4041Y231D01*
X4053Y231D02*
X4057Y231D01*
X5425Y231D02*
X5432Y231D01*
X0Y230D02*
X7Y230D01*
X2190Y230D02*
X2193Y230D01*
X2202Y230D02*
X2205Y230D01*
X2225Y230D02*
X2228Y230D01*
X2248Y230D02*
X2252Y230D01*
X3078Y230D02*
X3081Y230D01*
X3116Y230D02*
X3119Y230D01*
X3140Y230D02*
X3143Y230D01*
X3992Y230D02*
X4011Y230D01*
X4030Y230D02*
X4041Y230D01*
X4053Y230D02*
X4057Y230D01*
X5425Y230D02*
X5432Y230D01*
X0Y229D02*
X7Y229D01*
X2190Y229D02*
X2193Y229D01*
X2202Y229D02*
X2205Y229D01*
X2225Y229D02*
X2228Y229D01*
X2248Y229D02*
X2252Y229D01*
X3078Y229D02*
X3081Y229D01*
X3116Y229D02*
X3119Y229D01*
X3140Y229D02*
X3143Y229D01*
X3991Y229D02*
X4010Y229D01*
X4030Y229D02*
X4040Y229D01*
X4053Y229D02*
X4057Y229D01*
X5425Y229D02*
X5432Y229D01*
X0Y228D02*
X7Y228D01*
X2190Y228D02*
X2193Y228D01*
X2202Y228D02*
X2205Y228D01*
X2225Y228D02*
X2228Y228D01*
X2248Y228D02*
X2252Y228D01*
X3078Y228D02*
X3081Y228D01*
X3116Y228D02*
X3119Y228D01*
X3140Y228D02*
X3143Y228D01*
X3991Y228D02*
X3994Y228D01*
X4030Y228D02*
X4033Y228D01*
X4053Y228D02*
X4057Y228D01*
X5425Y228D02*
X5432Y228D01*
X0Y227D02*
X7Y227D01*
X2190Y227D02*
X2193Y227D01*
X2202Y227D02*
X2205Y227D01*
X2225Y227D02*
X2228Y227D01*
X2248Y227D02*
X2252Y227D01*
X3078Y227D02*
X3081Y227D01*
X3116Y227D02*
X3119Y227D01*
X3140Y227D02*
X3143Y227D01*
X3991Y227D02*
X3994Y227D01*
X4030Y227D02*
X4033Y227D01*
X4053Y227D02*
X4057Y227D01*
X5425Y227D02*
X5432Y227D01*
X0Y226D02*
X7Y226D01*
X2190Y226D02*
X2193Y226D01*
X2202Y226D02*
X2205Y226D01*
X2225Y226D02*
X2228Y226D01*
X2248Y226D02*
X2252Y226D01*
X3078Y226D02*
X3081Y226D01*
X3116Y226D02*
X3119Y226D01*
X3140Y226D02*
X3143Y226D01*
X3991Y226D02*
X3994Y226D01*
X4030Y226D02*
X4033Y226D01*
X4053Y226D02*
X4057Y226D01*
X5425Y226D02*
X5432Y226D01*
X0Y225D02*
X7Y225D01*
X2190Y225D02*
X2193Y225D01*
X2202Y225D02*
X2205Y225D01*
X2225Y225D02*
X2228Y225D01*
X2248Y225D02*
X2252Y225D01*
X3078Y225D02*
X3082Y225D01*
X3116Y225D02*
X3119Y225D01*
X3140Y225D02*
X3143Y225D01*
X3991Y225D02*
X3994Y225D01*
X4030Y225D02*
X4033Y225D01*
X4053Y225D02*
X4057Y225D01*
X5425Y225D02*
X5432Y225D01*
X0Y224D02*
X7Y224D01*
X2190Y224D02*
X2193Y224D01*
X2202Y224D02*
X2205Y224D01*
X2225Y224D02*
X2228Y224D01*
X2248Y224D02*
X2252Y224D01*
X3078Y224D02*
X3093Y224D01*
X3116Y224D02*
X3119Y224D01*
X3140Y224D02*
X3143Y224D01*
X3991Y224D02*
X3994Y224D01*
X4030Y224D02*
X4033Y224D01*
X4053Y224D02*
X4057Y224D01*
X5425Y224D02*
X5432Y224D01*
X0Y223D02*
X7Y223D01*
X2190Y223D02*
X2193Y223D01*
X2202Y223D02*
X2205Y223D01*
X2225Y223D02*
X2228Y223D01*
X2248Y223D02*
X2252Y223D01*
X3079Y223D02*
X3093Y223D01*
X3116Y223D02*
X3119Y223D01*
X3140Y223D02*
X3143Y223D01*
X3991Y223D02*
X3994Y223D01*
X4030Y223D02*
X4033Y223D01*
X4053Y223D02*
X4057Y223D01*
X5425Y223D02*
X5432Y223D01*
X0Y222D02*
X7Y222D01*
X2190Y222D02*
X2193Y222D01*
X2202Y222D02*
X2205Y222D01*
X2225Y222D02*
X2228Y222D01*
X2248Y222D02*
X2252Y222D01*
X3079Y222D02*
X3093Y222D01*
X3116Y222D02*
X3119Y222D01*
X3140Y222D02*
X3143Y222D01*
X3991Y222D02*
X3994Y222D01*
X4030Y222D02*
X4033Y222D01*
X4053Y222D02*
X4057Y222D01*
X5425Y222D02*
X5432Y222D01*
X0Y221D02*
X7Y221D01*
X2189Y221D02*
X2193Y221D01*
X2202Y221D02*
X2205Y221D01*
X2225Y221D02*
X2228Y221D01*
X2248Y221D02*
X2252Y221D01*
X3078Y221D02*
X3092Y221D01*
X3109Y221D02*
X3110Y221D01*
X3116Y221D02*
X3119Y221D01*
X3140Y221D02*
X3143Y221D01*
X3153Y221D02*
X3154Y221D01*
X3991Y221D02*
X3994Y221D01*
X4030Y221D02*
X4033Y221D01*
X4053Y221D02*
X4057Y221D01*
X5425Y221D02*
X5432Y221D01*
X0Y220D02*
X7Y220D01*
X2188Y220D02*
X2205Y220D01*
X2217Y220D02*
X2219Y220D01*
X2225Y220D02*
X2228Y220D01*
X2248Y220D02*
X2252Y220D01*
X2262Y220D02*
X2263Y220D01*
X3078Y220D02*
X3082Y220D01*
X3108Y220D02*
X3111Y220D01*
X3116Y220D02*
X3119Y220D01*
X3140Y220D02*
X3143Y220D01*
X3152Y220D02*
X3155Y220D01*
X3991Y220D02*
X3994Y220D01*
X4030Y220D02*
X4033Y220D01*
X4053Y220D02*
X4057Y220D01*
X5425Y220D02*
X5432Y220D01*
X0Y219D02*
X7Y219D01*
X2188Y219D02*
X2205Y219D01*
X2217Y219D02*
X2220Y219D01*
X2225Y219D02*
X2228Y219D01*
X2248Y219D02*
X2252Y219D01*
X2261Y219D02*
X2264Y219D01*
X3078Y219D02*
X3081Y219D01*
X3108Y219D02*
X3111Y219D01*
X3116Y219D02*
X3119Y219D01*
X3140Y219D02*
X3143Y219D01*
X3152Y219D02*
X3155Y219D01*
X3991Y219D02*
X3995Y219D01*
X4030Y219D02*
X4033Y219D01*
X4053Y219D02*
X4057Y219D01*
X5425Y219D02*
X5432Y219D01*
X0Y218D02*
X7Y218D01*
X2188Y218D02*
X2205Y218D01*
X2216Y218D02*
X2220Y218D01*
X2225Y218D02*
X2228Y218D01*
X2248Y218D02*
X2252Y218D01*
X2261Y218D02*
X2264Y218D01*
X3078Y218D02*
X3081Y218D01*
X3108Y218D02*
X3111Y218D01*
X3116Y218D02*
X3119Y218D01*
X3140Y218D02*
X3143Y218D01*
X3152Y218D02*
X3155Y218D01*
X3991Y218D02*
X4009Y218D01*
X4030Y218D02*
X4033Y218D01*
X4053Y218D02*
X4057Y218D01*
X5425Y218D02*
X5432Y218D01*
X0Y217D02*
X7Y217D01*
X2188Y217D02*
X2205Y217D01*
X2216Y217D02*
X2220Y217D01*
X2225Y217D02*
X2228Y217D01*
X2248Y217D02*
X2252Y217D01*
X2261Y217D02*
X2264Y217D01*
X3078Y217D02*
X3081Y217D01*
X3108Y217D02*
X3111Y217D01*
X3116Y217D02*
X3119Y217D01*
X3140Y217D02*
X3143Y217D01*
X3152Y217D02*
X3155Y217D01*
X3992Y217D02*
X4010Y217D01*
X4030Y217D02*
X4033Y217D01*
X4053Y217D02*
X4057Y217D01*
X5425Y217D02*
X5432Y217D01*
X0Y216D02*
X7Y216D01*
X2190Y216D02*
X2193Y216D01*
X2216Y216D02*
X2220Y216D01*
X2225Y216D02*
X2228Y216D01*
X2248Y216D02*
X2252Y216D01*
X2261Y216D02*
X2264Y216D01*
X3078Y216D02*
X3081Y216D01*
X3108Y216D02*
X3111Y216D01*
X3116Y216D02*
X3119Y216D01*
X3140Y216D02*
X3143Y216D01*
X3152Y216D02*
X3155Y216D01*
X3992Y216D02*
X4011Y216D01*
X4030Y216D02*
X4033Y216D01*
X4053Y216D02*
X4057Y216D01*
X5425Y216D02*
X5432Y216D01*
X0Y215D02*
X7Y215D01*
X2190Y215D02*
X2193Y215D01*
X2216Y215D02*
X2220Y215D01*
X2225Y215D02*
X2228Y215D01*
X2248Y215D02*
X2252Y215D01*
X2261Y215D02*
X2264Y215D01*
X3078Y215D02*
X3081Y215D01*
X3108Y215D02*
X3111Y215D01*
X3116Y215D02*
X3119Y215D01*
X3140Y215D02*
X3143Y215D01*
X3152Y215D02*
X3155Y215D01*
X3994Y215D02*
X4011Y215D01*
X4023Y215D02*
X4023Y215D01*
X4030Y215D02*
X4033Y215D01*
X4053Y215D02*
X4057Y215D01*
X4067Y215D02*
X4068Y215D01*
X5425Y215D02*
X5432Y215D01*
X0Y214D02*
X7Y214D01*
X2190Y214D02*
X2193Y214D01*
X2216Y214D02*
X2220Y214D01*
X2225Y214D02*
X2228Y214D01*
X2248Y214D02*
X2252Y214D01*
X2261Y214D02*
X2264Y214D01*
X3078Y214D02*
X3081Y214D01*
X3108Y214D02*
X3111Y214D01*
X3116Y214D02*
X3119Y214D01*
X3140Y214D02*
X3143Y214D01*
X3152Y214D02*
X3155Y214D01*
X4008Y214D02*
X4011Y214D01*
X4022Y214D02*
X4024Y214D01*
X4030Y214D02*
X4033Y214D01*
X4053Y214D02*
X4057Y214D01*
X4066Y214D02*
X4069Y214D01*
X5425Y214D02*
X5432Y214D01*
X0Y213D02*
X7Y213D01*
X2190Y213D02*
X2193Y213D01*
X2216Y213D02*
X2220Y213D01*
X2225Y213D02*
X2228Y213D01*
X2248Y213D02*
X2252Y213D01*
X2261Y213D02*
X2264Y213D01*
X3078Y213D02*
X3081Y213D01*
X3108Y213D02*
X3111Y213D01*
X3116Y213D02*
X3119Y213D01*
X3140Y213D02*
X3143Y213D01*
X3152Y213D02*
X3155Y213D01*
X4008Y213D02*
X4011Y213D01*
X4021Y213D02*
X4024Y213D01*
X4030Y213D02*
X4033Y213D01*
X4053Y213D02*
X4057Y213D01*
X4066Y213D02*
X4069Y213D01*
X5425Y213D02*
X5432Y213D01*
X0Y212D02*
X7Y212D01*
X2190Y212D02*
X2193Y212D01*
X2216Y212D02*
X2220Y212D01*
X2225Y212D02*
X2228Y212D01*
X2249Y212D02*
X2252Y212D01*
X2261Y212D02*
X2264Y212D01*
X3078Y212D02*
X3081Y212D01*
X3108Y212D02*
X3111Y212D01*
X3116Y212D02*
X3119Y212D01*
X3140Y212D02*
X3143Y212D01*
X3152Y212D02*
X3155Y212D01*
X4008Y212D02*
X4011Y212D01*
X4021Y212D02*
X4024Y212D01*
X4030Y212D02*
X4033Y212D01*
X4053Y212D02*
X4057Y212D01*
X4066Y212D02*
X4069Y212D01*
X5425Y212D02*
X5432Y212D01*
X0Y211D02*
X7Y211D01*
X2190Y211D02*
X2193Y211D01*
X2216Y211D02*
X2220Y211D01*
X2225Y211D02*
X2228Y211D01*
X2249Y211D02*
X2252Y211D01*
X2261Y211D02*
X2264Y211D01*
X3078Y211D02*
X3081Y211D01*
X3108Y211D02*
X3111Y211D01*
X3116Y211D02*
X3119Y211D01*
X3140Y211D02*
X3144Y211D01*
X3151Y211D02*
X3155Y211D01*
X4008Y211D02*
X4011Y211D01*
X4021Y211D02*
X4024Y211D01*
X4030Y211D02*
X4033Y211D01*
X4053Y211D02*
X4057Y211D01*
X4066Y211D02*
X4069Y211D01*
X5425Y211D02*
X5432Y211D01*
X0Y210D02*
X7Y210D01*
X2190Y210D02*
X2193Y210D01*
X2216Y210D02*
X2234Y210D01*
X2249Y210D02*
X2264Y210D01*
X3078Y210D02*
X3097Y210D01*
X3108Y210D02*
X3127Y210D01*
X3140Y210D02*
X3155Y210D01*
X4008Y210D02*
X4011Y210D01*
X4021Y210D02*
X4024Y210D01*
X4030Y210D02*
X4033Y210D01*
X4053Y210D02*
X4057Y210D01*
X4066Y210D02*
X4069Y210D01*
X5425Y210D02*
X5432Y210D01*
X0Y209D02*
X7Y209D01*
X2190Y209D02*
X2193Y209D01*
X2216Y209D02*
X2236Y209D01*
X2249Y209D02*
X2263Y209D01*
X3078Y209D02*
X3097Y209D01*
X3108Y209D02*
X3127Y209D01*
X3141Y209D02*
X3154Y209D01*
X4008Y209D02*
X4011Y209D01*
X4021Y209D02*
X4024Y209D01*
X4030Y209D02*
X4033Y209D01*
X4053Y209D02*
X4057Y209D01*
X4066Y209D02*
X4069Y209D01*
X5425Y209D02*
X5432Y209D01*
X0Y208D02*
X7Y208D01*
X2190Y208D02*
X2193Y208D01*
X2216Y208D02*
X2236Y208D01*
X2250Y208D02*
X2262Y208D01*
X3079Y208D02*
X3097Y208D01*
X3108Y208D02*
X3127Y208D01*
X3142Y208D02*
X3153Y208D01*
X4008Y208D02*
X4011Y208D01*
X4021Y208D02*
X4024Y208D01*
X4030Y208D02*
X4033Y208D01*
X4053Y208D02*
X4057Y208D01*
X4066Y208D02*
X4069Y208D01*
X5425Y208D02*
X5432Y208D01*
X0Y207D02*
X7Y207D01*
X2190Y207D02*
X2192Y207D01*
X2217Y207D02*
X2236Y207D01*
X2251Y207D02*
X2261Y207D01*
X3080Y207D02*
X3097Y207D01*
X3108Y207D02*
X3127Y207D01*
X3144Y207D02*
X3151Y207D01*
X4008Y207D02*
X4011Y207D01*
X4021Y207D02*
X4024Y207D01*
X4030Y207D02*
X4033Y207D01*
X4053Y207D02*
X4057Y207D01*
X4066Y207D02*
X4069Y207D01*
X5425Y207D02*
X5432Y207D01*
X0Y206D02*
X7Y206D01*
X2191Y206D02*
X2191Y206D01*
X2218Y206D02*
X2235Y206D01*
X2253Y206D02*
X2259Y206D01*
X4008Y206D02*
X4011Y206D01*
X4021Y206D02*
X4024Y206D01*
X4030Y206D02*
X4033Y206D01*
X4053Y206D02*
X4057Y206D01*
X4066Y206D02*
X4069Y206D01*
X5425Y206D02*
X5432Y206D01*
X0Y205D02*
X7Y205D01*
X4008Y205D02*
X4011Y205D01*
X4021Y205D02*
X4025Y205D01*
X4030Y205D02*
X4033Y205D01*
X4054Y205D02*
X4057Y205D01*
X4065Y205D02*
X4069Y205D01*
X5425Y205D02*
X5432Y205D01*
X0Y204D02*
X7Y204D01*
X3992Y204D02*
X4011Y204D01*
X4021Y204D02*
X4040Y204D01*
X4054Y204D02*
X4068Y204D01*
X5425Y204D02*
X5432Y204D01*
X0Y203D02*
X7Y203D01*
X3991Y203D02*
X4011Y203D01*
X4021Y203D02*
X4041Y203D01*
X4055Y203D02*
X4068Y203D01*
X5425Y203D02*
X5432Y203D01*
X0Y202D02*
X7Y202D01*
X3991Y202D02*
X4011Y202D01*
X4021Y202D02*
X4041Y202D01*
X4056Y202D02*
X4067Y202D01*
X5425Y202D02*
X5432Y202D01*
X0Y201D02*
X7Y201D01*
X3992Y201D02*
X4011Y201D01*
X4022Y201D02*
X4040Y201D01*
X4057Y201D02*
X4065Y201D01*
X5425Y201D02*
X5432Y201D01*
X0Y200D02*
X7Y200D01*
X5425Y200D02*
X5432Y200D01*
X0Y199D02*
X7Y199D01*
X5425Y199D02*
X5432Y199D01*
X0Y198D02*
X7Y198D01*
X5425Y198D02*
X5432Y198D01*
X0Y197D02*
X7Y197D01*
X5425Y197D02*
X5432Y197D01*
X0Y196D02*
X7Y196D01*
X5425Y196D02*
X5432Y196D01*
X0Y195D02*
X7Y195D01*
X5425Y195D02*
X5432Y195D01*
X0Y194D02*
X7Y194D01*
X5425Y194D02*
X5432Y194D01*
X0Y193D02*
X7Y193D01*
X5425Y193D02*
X5432Y193D01*
X0Y192D02*
X7Y192D01*
X5425Y192D02*
X5432Y192D01*
X0Y191D02*
X7Y191D01*
X5425Y191D02*
X5432Y191D01*
X0Y190D02*
X7Y190D01*
X5425Y190D02*
X5432Y190D01*
X0Y189D02*
X7Y189D01*
X5425Y189D02*
X5432Y189D01*
X0Y188D02*
X7Y188D01*
X5425Y188D02*
X5432Y188D01*
X0Y187D02*
X7Y187D01*
X5425Y187D02*
X5432Y187D01*
X0Y186D02*
X7Y186D01*
X5425Y186D02*
X5432Y186D01*
X0Y185D02*
X7Y185D01*
X5425Y185D02*
X5432Y185D01*
X0Y184D02*
X7Y184D01*
X5425Y184D02*
X5432Y184D01*
X0Y183D02*
X7Y183D01*
X5425Y183D02*
X5432Y183D01*
X0Y182D02*
X7Y182D01*
X5425Y182D02*
X5432Y182D01*
X0Y181D02*
X7Y181D01*
X5425Y181D02*
X5432Y181D01*
X0Y180D02*
X7Y180D01*
X5425Y180D02*
X5432Y180D01*
X0Y179D02*
X7Y179D01*
X5425Y179D02*
X5432Y179D01*
X0Y178D02*
X7Y178D01*
X5425Y178D02*
X5432Y178D01*
X0Y177D02*
X7Y177D01*
X5425Y177D02*
X5432Y177D01*
X0Y176D02*
X7Y176D01*
X5425Y176D02*
X5432Y176D01*
X0Y175D02*
X7Y175D01*
X5425Y175D02*
X5432Y175D01*
X0Y174D02*
X7Y174D01*
X5425Y174D02*
X5432Y174D01*
X0Y173D02*
X7Y173D01*
X5425Y173D02*
X5432Y173D01*
X0Y172D02*
X7Y172D01*
X5425Y172D02*
X5432Y172D01*
X0Y171D02*
X7Y171D01*
X5425Y171D02*
X5432Y171D01*
X0Y170D02*
X7Y170D01*
X5425Y170D02*
X5432Y170D01*
X0Y169D02*
X7Y169D01*
X5425Y169D02*
X5432Y169D01*
X0Y168D02*
X7Y168D01*
X5425Y168D02*
X5432Y168D01*
X0Y167D02*
X7Y167D01*
X5425Y167D02*
X5432Y167D01*
X0Y166D02*
X7Y166D01*
X5425Y166D02*
X5432Y166D01*
X0Y165D02*
X7Y165D01*
X5425Y165D02*
X5432Y165D01*
X0Y164D02*
X7Y164D01*
X5425Y164D02*
X5432Y164D01*
X0Y163D02*
X7Y163D01*
X5425Y163D02*
X5432Y163D01*
X0Y162D02*
X7Y162D01*
X5425Y162D02*
X5432Y162D01*
X0Y161D02*
X7Y161D01*
X5425Y161D02*
X5432Y161D01*
X0Y160D02*
X7Y160D01*
X5425Y160D02*
X5432Y160D01*
X0Y159D02*
X7Y159D01*
X5425Y159D02*
X5432Y159D01*
X0Y158D02*
X7Y158D01*
X5425Y158D02*
X5432Y158D01*
X0Y157D02*
X7Y157D01*
X5425Y157D02*
X5432Y157D01*
X0Y156D02*
X7Y156D01*
X5425Y156D02*
X5432Y156D01*
X0Y155D02*
X7Y155D01*
X5425Y155D02*
X5432Y155D01*
X0Y154D02*
X7Y154D01*
X5425Y154D02*
X5432Y154D01*
X0Y153D02*
X7Y153D01*
X5425Y153D02*
X5432Y153D01*
X0Y152D02*
X7Y152D01*
X5425Y152D02*
X5432Y152D01*
X0Y151D02*
X7Y151D01*
X5425Y151D02*
X5432Y151D01*
X0Y150D02*
X7Y150D01*
X5425Y150D02*
X5432Y150D01*
X0Y149D02*
X7Y149D01*
X5425Y149D02*
X5432Y149D01*
X0Y148D02*
X7Y148D01*
X5425Y148D02*
X5432Y148D01*
X0Y147D02*
X7Y147D01*
X5425Y147D02*
X5432Y147D01*
X0Y146D02*
X7Y146D01*
X5425Y146D02*
X5432Y146D01*
X0Y145D02*
X7Y145D01*
X5425Y145D02*
X5432Y145D01*
X0Y144D02*
X7Y144D01*
X5425Y144D02*
X5432Y144D01*
X0Y143D02*
X7Y143D01*
X5425Y143D02*
X5432Y143D01*
X0Y142D02*
X7Y142D01*
X5425Y142D02*
X5432Y142D01*
X0Y141D02*
X7Y141D01*
X5425Y141D02*
X5432Y141D01*
X0Y140D02*
X7Y140D01*
X5425Y140D02*
X5432Y140D01*
X0Y139D02*
X7Y139D01*
X5425Y139D02*
X5432Y139D01*
X0Y138D02*
X7Y138D01*
X5425Y138D02*
X5432Y138D01*
X0Y137D02*
X7Y137D01*
X5425Y137D02*
X5432Y137D01*
X0Y136D02*
X7Y136D01*
X5425Y136D02*
X5432Y136D01*
X0Y135D02*
X7Y135D01*
X5425Y135D02*
X5432Y135D01*
X0Y134D02*
X7Y134D01*
X5425Y134D02*
X5432Y134D01*
X0Y133D02*
X7Y133D01*
X5425Y133D02*
X5432Y133D01*
X0Y132D02*
X7Y132D01*
X5425Y132D02*
X5432Y132D01*
X0Y131D02*
X7Y131D01*
X5425Y131D02*
X5432Y131D01*
X0Y130D02*
X7Y130D01*
X5425Y130D02*
X5432Y130D01*
X0Y129D02*
X7Y129D01*
X5425Y129D02*
X5432Y129D01*
X0Y128D02*
X7Y128D01*
X5425Y128D02*
X5432Y128D01*
X0Y127D02*
X7Y127D01*
X5425Y127D02*
X5432Y127D01*
X0Y126D02*
X7Y126D01*
X5425Y126D02*
X5432Y126D01*
X0Y125D02*
X7Y125D01*
X5425Y125D02*
X5432Y125D01*
X0Y124D02*
X7Y124D01*
X5425Y124D02*
X5432Y124D01*
X0Y123D02*
X7Y123D01*
X5425Y123D02*
X5432Y123D01*
X0Y122D02*
X7Y122D01*
X5425Y122D02*
X5432Y122D01*
X0Y121D02*
X7Y121D01*
X5425Y121D02*
X5432Y121D01*
X0Y120D02*
X7Y120D01*
X5425Y120D02*
X5432Y120D01*
X0Y119D02*
X7Y119D01*
X5425Y119D02*
X5432Y119D01*
X0Y118D02*
X7Y118D01*
X5425Y118D02*
X5432Y118D01*
X0Y117D02*
X7Y117D01*
X5425Y117D02*
X5432Y117D01*
X0Y116D02*
X7Y116D01*
X5425Y116D02*
X5432Y116D01*
X0Y115D02*
X7Y115D01*
X5425Y115D02*
X5432Y115D01*
X0Y114D02*
X7Y114D01*
X5425Y114D02*
X5432Y114D01*
X0Y113D02*
X7Y113D01*
X5425Y113D02*
X5432Y113D01*
X0Y112D02*
X7Y112D01*
X5425Y112D02*
X5432Y112D01*
X0Y111D02*
X7Y111D01*
X5425Y111D02*
X5432Y111D01*
X0Y110D02*
X7Y110D01*
X5425Y110D02*
X5432Y110D01*
X0Y109D02*
X7Y109D01*
X5425Y109D02*
X5432Y109D01*
X0Y108D02*
X7Y108D01*
X5425Y108D02*
X5432Y108D01*
X0Y107D02*
X7Y107D01*
X5425Y107D02*
X5432Y107D01*
X0Y106D02*
X7Y106D01*
X5425Y106D02*
X5432Y106D01*
X0Y105D02*
X7Y105D01*
X5425Y105D02*
X5432Y105D01*
X0Y104D02*
X7Y104D01*
X5425Y104D02*
X5432Y104D01*
X0Y103D02*
X7Y103D01*
X5425Y103D02*
X5432Y103D01*
X0Y102D02*
X7Y102D01*
X5425Y102D02*
X5432Y102D01*
X0Y101D02*
X7Y101D01*
X5425Y101D02*
X5432Y101D01*
X0Y100D02*
X7Y100D01*
X5425Y100D02*
X5432Y100D01*
X0Y99D02*
X7Y99D01*
X5425Y99D02*
X5432Y99D01*
X0Y98D02*
X7Y98D01*
X5425Y98D02*
X5432Y98D01*
X0Y97D02*
X7Y97D01*
X5425Y97D02*
X5432Y97D01*
X0Y96D02*
X7Y96D01*
X5425Y96D02*
X5432Y96D01*
X0Y95D02*
X7Y95D01*
X5425Y95D02*
X5432Y95D01*
X0Y94D02*
X7Y94D01*
X5425Y94D02*
X5432Y94D01*
X0Y93D02*
X7Y93D01*
X5425Y93D02*
X5432Y93D01*
X0Y92D02*
X7Y92D01*
X5425Y92D02*
X5432Y92D01*
X0Y91D02*
X7Y91D01*
X5425Y91D02*
X5432Y91D01*
X0Y90D02*
X7Y90D01*
X5425Y90D02*
X5432Y90D01*
X0Y89D02*
X7Y89D01*
X5425Y89D02*
X5432Y89D01*
X0Y88D02*
X7Y88D01*
X5425Y88D02*
X5432Y88D01*
X0Y87D02*
X7Y87D01*
X5425Y87D02*
X5432Y87D01*
X0Y86D02*
X7Y86D01*
X5425Y86D02*
X5432Y86D01*
X0Y85D02*
X7Y85D01*
X5425Y85D02*
X5432Y85D01*
X0Y84D02*
X7Y84D01*
X5425Y84D02*
X5432Y84D01*
X0Y83D02*
X7Y83D01*
X5425Y83D02*
X5432Y83D01*
X0Y82D02*
X7Y82D01*
X5425Y82D02*
X5432Y82D01*
X0Y81D02*
X7Y81D01*
X5425Y81D02*
X5432Y81D01*
X0Y80D02*
X7Y80D01*
X5425Y80D02*
X5432Y80D01*
X0Y79D02*
X7Y79D01*
X5425Y79D02*
X5432Y79D01*
X0Y78D02*
X7Y78D01*
X5425Y78D02*
X5432Y78D01*
X0Y77D02*
X7Y77D01*
X5425Y77D02*
X5432Y77D01*
X0Y76D02*
X7Y76D01*
X5425Y76D02*
X5432Y76D01*
X0Y75D02*
X7Y75D01*
X5425Y75D02*
X5432Y75D01*
X0Y74D02*
X7Y74D01*
X5425Y74D02*
X5432Y74D01*
X0Y73D02*
X7Y73D01*
X5425Y73D02*
X5432Y73D01*
X0Y72D02*
X7Y72D01*
X5425Y72D02*
X5432Y72D01*
X0Y71D02*
X7Y71D01*
X5425Y71D02*
X5432Y71D01*
X0Y70D02*
X7Y70D01*
X5425Y70D02*
X5432Y70D01*
X0Y69D02*
X7Y69D01*
X5425Y69D02*
X5432Y69D01*
X0Y68D02*
X7Y68D01*
X5425Y68D02*
X5432Y68D01*
X0Y67D02*
X7Y67D01*
X5425Y67D02*
X5432Y67D01*
X0Y66D02*
X7Y66D01*
X5425Y66D02*
X5432Y66D01*
X0Y65D02*
X7Y65D01*
X5425Y65D02*
X5432Y65D01*
X0Y64D02*
X7Y64D01*
X5425Y64D02*
X5432Y64D01*
X0Y63D02*
X7Y63D01*
X5425Y63D02*
X5432Y63D01*
X0Y62D02*
X7Y62D01*
X5425Y62D02*
X5432Y62D01*
X0Y61D02*
X7Y61D01*
X5425Y61D02*
X5432Y61D01*
X0Y60D02*
X7Y60D01*
X5425Y60D02*
X5432Y60D01*
X0Y59D02*
X7Y59D01*
X5425Y59D02*
X5432Y59D01*
X0Y58D02*
X7Y58D01*
X5425Y58D02*
X5432Y58D01*
X0Y57D02*
X7Y57D01*
X5425Y57D02*
X5432Y57D01*
X0Y56D02*
X7Y56D01*
X5425Y56D02*
X5432Y56D01*
X0Y55D02*
X7Y55D01*
X5425Y55D02*
X5432Y55D01*
X0Y54D02*
X7Y54D01*
X5425Y54D02*
X5432Y54D01*
X0Y53D02*
X7Y53D01*
X5425Y53D02*
X5432Y53D01*
X0Y52D02*
X7Y52D01*
X5425Y52D02*
X5432Y52D01*
X0Y51D02*
X7Y51D01*
X5425Y51D02*
X5432Y51D01*
X0Y50D02*
X7Y50D01*
X5425Y50D02*
X5432Y50D01*
X0Y49D02*
X7Y49D01*
X5425Y49D02*
X5432Y49D01*
X0Y48D02*
X7Y48D01*
X5425Y48D02*
X5432Y48D01*
X0Y47D02*
X7Y47D01*
X5425Y47D02*
X5432Y47D01*
X0Y46D02*
X7Y46D01*
X5425Y46D02*
X5432Y46D01*
X0Y45D02*
X7Y45D01*
X5425Y45D02*
X5432Y45D01*
X0Y44D02*
X7Y44D01*
X5425Y44D02*
X5432Y44D01*
X0Y43D02*
X7Y43D01*
X5425Y43D02*
X5432Y43D01*
X0Y42D02*
X7Y42D01*
X5425Y42D02*
X5432Y42D01*
X0Y41D02*
X7Y41D01*
X5425Y41D02*
X5432Y41D01*
X0Y40D02*
X7Y40D01*
X5425Y40D02*
X5432Y40D01*
X0Y39D02*
X7Y39D01*
X5425Y39D02*
X5432Y39D01*
X0Y38D02*
X7Y38D01*
X5425Y38D02*
X5432Y38D01*
X0Y37D02*
X7Y37D01*
X5425Y37D02*
X5432Y37D01*
X0Y36D02*
X7Y36D01*
X5425Y36D02*
X5432Y36D01*
X0Y35D02*
X7Y35D01*
X5425Y35D02*
X5432Y35D01*
X0Y34D02*
X7Y34D01*
X5425Y34D02*
X5432Y34D01*
X0Y33D02*
X7Y33D01*
X5425Y33D02*
X5432Y33D01*
X0Y32D02*
X7Y32D01*
X5425Y32D02*
X5432Y32D01*
X0Y31D02*
X7Y31D01*
X5425Y31D02*
X5432Y31D01*
X0Y30D02*
X7Y30D01*
X5425Y30D02*
X5432Y30D01*
X0Y29D02*
X7Y29D01*
X5425Y29D02*
X5432Y29D01*
X0Y28D02*
X7Y28D01*
X5425Y28D02*
X5432Y28D01*
X0Y27D02*
X7Y27D01*
X5425Y27D02*
X5432Y27D01*
X0Y26D02*
X7Y26D01*
X5425Y26D02*
X5432Y26D01*
X0Y25D02*
X7Y25D01*
X5425Y25D02*
X5432Y25D01*
X0Y24D02*
X7Y24D01*
X5425Y24D02*
X5432Y24D01*
X0Y23D02*
X7Y23D01*
X5425Y23D02*
X5432Y23D01*
X0Y22D02*
X7Y22D01*
X5425Y22D02*
X5432Y22D01*
X0Y21D02*
X7Y21D01*
X5425Y21D02*
X5432Y21D01*
X0Y20D02*
X7Y20D01*
X5425Y20D02*
X5432Y20D01*
X0Y19D02*
X7Y19D01*
X5425Y19D02*
X5432Y19D01*
X0Y18D02*
X7Y18D01*
X5425Y18D02*
X5432Y18D01*
X0Y17D02*
X7Y17D01*
X5425Y17D02*
X5432Y17D01*
X0Y16D02*
X7Y16D01*
X5425Y16D02*
X5432Y16D01*
X0Y15D02*
X7Y15D01*
X5425Y15D02*
X5432Y15D01*
X0Y14D02*
X7Y14D01*
X5425Y14D02*
X5432Y14D01*
X0Y13D02*
X7Y13D01*
X5425Y13D02*
X5432Y13D01*
X0Y12D02*
X7Y12D01*
X5425Y12D02*
X5432Y12D01*
X0Y11D02*
X7Y11D01*
X5425Y11D02*
X5432Y11D01*
X0Y10D02*
X7Y10D01*
X5425Y10D02*
X5432Y10D01*
X0Y9D02*
X7Y9D01*
X5425Y9D02*
X5432Y9D01*
X0Y8D02*
X5432Y8D01*
X0Y7D02*
X5432Y7D01*
X0Y6D02*
X5432Y6D01*
X0Y5D02*
X5432Y5D01*
X0Y4D02*
X5432Y4D01*
X0Y3D02*
X5432Y3D01*
X0Y2D02*
X5432Y2D01*
X0Y1D02*
X5432Y1D01*
D02*
G04 End of Silk0*
M02*