; NON-PLATED HOLES START AT T1
; THROUGH (PLATED) HOLES START AT T100
M48
INCH
T1C0.181102
T2C0.122047
T100C0.070866
T101C0.035000
T102C0.037396
T103C0.038000
T104C0.043307
T105C0.038007
T106C0.031497
T107C0.015748
T108C0.042000
T109C0.038035
T110C0.039370
%
T1
X052760Y023970
X052755Y001472
X001760Y023970
X001760Y001470
T2
X005760Y023970
X045760Y002970
X005760Y001470
X033785Y005034
X043260Y021970
X013805Y021961
X048760Y001470
X033828Y016056
X013314Y002970
X048760Y023970
T100
X003260Y013439
X003260Y003970
X050755Y019472
X050755Y021441
X050760Y005970
X003260Y019470
X003260Y021439
X050760Y004002
X003260Y011470
X003260Y005939
T101
X014760Y014970
X006095Y007657
X050760Y014470
X018760Y015970
X018760Y012970
X014760Y015970
X049760Y014470
X018760Y014970
X006095Y009657
X014760Y012970
X050760Y010470
X014760Y013970
X049760Y010470
X018760Y013970
T102
X044761Y021970
X044761Y011970
X044761Y009970
X045761Y020970
X045761Y008970
X045761Y016970
X045761Y021970
X045761Y013970
X045761Y004970
X044761Y016970
X045761Y010970
X044761Y020970
X045761Y007970
X044761Y012970
X044761Y018970
X044761Y004970
X045761Y015970
X045761Y019970
X045761Y012970
X045761Y017970
X044761Y007970
X045761Y014970
X044761Y006970
X044761Y010970
X044761Y017970
X045761Y011970
X045761Y018970
X044761Y008970
X044761Y013970
X044761Y015970
X044761Y019970
X045761Y009970
X044761Y005970
X045761Y005970
X044761Y014970
X045761Y006970
T103
X030760Y002970
X045760Y014970
X039760Y005970
X041760Y006970
X045760Y013970
X033760Y012470
X020760Y015470
X016260Y019470
X038760Y002970
X018760Y002970
X045760Y020970
X040760Y005970
X026760Y018470
X030760Y012470
X036760Y007970
X025760Y021970
X029760Y021970
X037760Y005970
X048260Y012970
X044760Y012970
X048260Y010970
X045760Y015970
X039760Y017470
X044760Y009970
X044760Y021970
X021760Y017470
X020162Y021970
X037760Y015470
X042760Y006970
X034760Y021970
X030760Y018470
X024760Y017470
X021760Y015470
X036760Y006970
X027760Y018470
X029760Y012470
X028760Y019470
X033760Y002970
X026760Y021970
X021162Y021970
X039760Y014470
X044760Y015970
X040760Y006970
X045760Y009970
X035760Y021970
X044760Y020970
X042760Y005970
X048260Y014970
X039760Y015470
X041760Y021970
X022760Y013470
X023760Y018470
X036760Y021970
X038760Y006970
X044760Y013970
X025760Y002970
X024162Y021970
X016260Y018470
X044760Y008970
X018162Y021970
X021760Y019470
X045760Y005970
X026760Y017470
X026760Y019470
X039760Y002970
X043760Y002970
X044760Y004970
X044760Y006970
X038760Y007970
X027760Y002970
X044760Y007970
X044760Y018970
X044760Y014970
X044760Y005970
X031760Y012470
X037760Y007970
X023162Y021970
X016162Y021970
X022760Y019470
X028760Y002970
X037760Y016470
X019760Y017470
X024760Y002970
X020760Y017470
X019760Y002970
X023760Y002970
X029760Y002970
X039760Y006970
X040760Y007970
X027760Y021970
X021760Y018470
X035760Y016470
X028760Y017470
X045760Y004970
X037760Y006970
X019760Y018470
X029760Y019470
X022760Y015470
X037760Y021970
X024760Y018470
X045760Y006970
X039760Y021970
X032760Y012470
X021760Y014470
X045760Y011970
X039760Y007970
X043760Y007970
X026760Y012470
X020760Y002970
X020760Y014470
X040760Y002970
X039760Y016470
X031760Y016470
X019162Y021970
X045760Y010970
X045760Y019970
X030760Y019470
X041760Y002970
X031760Y014470
X041760Y007970
X022760Y018470
X038760Y005970
X027760Y017470
X035760Y017470
X021760Y013470
X025760Y019470
X029760Y017470
X020760Y019470
X036760Y005970
X029760Y018470
X042760Y007970
X032760Y002970
X022760Y014470
X045760Y018970
X031760Y015470
X048260Y009970
X025760Y017470
X023760Y019470
X031760Y002970
X045760Y007970
X021760Y002970
X016260Y017470
X035760Y015470
X031760Y017470
X027760Y019470
X020760Y018470
X015162Y021970
X044760Y019970
X022760Y017470
X028760Y018470
X032760Y021970
X037760Y017470
X028760Y012470
X044760Y011970
X031760Y021970
X036760Y002970
X042760Y002970
X025760Y018470
X043760Y005970
X037760Y002970
X030760Y021970
X040760Y021970
X030760Y017470
X017162Y021970
X035760Y014470
X045760Y021970
X045760Y008970
X024760Y019470
X044760Y016970
X044760Y010970
X048260Y011970
X020760Y013470
X041760Y005970
X022162Y021970
X019760Y019470
X028760Y021970
X048260Y013970
X045760Y017970
X037760Y014470
X027760Y012470
X038760Y021970
X045760Y012970
X034760Y002970
X023760Y017470
X045760Y016970
X022760Y002970
X043760Y006970
X044760Y017970
T104
X015260Y017470
X015260Y018470
X015260Y019470
T105
X037761Y002970
X036760Y002970
X019760Y002970
X029761Y002970
X038760Y002970
X042761Y002970
X018760Y002970
X025760Y002970
X033760Y002970
X022760Y002970
X031760Y002970
X021760Y002970
X023760Y002970
X041760Y002970
X030761Y002970
X024760Y002970
X027760Y002970
X040761Y002970
X043760Y002970
X039761Y002970
X032761Y002970
X020760Y002970
X034761Y002970
X028760Y002970
T106
X022276Y009970
X049776Y016470
X050760Y016470
X049776Y008470
X050760Y008470
X023260Y009970
T107
X031760Y006470
X027760Y006470
X025760Y008470
X042260Y013470
X025760Y009470
X016260Y020470
X035260Y006970
X025760Y010470
X029760Y010470
X030760Y010470
X025260Y006470
X026260Y014970
X024260Y014470
X020760Y006970
X028260Y016470
X029760Y008970
X019760Y007470
X028260Y020470
X009760Y006470
X015760Y003970
X017260Y009970
X013760Y009970
X026260Y013970
X048760Y015970
X030760Y008970
X019760Y020470
X032760Y006470
X042760Y017970
X028760Y008970
T108
X008760Y011970
X012760Y011970
X011760Y011970
X011740Y009970
X006760Y011970
X007760Y011970
X010760Y011970
X008760Y009970
T109
X038760Y021970
X032761Y021970
X029761Y021970
X037761Y021970
X024160Y021970
X036760Y021970
X041760Y021970
X021160Y021970
X035761Y021970
X020160Y021970
X031760Y021970
X028760Y021970
X039761Y021970
X018160Y021970
X026760Y021970
X019160Y021970
X017160Y021970
X023160Y021970
X030761Y021970
X040761Y021970
X025760Y021970
X034761Y021970
X027760Y021970
X022160Y021970
T110
X025760Y012470
X034760Y012470
X016172Y021980
X015171Y021987
T00
M30
