G04 MADE WITH FRITZING*
G04 WWW.FRITZING.ORG*
G04 DOUBLE SIDED*
G04 HOLES PLATED*
G04 CONTOUR ON CENTER OF CONTOUR VECTOR*
%ASAXBY*%
%FSLAX23Y23*%
%MOIN*%
%OFA0B0*%
%SFA1.0B1.0*%
%ADD10C,0.039370*%
%ADD11C,0.078000*%
%ADD12C,0.083307*%
%ADD13C,0.082000*%
%ADD14C,0.079370*%
%ADD15C,0.075000*%
%ADD16C,0.066604*%
%ADD17C,0.066632*%
%ADD18C,0.065993*%
%ADD19C,0.062992*%
%ADD20C,0.149606*%
%ADD21R,0.082000X0.082000*%
%ADD22R,0.078740X0.078740*%
%ADD23R,0.086614X0.078740*%
%ADD24R,0.062992X0.062992*%
%ADD25R,0.075000X0.075000*%
%ADD26R,0.149606X0.149606*%
%ADD27R,0.078000X0.078000*%
%ADD28C,0.024000*%
%ADD29C,0.032000*%
%ADD30C,0.048000*%
%ADD31C,0.012000*%
%ADD32C,0.016000*%
%ADD33C,0.110000*%
%ADD34C,0.120000*%
%ADD35C,0.015748*%
%LNCOPPER1*%
G90*
G70*
G54D10*
X3526Y697D03*
X1576Y397D03*
X2526Y647D03*
X1376Y997D03*
G54D11*
X4376Y297D03*
X4276Y297D03*
X4176Y297D03*
X4076Y297D03*
X3976Y297D03*
X3876Y297D03*
X3776Y297D03*
X3676Y297D03*
X4376Y297D03*
X4276Y297D03*
X4176Y297D03*
X4076Y297D03*
X3976Y297D03*
X3876Y297D03*
X3776Y297D03*
X3676Y297D03*
X4576Y2197D03*
X4576Y2097D03*
X4576Y1997D03*
X4576Y1897D03*
X4576Y1797D03*
X4576Y1697D03*
X4576Y1597D03*
X4576Y1497D03*
X4576Y1397D03*
X4576Y1297D03*
X4576Y1197D03*
X4576Y1097D03*
X4576Y997D03*
X4576Y897D03*
X4576Y797D03*
X4576Y697D03*
X4576Y597D03*
X4576Y497D03*
X4576Y2197D03*
X4576Y2097D03*
X4576Y1997D03*
X4576Y1897D03*
X4576Y1797D03*
X4576Y1697D03*
X4576Y1597D03*
X4576Y1497D03*
X4576Y1397D03*
X4576Y1297D03*
X4576Y1197D03*
X4576Y1097D03*
X4576Y997D03*
X4576Y897D03*
X4576Y797D03*
X4576Y697D03*
X4576Y597D03*
X4576Y497D03*
X4476Y497D03*
X4476Y597D03*
X4476Y697D03*
X4476Y797D03*
X4476Y897D03*
X4476Y997D03*
X4476Y1097D03*
X4476Y1197D03*
X4476Y1297D03*
X4476Y1397D03*
X4476Y1497D03*
X4476Y1597D03*
X4476Y1697D03*
X4476Y1797D03*
X4476Y1897D03*
X4476Y1997D03*
X4476Y2097D03*
X4476Y2197D03*
X4576Y2197D03*
X4576Y2097D03*
X4576Y1997D03*
X4576Y1897D03*
X4576Y1797D03*
X4576Y1697D03*
X4576Y1597D03*
X4576Y1497D03*
X4576Y1397D03*
X4576Y1297D03*
X4576Y1197D03*
X4576Y1097D03*
X4576Y997D03*
X4576Y897D03*
X4576Y797D03*
X4576Y697D03*
X4576Y597D03*
X4576Y497D03*
X4576Y2197D03*
X4576Y2097D03*
X4576Y1997D03*
X4576Y1897D03*
X4576Y1797D03*
X4576Y1697D03*
X4576Y1597D03*
X4576Y1497D03*
X4576Y1397D03*
X4576Y1297D03*
X4576Y1197D03*
X4576Y1097D03*
X4576Y997D03*
X4576Y897D03*
X4576Y797D03*
X4576Y697D03*
X4576Y597D03*
X4576Y497D03*
X4476Y497D03*
X4476Y597D03*
X4476Y697D03*
X4476Y797D03*
X4476Y897D03*
X4476Y997D03*
X4476Y1097D03*
X4476Y1197D03*
X4476Y1297D03*
X4476Y1397D03*
X4476Y1497D03*
X4476Y1597D03*
X4476Y1697D03*
X4476Y1797D03*
X4476Y1897D03*
X4476Y1997D03*
X4476Y2097D03*
X4476Y2197D03*
X2576Y297D03*
X2476Y297D03*
X2376Y297D03*
X2276Y297D03*
X2176Y297D03*
X2076Y297D03*
X1976Y297D03*
X1876Y297D03*
X2576Y297D03*
X2476Y297D03*
X2376Y297D03*
X2276Y297D03*
X2176Y297D03*
X2076Y297D03*
X1976Y297D03*
X1876Y297D03*
X3476Y297D03*
X3376Y297D03*
X3276Y297D03*
X3176Y297D03*
X3076Y297D03*
X2976Y297D03*
X2876Y297D03*
X2776Y297D03*
X3476Y297D03*
X3376Y297D03*
X3276Y297D03*
X3176Y297D03*
X3076Y297D03*
X2976Y297D03*
X2876Y297D03*
X2776Y297D03*
X4176Y2197D03*
X4076Y2197D03*
X3976Y2197D03*
X3876Y2197D03*
X3776Y2197D03*
X3676Y2197D03*
X3576Y2197D03*
X3476Y2197D03*
X4176Y2197D03*
X4076Y2197D03*
X3976Y2197D03*
X3876Y2197D03*
X3776Y2197D03*
X3676Y2197D03*
X3576Y2197D03*
X3476Y2197D03*
X3276Y2197D03*
X3176Y2197D03*
X3076Y2197D03*
X2976Y2197D03*
X2876Y2197D03*
X2776Y2197D03*
X2676Y2197D03*
X2576Y2197D03*
X3276Y2197D03*
X3176Y2197D03*
X3076Y2197D03*
X2976Y2197D03*
X2876Y2197D03*
X2776Y2197D03*
X2676Y2197D03*
X2576Y2197D03*
X2416Y2197D03*
X2316Y2197D03*
X2216Y2197D03*
X2116Y2197D03*
X2016Y2197D03*
X1916Y2197D03*
X1816Y2197D03*
X1716Y2197D03*
X1616Y2197D03*
X1516Y2197D03*
X2416Y2197D03*
X2316Y2197D03*
X2216Y2197D03*
X2116Y2197D03*
X2016Y2197D03*
X1916Y2197D03*
X1816Y2197D03*
X1716Y2197D03*
X1616Y2197D03*
X1516Y2197D03*
G54D10*
X976Y647D03*
X1726Y997D03*
X1976Y747D03*
X2076Y697D03*
X3176Y647D03*
X3276Y647D03*
X2776Y647D03*
X2876Y897D03*
X2626Y1397D03*
X2626Y1497D03*
X2826Y1647D03*
X2826Y2047D03*
G54D12*
X1526Y1947D03*
X1526Y1847D03*
X1526Y1747D03*
G54D11*
X1626Y1947D03*
X1626Y1847D03*
X1626Y1747D03*
G54D10*
X1976Y2047D03*
X1626Y2047D03*
G54D13*
X876Y997D03*
X1174Y997D03*
G54D14*
X1617Y2198D03*
X1517Y2199D03*
X3476Y1247D03*
X2576Y1247D03*
G54D11*
X3076Y1847D03*
X2976Y1847D03*
X2876Y1847D03*
X2776Y1847D03*
X2676Y1847D03*
X2576Y1847D03*
X2476Y1847D03*
X2376Y1847D03*
X2276Y1847D03*
X2176Y1847D03*
X2076Y1847D03*
X1976Y1847D03*
X3076Y1747D03*
X2976Y1747D03*
X2876Y1747D03*
X2776Y1747D03*
X2676Y1747D03*
X2576Y1747D03*
X2476Y1747D03*
X2376Y1747D03*
X2276Y1747D03*
X2176Y1747D03*
X2076Y1747D03*
X1976Y1747D03*
X3076Y1947D03*
X2976Y1947D03*
X2876Y1947D03*
X2776Y1947D03*
X2676Y1947D03*
X2576Y1947D03*
X2476Y1947D03*
X2376Y1947D03*
X2276Y1947D03*
X2176Y1947D03*
X2076Y1947D03*
X1976Y1947D03*
X4376Y597D03*
X4276Y597D03*
X4176Y597D03*
X4076Y597D03*
X3976Y597D03*
X3876Y597D03*
X3776Y597D03*
X3676Y597D03*
X4376Y597D03*
X4276Y597D03*
X4176Y597D03*
X4076Y597D03*
X3976Y597D03*
X3876Y597D03*
X3776Y597D03*
X3676Y597D03*
X4376Y697D03*
X4276Y697D03*
X4176Y697D03*
X4076Y697D03*
X3976Y697D03*
X3876Y697D03*
X3776Y697D03*
X3676Y697D03*
X4376Y697D03*
X4276Y697D03*
X4176Y697D03*
X4076Y697D03*
X3976Y697D03*
X3876Y697D03*
X3776Y697D03*
X3676Y697D03*
X4376Y797D03*
X4276Y797D03*
X4176Y797D03*
X4076Y797D03*
X3976Y797D03*
X3876Y797D03*
X3776Y797D03*
X3676Y797D03*
X4376Y797D03*
X4276Y797D03*
X4176Y797D03*
X4076Y797D03*
X3976Y797D03*
X3876Y797D03*
X3776Y797D03*
X3676Y797D03*
G54D10*
X4876Y1597D03*
X4276Y1797D03*
X4226Y1347D03*
X2426Y1447D03*
X2576Y947D03*
X3076Y1047D03*
X2976Y1047D03*
X3076Y897D03*
X2976Y897D03*
X2576Y1047D03*
G54D15*
X1476Y1597D03*
X1876Y1597D03*
G54D16*
X3776Y297D03*
X3876Y297D03*
X3976Y297D03*
X4076Y297D03*
G54D17*
X2416Y2197D03*
G54D16*
X4176Y297D03*
X4276Y297D03*
X4376Y297D03*
G54D18*
X4576Y1297D03*
G54D16*
X2776Y297D03*
X2876Y297D03*
X2176Y297D03*
X2976Y297D03*
X3076Y297D03*
X3176Y297D03*
X3276Y297D03*
X3376Y297D03*
G54D18*
X4576Y2097D03*
G54D16*
X3476Y297D03*
G54D18*
X4576Y497D03*
G54D17*
X2976Y2197D03*
G54D18*
X4576Y1697D03*
X4576Y897D03*
G54D17*
X2016Y2197D03*
G54D16*
X2576Y297D03*
G54D17*
X2576Y2197D03*
G54D18*
X4576Y1897D03*
X4576Y1497D03*
X4576Y1097D03*
X4576Y697D03*
G54D17*
X4176Y2197D03*
X4076Y2197D03*
X3976Y2197D03*
X1816Y2197D03*
X3876Y2197D03*
X2216Y2197D03*
X3776Y2197D03*
X3676Y2197D03*
X3576Y2197D03*
X3476Y2197D03*
G54D16*
X1976Y297D03*
X2376Y297D03*
G54D17*
X3176Y2197D03*
X2776Y2197D03*
G54D18*
X4576Y2197D03*
X4576Y1997D03*
X4576Y1797D03*
X4576Y1597D03*
X4576Y1397D03*
X4576Y1197D03*
X4576Y997D03*
X4576Y797D03*
X4576Y597D03*
G54D17*
X1716Y2197D03*
X1916Y2197D03*
X2116Y2197D03*
X2316Y2197D03*
G54D16*
X1876Y297D03*
X2076Y297D03*
X2276Y297D03*
X2476Y297D03*
G54D17*
X3276Y2197D03*
X3076Y2197D03*
X2876Y2197D03*
X2676Y2197D03*
G54D18*
X4476Y2197D03*
X4476Y2097D03*
X4476Y1997D03*
X4476Y1897D03*
X4476Y1797D03*
X4476Y1697D03*
X4476Y1597D03*
X4476Y1497D03*
X4476Y1397D03*
X4476Y1297D03*
X4476Y1197D03*
X4476Y1097D03*
X4476Y997D03*
X4476Y897D03*
X4476Y797D03*
X4476Y697D03*
X4476Y597D03*
X4476Y497D03*
G54D16*
X3676Y297D03*
G54D19*
X5076Y847D03*
X4978Y847D03*
X2326Y997D03*
X2228Y997D03*
X5076Y1647D03*
X4978Y1647D03*
G54D15*
X5076Y1447D03*
X5076Y1047D03*
X4976Y1447D03*
X4976Y1047D03*
G54D10*
X2576Y847D03*
G54D15*
X610Y766D03*
X610Y966D03*
G54D11*
X2076Y1547D03*
X2076Y1447D03*
X2076Y1347D03*
X2176Y1547D03*
X2176Y1447D03*
X2176Y1347D03*
X2276Y1547D03*
X2276Y1447D03*
X2276Y1347D03*
X4826Y1497D03*
X4826Y1397D03*
X4826Y1297D03*
X4826Y1197D03*
X4826Y1097D03*
X4826Y997D03*
X3176Y1747D03*
X3176Y1647D03*
X3176Y1547D03*
X3176Y1447D03*
X3576Y1747D03*
X3576Y1647D03*
X3576Y1547D03*
X3576Y1447D03*
X3776Y1747D03*
X3776Y1647D03*
X3776Y1547D03*
X3776Y1447D03*
X3976Y1747D03*
X3976Y1647D03*
X3976Y1547D03*
X3976Y1447D03*
G54D20*
X326Y1147D03*
X326Y1344D03*
X326Y397D03*
X326Y594D03*
X5076Y597D03*
X5076Y400D03*
X326Y1947D03*
X326Y2144D03*
X5076Y2144D03*
X5076Y1947D03*
G54D15*
X1476Y1497D03*
X1876Y1497D03*
X1476Y1397D03*
X1876Y1397D03*
X1476Y1297D03*
X1876Y1297D03*
G54D11*
X3376Y1247D03*
X3276Y1247D03*
X3176Y1247D03*
X3076Y1247D03*
X2976Y1247D03*
X2876Y1247D03*
X2776Y1247D03*
X2676Y1247D03*
G54D13*
X1076Y1197D03*
X1176Y1197D03*
X1276Y1197D03*
X676Y1197D03*
X776Y1197D03*
X876Y1197D03*
G54D21*
X875Y997D03*
G54D22*
X3076Y497D03*
X3176Y497D03*
X2976Y497D03*
X2876Y497D03*
X2776Y497D03*
X2676Y497D03*
G54D23*
X2376Y547D03*
X2276Y547D03*
X1776Y547D03*
X1876Y547D03*
X1476Y547D03*
X1676Y547D03*
X1276Y547D03*
X1376Y547D03*
X976Y547D03*
X876Y547D03*
X1076Y547D03*
G54D24*
X5076Y847D03*
X5076Y1647D03*
G54D25*
X610Y766D03*
G54D26*
X326Y1147D03*
X5076Y597D03*
X5076Y2144D03*
G54D27*
X3376Y1247D03*
G54D21*
X1076Y1197D03*
X676Y1197D03*
G54D28*
X4206Y797D02*
X4246Y797D01*
D02*
X4306Y797D02*
X4346Y797D01*
G54D29*
D02*
X2925Y697D02*
X2593Y1030D01*
D02*
X3502Y697D02*
X2925Y697D01*
G54D28*
D02*
X4306Y697D02*
X4346Y697D01*
D02*
X4206Y697D02*
X4246Y697D01*
G54D29*
D02*
X3640Y697D02*
X3551Y697D01*
G54D28*
D02*
X1566Y413D02*
X1499Y513D01*
D02*
X2414Y572D02*
X2510Y637D01*
G54D30*
D02*
X725Y1298D02*
X677Y1247D01*
D02*
X677Y1247D02*
X676Y1240D01*
D02*
X1027Y1296D02*
X725Y1298D01*
D02*
X1076Y1240D02*
X1076Y1247D01*
D02*
X1076Y1247D02*
X1027Y1296D01*
G54D28*
D02*
X4106Y697D02*
X4146Y697D01*
D02*
X4006Y697D02*
X4046Y697D01*
G54D29*
D02*
X1175Y1097D02*
X877Y1097D01*
D02*
X877Y1097D02*
X876Y1159D01*
D02*
X1354Y1008D02*
X1175Y1097D01*
G54D28*
D02*
X4046Y797D02*
X4006Y797D01*
D02*
X3327Y1446D02*
X3425Y1446D01*
D02*
X3425Y1446D02*
X3551Y1530D01*
D02*
X3201Y1530D02*
X3327Y1446D01*
D02*
X1596Y1847D02*
X1559Y1847D01*
D02*
X1559Y1947D02*
X1596Y1947D01*
D02*
X1596Y1747D02*
X1559Y1747D01*
G54D29*
D02*
X1726Y897D02*
X1726Y973D01*
D02*
X1276Y697D02*
X1726Y897D01*
D02*
X1276Y581D02*
X1276Y697D01*
G54D31*
D02*
X3275Y1697D02*
X3198Y1658D01*
D02*
X3276Y2173D02*
X3275Y1697D01*
D02*
X3176Y2173D02*
X3176Y1772D01*
G54D28*
D02*
X3077Y1596D02*
X3149Y1560D01*
D02*
X3076Y1717D02*
X3077Y1596D01*
G54D32*
D02*
X1827Y698D02*
X1787Y581D01*
D02*
X2063Y697D02*
X1827Y698D01*
D02*
X1776Y749D02*
X1963Y747D01*
D02*
X1693Y581D02*
X1776Y749D01*
G54D28*
D02*
X976Y581D02*
X976Y628D01*
G54D31*
D02*
X1377Y447D02*
X1577Y247D01*
G54D32*
D02*
X2893Y464D02*
X2965Y319D01*
D02*
X2865Y319D02*
X2793Y464D01*
D02*
X2693Y464D02*
X2765Y319D01*
D02*
X2677Y548D02*
X2767Y638D01*
D02*
X2677Y534D02*
X2677Y548D01*
G54D28*
D02*
X1977Y1498D02*
X2049Y1461D01*
D02*
X1977Y1598D02*
X1977Y1498D01*
D02*
X1877Y1698D02*
X1977Y1598D01*
D02*
X1875Y1797D02*
X1877Y1698D01*
D02*
X1949Y1834D02*
X1875Y1797D01*
G54D31*
D02*
X1227Y447D02*
X1377Y447D01*
D02*
X1227Y447D02*
X1227Y447D01*
D02*
X1026Y447D02*
X1227Y447D01*
D02*
X2326Y247D02*
X2359Y280D01*
D02*
X1577Y247D02*
X2326Y247D01*
D02*
X993Y513D02*
X1026Y447D01*
G54D32*
D02*
X1726Y398D02*
X2026Y397D01*
D02*
X2177Y347D02*
X2176Y322D01*
D02*
X2026Y397D02*
X2177Y347D01*
D02*
X1687Y513D02*
X1726Y398D01*
D02*
X3093Y464D02*
X3165Y319D01*
D02*
X3193Y464D02*
X3265Y319D01*
D02*
X3176Y548D02*
X3267Y638D01*
D02*
X3176Y534D02*
X3176Y548D01*
D02*
X3077Y548D02*
X3167Y638D01*
D02*
X3076Y534D02*
X3077Y548D01*
D02*
X2993Y464D02*
X3065Y319D01*
D02*
X2026Y447D02*
X2276Y348D01*
D02*
X1926Y448D02*
X2026Y447D01*
D02*
X1893Y513D02*
X1926Y448D01*
D02*
X2276Y348D02*
X2276Y322D01*
G54D28*
D02*
X1076Y581D02*
X1075Y697D01*
D02*
X1476Y1146D02*
X1476Y1268D01*
D02*
X1625Y1096D02*
X1476Y1146D01*
D02*
X1625Y948D02*
X1625Y1096D01*
D02*
X1075Y697D02*
X1625Y948D01*
G54D31*
D02*
X2826Y1346D02*
X2826Y1147D01*
D02*
X2826Y1147D02*
X2873Y910D01*
D02*
X2639Y1394D02*
X2826Y1346D01*
G54D28*
D02*
X2275Y597D02*
X2276Y581D01*
D02*
X2576Y796D02*
X2275Y597D01*
D02*
X2576Y828D02*
X2576Y796D01*
D02*
X1476Y1048D02*
X1376Y1097D01*
D02*
X1376Y1097D02*
X1377Y1347D01*
D02*
X1377Y1347D02*
X1451Y1384D01*
D02*
X1026Y747D02*
X1476Y948D01*
D02*
X925Y747D02*
X1026Y747D01*
D02*
X1476Y948D02*
X1476Y1048D01*
D02*
X877Y647D02*
X925Y747D01*
D02*
X876Y581D02*
X877Y647D01*
D02*
X1946Y1847D02*
X1656Y1847D01*
G54D31*
D02*
X1825Y2048D02*
X1963Y2047D01*
D02*
X1640Y2047D02*
X1825Y2048D01*
D02*
X2815Y1639D02*
X2637Y1505D01*
G54D30*
D02*
X776Y846D02*
X642Y943D01*
D02*
X1017Y845D02*
X776Y846D01*
D02*
X1143Y967D02*
X1017Y845D01*
G54D28*
D02*
X577Y1498D02*
X1447Y1497D01*
D02*
X425Y1147D02*
X577Y1498D01*
D02*
X373Y1147D02*
X425Y1147D01*
G54D30*
D02*
X476Y996D02*
X571Y975D01*
D02*
X367Y1106D02*
X476Y996D01*
G54D32*
D02*
X4176Y573D02*
X4176Y322D01*
D02*
X4276Y573D02*
X4276Y322D01*
D02*
X4376Y573D02*
X4376Y322D01*
G54D28*
D02*
X3906Y697D02*
X3946Y697D01*
G54D32*
D02*
X3676Y573D02*
X3676Y322D01*
D02*
X3776Y573D02*
X3776Y322D01*
D02*
X3876Y573D02*
X3876Y322D01*
D02*
X3976Y573D02*
X3976Y322D01*
D02*
X4076Y573D02*
X4076Y322D01*
G54D28*
D02*
X3946Y797D02*
X3906Y797D01*
D02*
X3846Y797D02*
X3806Y797D01*
D02*
X3746Y797D02*
X3706Y797D01*
D02*
X3706Y697D02*
X3746Y697D01*
D02*
X3806Y697D02*
X3846Y697D01*
G54D32*
D02*
X2477Y2097D02*
X2476Y1972D01*
D02*
X2429Y2176D02*
X2477Y2097D01*
D02*
X2576Y2173D02*
X2576Y1972D01*
D02*
X2676Y2173D02*
X2676Y1972D01*
D02*
X2776Y2173D02*
X2776Y1972D01*
D02*
X2876Y2173D02*
X2876Y1972D01*
D02*
X2976Y1972D02*
X2976Y2173D01*
D02*
X3076Y1972D02*
X3076Y2173D01*
G54D28*
D02*
X4106Y797D02*
X4146Y797D01*
D02*
X2846Y1747D02*
X2806Y1747D01*
D02*
X2946Y1747D02*
X2906Y1747D01*
D02*
X3046Y1747D02*
X3006Y1747D01*
G54D32*
D02*
X2026Y1997D02*
X1993Y1964D01*
D02*
X2026Y2098D02*
X2026Y1997D01*
D02*
X1934Y2181D02*
X2026Y2098D01*
D02*
X2076Y2097D02*
X2076Y1972D01*
D02*
X2029Y2176D02*
X2076Y2097D01*
D02*
X2176Y2097D02*
X2176Y1972D01*
D02*
X2129Y2176D02*
X2176Y2097D01*
D02*
X2275Y2097D02*
X2276Y1972D01*
D02*
X2229Y2176D02*
X2275Y2097D01*
D02*
X2375Y2097D02*
X2376Y1972D01*
D02*
X2329Y2176D02*
X2375Y2097D01*
G54D28*
D02*
X4375Y947D02*
X4277Y1297D01*
D02*
X2046Y1847D02*
X2006Y1847D01*
D02*
X2046Y1747D02*
X2006Y1747D01*
D02*
X2146Y1747D02*
X2106Y1747D01*
D02*
X2246Y1747D02*
X2206Y1747D01*
D02*
X2346Y1747D02*
X2306Y1747D01*
D02*
X2446Y1747D02*
X2406Y1747D01*
D02*
X2546Y1747D02*
X2506Y1747D01*
D02*
X4277Y1297D02*
X4240Y1334D01*
D02*
X4376Y827D02*
X4375Y947D01*
D02*
X2646Y1747D02*
X2606Y1747D01*
D02*
X2746Y1747D02*
X2706Y1747D01*
D02*
X3046Y1847D02*
X3006Y1847D01*
D02*
X2946Y1847D02*
X2906Y1847D01*
D02*
X2846Y1847D02*
X2806Y1847D01*
D02*
X2746Y1847D02*
X2706Y1847D01*
D02*
X2646Y1847D02*
X2606Y1847D01*
D02*
X2546Y1847D02*
X2506Y1847D01*
D02*
X2446Y1847D02*
X2406Y1847D01*
D02*
X2346Y1847D02*
X2306Y1847D01*
D02*
X2246Y1847D02*
X2206Y1847D01*
D02*
X2146Y1847D02*
X2106Y1847D01*
D02*
X1876Y1368D02*
X1876Y1326D01*
D02*
X2375Y1647D02*
X2376Y1717D01*
D02*
X2427Y1599D02*
X2375Y1647D01*
D02*
X2426Y1466D02*
X2427Y1599D01*
G54D31*
D02*
X4870Y1585D02*
X4837Y1519D01*
D02*
X4076Y1447D02*
X3993Y1530D01*
D02*
X4077Y1146D02*
X4076Y1447D01*
D02*
X4026Y1098D02*
X4077Y1146D01*
D02*
X3377Y1098D02*
X4026Y1098D01*
D02*
X3290Y1227D02*
X3377Y1098D01*
G54D29*
D02*
X1827Y847D02*
X2277Y847D01*
D02*
X1376Y647D02*
X1827Y847D01*
D02*
X1376Y581D02*
X1376Y647D01*
D02*
X2277Y847D02*
X2428Y971D01*
D02*
X2428Y971D02*
X2425Y1096D01*
D02*
X2375Y1146D02*
X2375Y1346D01*
D02*
X2425Y1096D02*
X2375Y1146D01*
D02*
X2375Y1346D02*
X2326Y1447D01*
D02*
X2326Y1447D02*
X2312Y1447D01*
G54D28*
D02*
X1625Y1246D02*
X1728Y1198D01*
D02*
X1625Y1598D02*
X1625Y1246D01*
D02*
X1626Y1717D02*
X1625Y1598D01*
D02*
X1728Y1198D02*
X1875Y1198D01*
G54D31*
D02*
X2076Y1197D02*
X2076Y1323D01*
D02*
X2226Y1097D02*
X2076Y1197D01*
D02*
X2227Y1018D02*
X2226Y1097D01*
G54D33*
D02*
X4827Y548D02*
X4827Y348D01*
D02*
X625Y347D02*
X416Y382D01*
D02*
X4827Y348D02*
X4659Y133D01*
G54D28*
D02*
X1875Y1198D02*
X2052Y1329D01*
G54D33*
D02*
X876Y146D02*
X625Y347D01*
D02*
X4659Y133D02*
X876Y146D01*
D02*
X4987Y580D02*
X4827Y548D01*
G54D34*
D02*
X127Y1197D02*
X127Y1847D01*
D02*
X127Y1847D02*
X240Y1904D01*
D02*
X232Y1171D02*
X127Y1197D01*
G54D32*
D02*
X2477Y347D02*
X2477Y322D01*
D02*
X2075Y496D02*
X2477Y347D01*
D02*
X1976Y496D02*
X2075Y496D01*
D02*
X1976Y598D02*
X1976Y496D01*
D02*
X2126Y597D02*
X1976Y598D01*
D02*
X2565Y939D02*
X2126Y597D01*
G54D31*
D02*
X2976Y911D02*
X2976Y1034D01*
D02*
X3076Y911D02*
X3076Y1034D01*
D02*
X4664Y565D02*
X4595Y512D01*
D02*
X4676Y1447D02*
X4664Y565D01*
D02*
X4803Y1489D02*
X4676Y1447D01*
G54D28*
D02*
X3606Y1547D02*
X3746Y1547D01*
D02*
X3806Y1547D02*
X3946Y1547D01*
G54D31*
D02*
X3976Y1948D02*
X3976Y2173D01*
D02*
X4075Y1697D02*
X4077Y1797D01*
D02*
X4077Y1797D02*
X3976Y1948D01*
D02*
X3998Y1658D02*
X4075Y1697D01*
D02*
X3776Y1948D02*
X3776Y2173D01*
D02*
X3876Y1697D02*
X3876Y1798D01*
D02*
X3876Y1798D02*
X3776Y1948D01*
D02*
X3798Y1658D02*
X3876Y1697D01*
D02*
X3576Y1948D02*
X3576Y2173D01*
D02*
X3676Y1697D02*
X3676Y1798D01*
D02*
X3676Y1798D02*
X3576Y1948D01*
D02*
X3598Y1658D02*
X3676Y1697D01*
D02*
X3476Y1948D02*
X3565Y1769D01*
D02*
X3476Y2173D02*
X3476Y1948D01*
D02*
X3675Y1948D02*
X3765Y1769D01*
D02*
X3676Y2173D02*
X3675Y1948D01*
D02*
X3877Y1948D02*
X3965Y1769D01*
D02*
X3876Y2173D02*
X3877Y1948D01*
G54D32*
D02*
X3601Y1447D02*
X3752Y1447D01*
D02*
X3801Y1447D02*
X3952Y1447D01*
G54D28*
D02*
X2246Y1447D02*
X2206Y1447D01*
D02*
X2146Y1347D02*
X2106Y1347D01*
D02*
X2146Y1447D02*
X2106Y1447D01*
G54D32*
D02*
X2526Y1447D02*
X2425Y1299D01*
D02*
X1876Y647D02*
X1876Y581D01*
D02*
X2126Y647D02*
X1876Y647D01*
D02*
X2478Y948D02*
X2126Y647D01*
D02*
X2475Y1148D02*
X2478Y948D01*
D02*
X2425Y1198D02*
X2475Y1148D01*
D02*
X2425Y1299D02*
X2425Y1198D01*
G54D28*
D02*
X2246Y1347D02*
X2206Y1347D01*
G54D31*
D02*
X4826Y1697D02*
X4626Y1647D01*
D02*
X4877Y1697D02*
X4826Y1697D01*
D02*
X4826Y1746D02*
X4676Y1698D01*
D02*
X5076Y1746D02*
X4826Y1746D01*
D02*
X5175Y1697D02*
X5076Y1746D01*
D02*
X5175Y1547D02*
X5175Y1697D01*
D02*
X5092Y1463D02*
X5175Y1547D01*
D02*
X4676Y1698D02*
X4600Y1697D01*
D02*
X4977Y1498D02*
X4877Y1697D01*
D02*
X4976Y1470D02*
X4977Y1498D01*
D02*
X4626Y1647D02*
X4528Y1647D01*
D02*
X4528Y1647D02*
X4494Y1680D01*
D02*
X3176Y997D02*
X4125Y996D01*
D02*
X4175Y1396D02*
X4225Y1446D01*
D02*
X4176Y1047D02*
X4175Y1396D01*
D02*
X4125Y996D02*
X4176Y1047D01*
D02*
X4277Y1647D02*
X4276Y1784D01*
D02*
X4225Y1597D02*
X4277Y1647D01*
D02*
X4225Y1446D02*
X4225Y1597D01*
D02*
X3085Y1224D02*
X3176Y997D01*
D02*
X3275Y1047D02*
X4077Y1047D01*
D02*
X4127Y1396D02*
X4176Y1449D01*
D02*
X4125Y1098D02*
X4127Y1396D01*
D02*
X4077Y1047D02*
X4125Y1098D01*
D02*
X4176Y1449D02*
X4176Y2172D01*
D02*
X3187Y1225D02*
X3275Y1047D01*
G54D28*
D02*
X1876Y1426D02*
X1876Y1468D01*
G54D33*
D02*
X1076Y2396D02*
X4625Y2396D01*
D02*
X4775Y2147D02*
X4985Y2145D01*
D02*
X4625Y2396D02*
X4775Y2147D01*
D02*
X417Y1947D02*
X675Y1946D01*
G54D32*
D02*
X3152Y1447D02*
X2526Y1447D01*
D02*
X3325Y1397D02*
X3199Y1439D01*
D02*
X3427Y1397D02*
X3325Y1397D01*
D02*
X3553Y1439D02*
X3427Y1397D01*
G54D31*
D02*
X4976Y997D02*
X4976Y1024D01*
D02*
X5076Y898D02*
X4976Y997D01*
D02*
X5076Y868D02*
X5076Y898D01*
D02*
X4677Y498D02*
X4600Y497D01*
D02*
X4726Y548D02*
X4677Y498D01*
D02*
X4726Y697D02*
X4726Y548D01*
D02*
X4776Y747D02*
X4726Y697D01*
D02*
X4959Y838D02*
X4776Y747D01*
D02*
X1576Y1547D02*
X1497Y1587D01*
D02*
X1576Y1197D02*
X1576Y1547D01*
D02*
X1776Y1097D02*
X1576Y1197D01*
D02*
X2026Y1097D02*
X1776Y1097D01*
D02*
X2126Y897D02*
X2026Y1097D01*
D02*
X2228Y897D02*
X2126Y897D01*
D02*
X2311Y982D02*
X2228Y897D01*
G54D33*
D02*
X675Y1946D02*
X1076Y2396D01*
D02*
X5176Y596D02*
X5167Y596D01*
D02*
X5275Y648D02*
X5176Y596D01*
D02*
X5276Y2097D02*
X5275Y648D01*
D02*
X5176Y2148D02*
X5276Y2097D01*
D02*
X5167Y2148D02*
X5176Y2148D01*
G54D34*
D02*
X226Y397D02*
X127Y495D01*
D02*
X127Y1049D02*
X240Y1104D01*
D02*
X127Y495D02*
X127Y1049D01*
D02*
X230Y397D02*
X226Y397D01*
G54D35*
X2302Y1021D02*
X2350Y1021D01*
X2350Y973D01*
X2302Y973D01*
X2302Y1021D01*
D02*
G54D10*
X271Y342D02*
X271Y452D01*
X381Y452D01*
X381Y342D01*
X271Y342D01*
D02*
X271Y1892D02*
X271Y2002D01*
X381Y2002D01*
X381Y1892D01*
X271Y1892D01*
D02*
G04 End of Copper1*
M02*